<svg width="168" height="168" viewBox="0 0 168 168" fill="none" xmlns="http://www.w3.org/2000/svg">
<path d="M85 31.1641C73.9243 31.1641 63.0972 34.4484 53.8881 40.6018C44.6789 46.7551 37.5013 55.5011 33.2628 65.7338C29.0243 75.9664 27.9153 87.2262 30.076 98.0891C32.2368 108.952 37.5703 118.93 45.402 126.762C53.2338 134.594 63.212 139.927 74.075 142.088C84.9379 144.249 96.1976 143.14 106.43 138.901C116.663 134.663 125.409 127.485 131.562 118.276C137.716 109.067 141 98.2398 141 87.1641C140.983 72.3171 135.078 58.0829 124.58 47.5845C114.081 37.0861 99.847 31.1807 85 31.1641ZM85 139.164C74.7154 139.164 64.6617 136.114 56.1104 130.4C47.559 124.687 40.894 116.565 36.9583 107.064C33.0225 97.5618 31.9928 87.1064 33.9992 77.0194C36.0056 66.9324 40.9581 57.6668 48.2305 50.3945C55.5028 43.1222 64.7683 38.1697 74.8553 36.1632C84.9423 34.1568 95.3978 35.1866 104.9 39.1223C114.401 43.0581 122.523 49.7231 128.236 58.2744C133.95 66.8258 137 76.8794 137 87.1641C136.984 100.951 131.501 114.168 121.752 123.916C112.004 133.665 98.7865 139.148 85 139.164Z" fill="#0DC143"/>
<path d="M115.598 61.7383L68.2698 108.31L54.4488 93.7853C54.0823 93.4046 53.5801 93.1844 53.0518 93.1728C52.5235 93.1612 52.0121 93.3591 51.6293 93.7233C51.2465 94.0875 51.0233 94.5884 51.0086 95.1166C50.9939 95.6448 51.1888 96.1574 51.5508 96.5423L66.7738 112.542C66.9567 112.735 67.1761 112.889 67.4192 112.996C67.6623 113.103 67.9243 113.16 68.1898 113.164H68.2238C68.7484 113.164 69.2519 112.957 69.6258 112.589L118.402 64.5893C118.596 64.407 118.753 64.1875 118.861 63.9439C118.97 63.7003 119.028 63.4374 119.034 63.1707C119.039 62.9041 118.991 62.639 118.893 62.3911C118.794 62.1433 118.647 61.9176 118.46 61.7275C118.273 61.5373 118.05 61.3865 117.804 61.2839C117.558 61.1812 117.293 61.1289 117.027 61.1299C116.76 61.1309 116.496 61.1853 116.251 61.2898C116.005 61.3942 115.783 61.5468 115.598 61.7383Z" fill="white"/>
<path d="M150.721 146.914H106.261C120.336 141.692 132.127 131.689 139.573 118.653C147.019 105.617 149.645 90.3781 146.992 75.6018C144.34 60.8256 136.577 47.452 125.062 37.82C113.547 28.188 99.0118 22.9105 83.9993 22.9105C68.9868 22.9105 54.4521 28.188 42.9369 37.82C31.4217 47.452 23.6591 60.8256 21.0064 75.6018C18.3537 90.3781 20.9798 105.617 28.4256 118.653C35.8714 131.689 47.6628 141.692 61.7378 146.914H17.2778C16.9933 146.877 16.7041 146.901 16.4296 146.984C16.1551 147.068 15.9015 147.209 15.6859 147.398C15.4702 147.588 15.2975 147.821 15.1791 148.082C15.0607 148.343 14.9995 148.627 14.9995 148.914C14.9995 149.201 15.0607 149.485 15.1791 149.746C15.2975 150.007 15.4702 150.241 15.6859 150.43C15.9015 150.619 16.1551 150.76 16.4296 150.844C16.7041 150.927 16.9933 150.951 17.2778 150.914H150.721C151.005 150.951 151.295 150.927 151.569 150.844C151.844 150.76 152.097 150.619 152.313 150.43C152.528 150.241 152.701 150.007 152.82 149.746C152.938 149.485 152.999 149.201 152.999 148.914C152.999 148.627 152.938 148.343 152.82 148.082C152.701 147.821 152.528 147.588 152.313 147.398C152.097 147.209 151.844 147.068 151.569 146.984C151.295 146.901 151.005 146.877 150.721 146.914ZM23.9998 86.9141C23.9998 75.0472 27.5188 63.4468 34.1117 53.5799C40.7045 43.7129 50.0753 36.0226 61.0388 31.4813C72.0024 26.94 84.0664 25.7518 95.7053 28.067C107.344 30.3821 118.035 36.0965 126.426 44.4877C134.817 52.8788 140.532 63.5698 142.847 75.2087C145.162 86.8475 143.974 98.9115 139.433 109.875C134.891 120.839 127.201 130.209 117.334 136.802C107.467 143.395 95.8667 146.914 83.9998 146.914C68.0924 146.896 52.8416 140.569 41.5933 129.321C30.345 118.072 24.0178 102.822 23.9998 86.9141ZM88.4998 17.6641C89.0932 17.6641 89.6732 17.4881 90.1665 17.1585C90.6599 16.8288 91.0444 16.3603 91.2715 15.8121C91.4985 15.2639 91.5579 14.6607 91.4422 14.0788C91.3264 13.4969 91.0407 12.9623 90.6212 12.5428C90.2016 12.1232 89.667 11.8375 89.0851 11.7217C88.5032 11.606 87.9 11.6654 87.3518 11.8924C86.8036 12.1195 86.3351 12.504 86.0054 12.9974C85.6758 13.4907 85.4998 14.0707 85.4998 14.6641C85.5006 15.4595 85.8169 16.2221 86.3794 16.7845C86.9418 17.347 87.7044 17.6633 88.4998 17.6641ZM88.4998 13.1641C88.7965 13.1641 89.0865 13.2521 89.3332 13.4169C89.5799 13.5817 89.7721 13.816 89.8857 14.0901C89.9992 14.3641 90.0289 14.6657 89.971 14.9567C89.9131 15.2477 89.7703 15.515 89.5605 15.7247C89.3507 15.9345 89.0834 16.0774 88.7925 16.1353C88.5015 16.1931 88.1999 16.1634 87.9258 16.0499C87.6517 15.9364 87.4174 15.7441 87.2526 15.4974C87.0878 15.2508 86.9998 14.9607 86.9998 14.6641C87.0001 14.2663 87.1582 13.885 87.4395 13.6037C87.7207 13.3225 88.1021 13.1643 88.4998 13.1641ZM158.305 67.9141C157.909 67.9141 157.523 68.0314 157.194 68.2511C156.865 68.4709 156.608 68.7833 156.457 69.1487C156.306 69.5142 156.266 69.9163 156.343 70.3043C156.42 70.6922 156.611 71.0486 156.891 71.3283C157.17 71.608 157.527 71.7985 157.915 71.8756C158.303 71.9528 158.705 71.9132 159.07 71.7618C159.436 71.6105 159.748 71.3541 159.968 71.0252C160.188 70.6963 160.305 70.3096 160.305 69.9141C160.304 69.3838 160.093 68.8754 159.718 68.5005C159.344 68.1255 158.835 67.9146 158.305 67.9141ZM158.305 70.9141C158.107 70.9141 157.914 70.8554 157.749 70.7455C157.585 70.6357 157.457 70.4795 157.381 70.2968C157.305 70.114 157.285 69.913 157.324 69.719C157.363 69.525 157.458 69.3468 157.598 69.207C157.738 69.0671 157.916 68.9719 158.11 68.9333C158.304 68.8947 158.505 68.9145 158.688 68.9902C158.87 69.0659 159.026 69.1941 159.136 69.3585C159.246 69.523 159.305 69.7163 159.305 69.9141C159.305 70.1792 159.199 70.4334 159.012 70.6209C158.824 70.8084 158.57 70.9138 158.305 70.9141ZM130 3.58008C129.604 3.58008 129.218 3.69738 128.889 3.91714C128.56 4.1369 128.303 4.44926 128.152 4.81471C128.001 5.18016 127.961 5.5823 128.038 5.97026C128.115 6.35822 128.306 6.71459 128.586 6.99429C128.865 7.274 129.222 7.46448 129.61 7.54165C129.998 7.61882 130.4 7.57921 130.765 7.42784C131.131 7.27646 131.443 7.02012 131.663 6.69122C131.883 6.36232 132 5.97564 132 5.58008C131.999 5.04981 131.788 4.54141 131.413 4.16645C131.039 3.79149 130.53 3.58061 130 3.58008ZM130 6.58008C129.802 6.58008 129.609 6.52143 129.444 6.41155C129.28 6.30167 129.152 6.14549 129.076 5.96276C129 5.78004 128.98 5.57897 129.019 5.38499C129.058 5.19101 129.153 5.01282 129.293 4.87297C129.433 4.73312 129.611 4.63788 129.805 4.59929C129.999 4.56071 130.2 4.58051 130.383 4.6562C130.565 4.73189 130.721 4.86006 130.831 5.02451C130.941 5.18896 131 5.3823 131 5.58008C131 5.84521 130.894 6.09941 130.707 6.28689C130.519 6.47437 130.265 6.57981 130 6.58008ZM161.333 15.2471C160.937 15.2471 160.551 15.3644 160.222 15.5841C159.893 15.8039 159.636 16.1163 159.485 16.4817C159.334 16.8472 159.294 17.2493 159.371 17.6373C159.448 18.0252 159.639 18.3816 159.919 18.6613C160.198 18.941 160.555 19.1315 160.943 19.2086C161.331 19.2858 161.733 19.2462 162.098 19.0948C162.464 18.9435 162.776 18.6871 162.996 18.3582C163.216 18.0293 163.333 17.6426 163.333 17.2471C163.332 16.7168 163.121 16.2084 162.746 15.8334C162.372 15.4585 161.863 15.2476 161.333 15.2471ZM161.333 18.2471C161.135 18.2471 160.942 18.1884 160.777 18.0785C160.613 17.9687 160.485 17.8125 160.409 17.6298C160.333 17.447 160.313 17.246 160.352 17.052C160.391 16.858 160.486 16.6798 160.626 16.54C160.766 16.4001 160.944 16.3049 161.138 16.2663C161.332 16.2277 161.533 16.2475 161.716 16.3232C161.898 16.3989 162.054 16.5271 162.164 16.6915C162.274 16.856 162.333 17.0493 162.333 17.2471C162.333 17.5122 162.227 17.7664 162.04 17.9539C161.852 18.1414 161.598 18.2468 161.333 18.2471ZM30.3048 30.5801C30.3048 30.1845 30.1875 29.7978 29.9678 29.4689C29.748 29.14 29.4357 28.8837 29.0702 28.7323C28.7047 28.5809 28.3026 28.5413 27.9147 28.6185C27.5267 28.6957 27.1703 28.8862 26.8906 29.1659C26.6109 29.4456 26.4204 29.8019 26.3433 30.1899C26.2661 30.5779 26.3057 30.98 26.4571 31.3454C26.6084 31.7109 26.8648 32.0233 27.1937 32.243C27.5226 32.4628 27.9093 32.5801 28.3048 32.5801C28.8351 32.5795 29.3435 32.3687 29.7185 31.9937C30.0934 31.6187 30.3043 31.1103 30.3048 30.5801ZM27.3048 30.5801C27.3048 30.3823 27.3635 30.189 27.4734 30.0245C27.5832 29.8601 27.7394 29.7319 27.9222 29.6562C28.1049 29.5805 28.3059 29.5607 28.4999 29.5993C28.6939 29.6379 28.8721 29.7331 29.0119 29.873C29.1518 30.0128 29.247 30.191 29.2856 30.385C29.3242 30.579 29.3044 30.78 29.2287 30.9628C29.153 31.1455 29.0249 31.3017 28.8604 31.4115C28.696 31.5214 28.5026 31.5801 28.3048 31.5801C28.0397 31.5798 27.7855 31.4744 27.598 31.2869C27.4105 31.0994 27.3051 30.8452 27.3048 30.5801Z" fill="white"/>
<path d="M10.8878 67.9249L12.3748 65.9689L11.4358 65.4369L10.4808 67.6269H10.4498L9.47982 65.4529L8.52482 65.9999L9.99582 67.9099V67.9409L7.69482 67.6429V68.7069L10.0108 68.4099V68.4409L8.52482 70.3499L9.41582 70.9139L10.4338 68.7069H10.4648L11.4038 70.8979L12.3898 70.3349L10.8878 68.4569V68.4249L13.2498 68.7069V67.6429L10.8878 67.9559V67.9249ZM12.1618 6.23794L11.3058 7.33694L11.8188 7.66194L12.4048 6.39094H12.4228L12.9638 7.65294L13.5318 7.32794L12.6668 6.24694V6.22894L14.0268 6.39094V5.77794L12.6668 5.95894V5.94094L13.5228 4.81394L12.9818 4.50794L12.4328 5.76894H12.4138L11.8558 4.51694L11.3058 4.83194L12.1528 5.93194V5.94994L10.8278 5.77794V6.39094L12.1618 6.21994V6.23794ZM65.3048 6.29394V5.24994L62.9878 5.55694V5.52594L64.4458 3.60794L63.5248 3.08594L62.5888 5.23494H62.5578L61.6068 3.10094L60.6698 3.63894L62.1128 5.51094V5.54194L59.8558 5.24994V6.29394L62.1278 6.00194V6.03294L60.6698 7.90494L61.5448 8.45794L62.5428 6.29394H62.5728L63.4938 8.44194L64.4608 7.88994L62.9878 6.04794V6.01694L65.3048 6.29394ZM138.858 35.8389L140.116 34.1839L139.321 33.7339L138.514 35.5869H138.487L137.667 33.7469L136.858 34.2099L138.103 35.8259V35.8519L136.157 35.5999V36.4999L138.116 36.2489V36.2759L136.858 37.8899L137.613 38.3669L138.474 36.4999H138.5L139.294 38.3539L140.129 37.8769L138.858 36.2889V36.2619L140.856 36.4999V35.5999L138.858 35.8649V35.8389Z" fill="#0DC143"/>
<path d="M2 150.914C3.10457 150.914 4 150.019 4 148.914C4 147.809 3.10457 146.914 2 146.914C0.89543 146.914 0 147.809 0 148.914C0 150.019 0.89543 150.914 2 150.914Z" fill="white"/>
<path d="M11 146.914H8C7.46957 146.914 6.96086 147.125 6.58579 147.5C6.21071 147.875 6 148.384 6 148.914C6 149.444 6.21071 149.953 6.58579 150.328C6.96086 150.703 7.46957 150.914 8 150.914H11C11.5304 150.914 12.0391 150.703 12.4142 150.328C12.7893 149.953 13 149.444 13 148.914C13 148.384 12.7893 147.875 12.4142 147.5C12.0391 147.125 11.5304 146.914 11 146.914ZM160 146.914H157C156.47 146.914 155.961 147.125 155.586 147.5C155.211 147.875 155 148.384 155 148.914C155 149.444 155.211 149.953 155.586 150.328C155.961 150.703 156.47 150.914 157 150.914H160C160.53 150.914 161.039 150.703 161.414 150.328C161.789 149.953 162 149.444 162 148.914C162 148.384 161.789 147.875 161.414 147.5C161.039 147.125 160.53 146.914 160 146.914Z" fill="white"/>
<path d="M166 150.914C167.105 150.914 168 150.019 168 148.914C168 147.809 167.105 146.914 166 146.914C164.895 146.914 164 147.809 164 148.914C164 150.019 164.895 150.914 166 150.914Z" fill="white"/>
<path d="M118.154 154.914H109.846C109.342 154.953 108.872 155.181 108.529 155.552C108.186 155.922 107.995 156.409 107.995 156.914C107.995 157.419 108.186 157.906 108.529 158.277C108.872 158.647 109.342 158.875 109.846 158.914H118.154C118.658 158.875 119.128 158.647 119.471 158.277C119.814 157.906 120.005 157.419 120.005 156.914C120.005 156.409 119.814 155.922 119.471 155.552C119.128 155.181 118.658 154.953 118.154 154.914ZM58.1541 154.914H49.8461C49.3424 154.953 48.872 155.181 48.5289 155.552C48.1857 155.922 47.9951 156.409 47.9951 156.914C47.9951 157.419 48.1857 157.906 48.5289 158.277C48.872 158.647 49.3424 158.875 49.8461 158.914H58.1541C58.6578 158.875 59.1282 158.647 59.4713 158.277C59.8144 157.906 60.005 157.419 60.005 156.914C60.005 156.409 59.8144 155.922 59.4713 155.552C59.1282 155.181 58.6578 154.953 58.1541 154.914ZM104 154.914H64.0001C63.4696 154.914 62.9609 155.125 62.5859 155.5C62.2108 155.875 62.0001 156.384 62.0001 156.914C62.0001 157.444 62.2108 157.953 62.5859 158.328C62.9609 158.703 63.4696 158.914 64.0001 158.914H79.9401V160.914H72.0001C71.4696 160.914 70.9609 161.125 70.5859 161.5C70.2108 161.875 70.0001 162.384 70.0001 162.914C70.0001 163.444 70.2108 163.953 70.5859 164.328C70.9609 164.703 71.4696 164.914 72.0001 164.914H97.0001C97.5305 164.914 98.0392 164.703 98.4143 164.328C98.7894 163.953 99.0001 163.444 99.0001 162.914C99.0001 162.384 98.7894 161.875 98.4143 161.5C98.0392 161.125 97.5305 160.914 97.0001 160.914H88.0601V158.914H104C104.531 158.914 105.039 158.703 105.414 158.328C105.789 157.953 106 157.444 106 156.914C106 156.384 105.789 155.875 105.414 155.5C105.039 155.125 104.531 154.914 104 154.914Z" fill="#0DC143"/>
</svg>
