<svg width="420" height="420" viewBox="0 0 420 420" fill="none" xmlns="http://www.w3.org/2000/svg">
<circle cx="210" cy="210" r="199.5" stroke="url(#paint0_linear_54_5491)" stroke-width="21"/>
<path d="M166.452 126V104.125H159.697V99.925H177.897V104.125H171.247V126H166.452ZM187.265 126.42C185.399 126.42 183.695 125.988 182.155 125.125C180.639 124.262 179.425 123.083 178.515 121.59C177.629 120.097 177.185 118.393 177.185 116.48C177.185 114.567 177.629 112.863 178.515 111.37C179.425 109.877 180.639 108.698 182.155 107.835C183.672 106.972 185.375 106.54 187.265 106.54C189.132 106.54 190.824 106.972 192.34 107.835C193.857 108.698 195.059 109.877 195.945 111.37C196.855 112.84 197.31 114.543 197.31 116.48C197.31 118.393 196.855 120.097 195.945 121.59C195.035 123.083 193.822 124.262 192.305 125.125C190.789 125.988 189.109 126.42 187.265 126.42ZM187.265 122.22C188.292 122.22 189.19 121.975 189.96 121.485C190.754 120.995 191.372 120.318 191.815 119.455C192.282 118.568 192.515 117.577 192.515 116.48C192.515 115.36 192.282 114.38 191.815 113.54C191.372 112.677 190.754 112 189.96 111.51C189.19 110.997 188.292 110.74 187.265 110.74C186.215 110.74 185.294 110.997 184.5 111.51C183.707 112 183.077 112.677 182.61 113.54C182.167 114.38 181.945 115.36 181.945 116.48C181.945 117.577 182.167 118.568 182.61 119.455C183.077 120.318 183.707 120.995 184.5 121.485C185.294 121.975 186.215 122.22 187.265 122.22ZM200.787 126V99.505H205.372V116.865L203.622 116.34L212.582 106.96H218.287L211.252 114.625L218.427 126H213.177L206.947 116.13L209.677 115.57L203.937 121.73L205.372 118.93V126H200.787ZM229.676 126.42C227.716 126.42 226.001 125.977 224.531 125.09C223.061 124.203 221.917 123.002 221.101 121.485C220.284 119.968 219.876 118.288 219.876 116.445C219.876 114.532 220.284 112.84 221.101 111.37C221.941 109.877 223.072 108.698 224.496 107.835C225.942 106.972 227.552 106.54 229.326 106.54C230.819 106.54 232.126 106.785 233.246 107.275C234.389 107.765 235.357 108.442 236.151 109.305C236.944 110.168 237.551 111.16 237.971 112.28C238.391 113.377 238.601 114.567 238.601 115.85C238.601 116.177 238.577 116.515 238.531 116.865C238.507 117.215 238.449 117.518 238.356 117.775H223.656V114.275H235.766L233.596 115.92C233.806 114.847 233.747 113.89 233.421 113.05C233.117 112.21 232.604 111.545 231.881 111.055C231.181 110.565 230.329 110.32 229.326 110.32C228.369 110.32 227.517 110.565 226.771 111.055C226.024 111.522 225.452 112.222 225.056 113.155C224.682 114.065 224.542 115.173 224.636 116.48C224.542 117.647 224.694 118.685 225.091 119.595C225.511 120.482 226.117 121.17 226.911 121.66C227.727 122.15 228.661 122.395 229.711 122.395C230.761 122.395 231.647 122.173 232.371 121.73C233.117 121.287 233.701 120.692 234.121 119.945L237.831 121.765C237.457 122.675 236.874 123.48 236.081 124.18C235.287 124.88 234.342 125.428 233.246 125.825C232.172 126.222 230.982 126.42 229.676 126.42ZM242.076 126V106.96H246.381V110.705L246.031 110.04C246.475 108.897 247.198 108.033 248.201 107.45C249.228 106.843 250.418 106.54 251.771 106.54C253.171 106.54 254.408 106.843 255.481 107.45C256.578 108.057 257.43 108.908 258.036 110.005C258.643 111.078 258.946 112.327 258.946 113.75V126H254.361V114.835C254.361 113.995 254.198 113.272 253.871 112.665C253.545 112.058 253.09 111.592 252.506 111.265C251.946 110.915 251.281 110.74 250.511 110.74C249.765 110.74 249.1 110.915 248.516 111.265C247.933 111.592 247.478 112.058 247.151 112.665C246.825 113.272 246.661 113.995 246.661 114.835V126H242.076Z" fill="white"/>
<path d="M61.9038 183V165.12H64.4478L74.2878 178.368L72.9678 178.632V165.12H76.2318V183H73.6638L63.9678 169.656L65.1678 169.392V183H61.9038ZM83.3888 183.288C82.4768 183.288 81.6848 183.136 81.0128 182.832C80.3408 182.528 79.8208 182.096 79.4528 181.536C79.0848 180.96 78.9008 180.296 78.9008 179.544C78.9008 178.824 79.0608 178.184 79.3808 177.624C79.7008 177.048 80.1968 176.568 80.8688 176.184C81.5408 175.8 82.3888 175.528 83.4128 175.368L87.6848 174.672V177.072L84.0128 177.696C83.3888 177.808 82.9248 178.008 82.6208 178.296C82.3168 178.584 82.1648 178.96 82.1648 179.424C82.1648 179.872 82.3328 180.232 82.6688 180.504C83.0208 180.76 83.4528 180.888 83.9648 180.888C84.6208 180.888 85.1968 180.752 85.6928 180.48C86.2048 180.192 86.5968 179.8 86.8688 179.304C87.1568 178.808 87.3008 178.264 87.3008 177.672V174.312C87.3008 173.752 87.0768 173.288 86.6288 172.92C86.1968 172.536 85.6208 172.344 84.9008 172.344C84.2288 172.344 83.6288 172.528 83.1008 172.896C82.5888 173.248 82.2128 173.72 81.9728 174.312L79.4048 173.064C79.6608 172.376 80.0608 171.784 80.6048 171.288C81.1648 170.776 81.8208 170.376 82.5728 170.088C83.3248 169.8 84.1408 169.656 85.0208 169.656C86.0928 169.656 87.0368 169.856 87.8528 170.256C88.6688 170.64 89.3008 171.184 89.7488 171.888C90.2128 172.576 90.4448 173.384 90.4448 174.312V183H87.4688V180.768L88.1408 180.72C87.8048 181.28 87.4048 181.752 86.9408 182.136C86.4768 182.504 85.9488 182.792 85.3568 183C84.7648 183.192 84.1088 183.288 83.3888 183.288ZM93.3507 183V169.944H96.3027V172.968L95.9667 172.464C96.2067 171.52 96.6867 170.816 97.4067 170.352C98.1267 169.888 98.9747 169.656 99.9507 169.656C101.023 169.656 101.967 169.936 102.783 170.496C103.599 171.056 104.127 171.792 104.367 172.704L103.479 172.776C103.879 171.736 104.479 170.96 105.279 170.448C106.079 169.92 106.999 169.656 108.039 169.656C108.967 169.656 109.791 169.864 110.511 170.28C111.247 170.696 111.823 171.28 112.239 172.032C112.655 172.768 112.863 173.624 112.863 174.6V183H109.719V175.344C109.719 174.768 109.615 174.272 109.407 173.856C109.199 173.44 108.911 173.12 108.543 172.896C108.175 172.656 107.727 172.536 107.199 172.536C106.703 172.536 106.263 172.656 105.879 172.896C105.495 173.12 105.199 173.44 104.991 173.856C104.783 174.272 104.679 174.768 104.679 175.344V183H101.535V175.344C101.535 174.768 101.431 174.272 101.223 173.856C101.015 173.44 100.719 173.12 100.335 172.896C99.9667 172.656 99.5267 172.536 99.0147 172.536C98.5187 172.536 98.0787 172.656 97.6947 172.896C97.3107 173.12 97.0147 173.44 96.8067 173.856C96.5987 174.272 96.4947 174.768 96.4947 175.344V183H93.3507ZM121.715 183.288C120.371 183.288 119.195 182.984 118.187 182.376C117.179 181.768 116.395 180.944 115.835 179.904C115.275 178.864 114.995 177.712 114.995 176.448C114.995 175.136 115.275 173.976 115.835 172.968C116.411 171.944 117.187 171.136 118.163 170.544C119.155 169.952 120.259 169.656 121.475 169.656C122.499 169.656 123.395 169.824 124.163 170.16C124.947 170.496 125.611 170.96 126.155 171.552C126.699 172.144 127.115 172.824 127.403 173.592C127.691 174.344 127.835 175.16 127.835 176.04C127.835 176.264 127.819 176.496 127.787 176.736C127.771 176.976 127.731 177.184 127.667 177.36H117.587V174.96H125.891L124.403 176.088C124.547 175.352 124.507 174.696 124.283 174.12C124.075 173.544 123.723 173.088 123.227 172.752C122.747 172.416 122.163 172.248 121.475 172.248C120.819 172.248 120.235 172.416 119.723 172.752C119.211 173.072 118.819 173.552 118.547 174.192C118.291 174.816 118.195 175.576 118.259 176.472C118.195 177.272 118.299 177.984 118.571 178.608C118.859 179.216 119.275 179.688 119.819 180.024C120.379 180.36 121.019 180.528 121.739 180.528C122.459 180.528 123.067 180.376 123.563 180.072C124.075 179.768 124.475 179.36 124.763 178.848L127.307 180.096C127.051 180.72 126.651 181.272 126.107 181.752C125.563 182.232 124.915 182.608 124.163 182.88C123.427 183.152 122.611 183.288 121.715 183.288ZM131.706 183V179.64H134.874V183H131.706ZM131.706 173.304V169.944H134.874V173.304H131.706Z" fill="white"/>
<path d="M148.274 180.5L144.512 167.09H146.366L149.516 178.898H149.084L152.36 167.09H154.214L157.472 178.898H157.022L160.19 167.09H162.044L158.282 180.5H156.32L153.044 168.746H153.512L150.236 180.5H148.274ZM163.54 180.5V166.874H165.214V172.688L164.908 172.526C165.148 171.914 165.532 171.44 166.06 171.104C166.6 170.756 167.23 170.582 167.95 170.582C168.646 170.582 169.264 170.738 169.804 171.05C170.356 171.362 170.788 171.794 171.1 172.346C171.424 172.898 171.586 173.522 171.586 174.218V180.5H169.894V174.758C169.894 174.218 169.792 173.762 169.588 173.39C169.396 173.018 169.126 172.73 168.778 172.526C168.43 172.31 168.028 172.202 167.572 172.202C167.128 172.202 166.726 172.31 166.366 172.526C166.006 172.73 165.724 173.024 165.52 173.408C165.316 173.78 165.214 174.23 165.214 174.758V180.5H163.54ZM176.826 180.716C176.19 180.716 175.626 180.602 175.134 180.374C174.654 180.134 174.276 179.81 174 179.402C173.724 178.982 173.586 178.502 173.586 177.962C173.586 177.446 173.694 176.984 173.91 176.576C174.138 176.156 174.486 175.802 174.954 175.514C175.434 175.226 176.034 175.022 176.754 174.902L180.354 174.308V175.712L177.132 176.252C176.508 176.36 176.052 176.558 175.764 176.846C175.488 177.134 175.35 177.488 175.35 177.908C175.35 178.304 175.506 178.634 175.818 178.898C176.142 179.162 176.544 179.294 177.024 179.294C177.636 179.294 178.164 179.168 178.608 178.916C179.064 178.652 179.418 178.298 179.67 177.854C179.934 177.41 180.066 176.918 180.066 176.378V173.912C180.066 173.384 179.868 172.958 179.472 172.634C179.088 172.298 178.578 172.13 177.942 172.13C177.39 172.13 176.898 172.274 176.466 172.562C176.046 172.838 175.734 173.21 175.53 173.678L174.072 172.922C174.252 172.478 174.54 172.082 174.936 171.734C175.332 171.374 175.794 171.092 176.322 170.888C176.85 170.684 177.402 170.582 177.978 170.582C178.722 170.582 179.376 170.726 179.94 171.014C180.504 171.29 180.942 171.68 181.254 172.184C181.578 172.676 181.74 173.252 181.74 173.912V180.5H180.102V178.664L180.408 178.772C180.204 179.156 179.928 179.492 179.58 179.78C179.232 180.068 178.824 180.296 178.356 180.464C177.888 180.632 177.378 180.716 176.826 180.716ZM188.101 180.608C187.153 180.608 186.421 180.338 185.905 179.798C185.401 179.258 185.149 178.496 185.149 177.512V172.4H183.385V170.798H183.745C184.177 170.798 184.519 170.666 184.771 170.402C185.023 170.138 185.149 169.79 185.149 169.358V168.566H186.823V170.798H189.001V172.4H186.823V177.458C186.823 177.782 186.871 178.064 186.967 178.304C187.075 178.544 187.249 178.736 187.489 178.88C187.729 179.012 188.047 179.078 188.443 179.078C188.527 179.078 188.629 179.072 188.749 179.06C188.881 179.048 189.001 179.036 189.109 179.024V180.5C188.953 180.536 188.779 180.56 188.587 180.572C188.395 180.596 188.233 180.608 188.101 180.608ZM196.102 180.716C195.25 180.716 194.47 180.56 193.762 180.248C193.054 179.924 192.454 179.486 191.962 178.934C191.47 178.382 191.116 177.764 190.9 177.08L192.43 176.45C192.754 177.314 193.234 177.98 193.87 178.448C194.518 178.904 195.274 179.132 196.138 179.132C196.666 179.132 197.128 179.048 197.524 178.88C197.92 178.712 198.226 178.478 198.442 178.178C198.67 177.866 198.784 177.506 198.784 177.098C198.784 176.534 198.622 176.09 198.298 175.766C197.986 175.43 197.524 175.178 196.912 175.01L194.446 174.254C193.474 173.954 192.73 173.48 192.214 172.832C191.698 172.184 191.44 171.44 191.44 170.6C191.44 169.868 191.614 169.226 191.962 168.674C192.322 168.11 192.814 167.672 193.438 167.36C194.074 167.036 194.794 166.874 195.598 166.874C196.402 166.874 197.128 167.018 197.776 167.306C198.436 167.594 198.994 167.984 199.45 168.476C199.906 168.956 200.242 169.508 200.458 170.132L198.946 170.762C198.658 170.006 198.226 169.436 197.65 169.052C197.074 168.656 196.396 168.458 195.616 168.458C195.136 168.458 194.71 168.542 194.338 168.71C193.978 168.866 193.696 169.1 193.492 169.412C193.3 169.712 193.204 170.072 193.204 170.492C193.204 170.984 193.36 171.422 193.672 171.806C193.984 172.19 194.458 172.484 195.094 172.688L197.344 173.354C198.4 173.678 199.198 174.14 199.738 174.74C200.278 175.34 200.548 176.084 200.548 176.972C200.548 177.704 200.356 178.352 199.972 178.916C199.6 179.48 199.078 179.924 198.406 180.248C197.746 180.56 196.978 180.716 196.102 180.716ZM207.541 180.716C206.605 180.716 205.759 180.5 205.003 180.068C204.247 179.624 203.647 179.018 203.203 178.25C202.759 177.482 202.537 176.612 202.537 175.64C202.537 174.668 202.753 173.804 203.185 173.048C203.629 172.292 204.229 171.692 204.985 171.248C205.741 170.804 206.593 170.582 207.541 170.582C208.477 170.582 209.323 170.804 210.079 171.248C210.835 171.68 211.429 172.274 211.861 173.03C212.305 173.786 212.527 174.656 212.527 175.64C212.527 176.624 212.299 177.5 211.843 178.268C211.387 179.024 210.781 179.624 210.025 180.068C209.281 180.5 208.453 180.716 207.541 180.716ZM207.541 179.096C208.141 179.096 208.681 178.946 209.161 178.646C209.653 178.346 210.037 177.932 210.313 177.404C210.601 176.876 210.745 176.288 210.745 175.64C210.745 174.98 210.601 174.398 210.313 173.894C210.037 173.378 209.653 172.97 209.161 172.67C208.681 172.358 208.141 172.202 207.541 172.202C206.929 172.202 206.377 172.358 205.885 172.67C205.405 172.97 205.021 173.378 204.733 173.894C204.445 174.398 204.301 174.98 204.301 175.64C204.301 176.288 204.445 176.876 204.733 177.404C205.021 177.932 205.405 178.346 205.885 178.646C206.377 178.946 206.929 179.096 207.541 179.096ZM214.71 180.5V166.874H216.384V180.5H214.71Z" fill="#0DC143"/>
<path d="M62.1889 236V218.12H65.3089L72.0049 227.216H70.5169L77.0689 218.12H80.1889V236H76.9009V221.84L78.1729 222.152L71.3809 231.2H70.9969L64.3729 222.152L65.4529 221.84V236H62.1889ZM92.0108 236.288C90.7308 236.288 89.5468 236.056 88.4588 235.592C87.3868 235.128 86.4428 234.48 85.6268 233.648C84.8268 232.816 84.2028 231.84 83.7548 230.72C83.3068 229.6 83.0828 228.376 83.0828 227.048C83.0828 225.72 83.2988 224.496 83.7308 223.376C84.1788 222.24 84.8028 221.264 85.6028 220.448C86.4188 219.616 87.3708 218.976 88.4588 218.528C89.5468 218.064 90.7308 217.832 92.0108 217.832C93.2908 217.832 94.4348 218.048 95.4428 218.48C96.4668 218.912 97.3308 219.488 98.0348 220.208C98.7388 220.912 99.2428 221.688 99.5468 222.536L96.6188 223.904C96.2828 223.008 95.7148 222.272 94.9148 221.696C94.1148 221.104 93.1468 220.808 92.0108 220.808C90.8908 220.808 89.8988 221.072 89.0348 221.6C88.1868 222.128 87.5228 222.856 87.0428 223.784C86.5788 224.712 86.3468 225.8 86.3468 227.048C86.3468 228.296 86.5788 229.392 87.0428 230.336C87.5228 231.264 88.1868 231.992 89.0348 232.52C89.8988 233.048 90.8908 233.312 92.0108 233.312C93.1468 233.312 94.1148 233.024 94.9148 232.448C95.7148 231.856 96.2828 231.112 96.6188 230.216L99.5468 231.584C99.2428 232.432 98.7388 233.216 98.0348 233.936C97.3308 234.64 96.4668 235.208 95.4428 235.64C94.4348 236.072 93.2908 236.288 92.0108 236.288ZM103.421 236V232.64H106.589V236H103.421ZM103.421 226.304V222.944H106.589V226.304H103.421Z" fill="white"/>
<path d="M142.494 222V208.59H148.128C148.932 208.59 149.622 208.734 150.198 209.022C150.786 209.31 151.236 209.718 151.548 210.246C151.872 210.762 152.034 211.38 152.034 212.1C152.034 212.76 151.86 213.36 151.512 213.9C151.176 214.428 150.678 214.842 150.018 215.142L150 214.476C150.576 214.692 151.05 214.98 151.422 215.34C151.806 215.688 152.094 216.096 152.286 216.564C152.478 217.02 152.574 217.506 152.574 218.022C152.574 219.258 152.178 220.23 151.386 220.938C150.594 221.646 149.514 222 148.146 222H142.494ZM144.258 220.38H148.218C148.998 220.38 149.622 220.17 150.09 219.75C150.558 219.33 150.792 218.76 150.792 218.04C150.792 217.32 150.558 216.75 150.09 216.33C149.622 215.898 148.998 215.682 148.218 215.682H144.258V220.38ZM144.258 214.098H148.092C148.74 214.098 149.262 213.912 149.658 213.54C150.054 213.156 150.252 212.67 150.252 212.082C150.252 211.47 150.054 211.002 149.658 210.678C149.262 210.354 148.74 210.192 148.092 210.192H144.258V214.098ZM157.247 222L153.485 208.59H155.339L158.489 220.398H158.057L161.333 208.59H163.187L166.445 220.398H165.995L169.163 208.59H171.017L167.255 222H165.293L162.017 210.246H162.485L159.209 222H157.247ZM172.711 222V208.59H174.475V214.566H181.189V208.59H182.971V222H181.189V216.186H174.475V222H172.711ZM184.651 222L189.457 208.59H191.545L196.351 222H194.461L193.363 218.85H187.639L186.541 222H184.651ZM188.197 217.23H192.805L190.249 209.868H190.753L188.197 217.23ZM202.473 222.216C201.621 222.216 200.841 222.06 200.133 221.748C199.425 221.424 198.825 220.986 198.333 220.434C197.841 219.882 197.487 219.264 197.271 218.58L198.801 217.95C199.125 218.814 199.605 219.48 200.241 219.948C200.889 220.404 201.645 220.632 202.509 220.632C203.037 220.632 203.499 220.548 203.895 220.38C204.291 220.212 204.597 219.978 204.813 219.678C205.041 219.366 205.155 219.006 205.155 218.598C205.155 218.034 204.993 217.59 204.669 217.266C204.357 216.93 203.895 216.678 203.283 216.51L200.817 215.754C199.845 215.454 199.101 214.98 198.585 214.332C198.069 213.684 197.811 212.94 197.811 212.1C197.811 211.368 197.985 210.726 198.333 210.174C198.693 209.61 199.185 209.172 199.809 208.86C200.445 208.536 201.165 208.374 201.969 208.374C202.773 208.374 203.499 208.518 204.147 208.806C204.807 209.094 205.365 209.484 205.821 209.976C206.277 210.456 206.613 211.008 206.829 211.632L205.317 212.262C205.029 211.506 204.597 210.936 204.021 210.552C203.445 210.156 202.767 209.958 201.987 209.958C201.507 209.958 201.081 210.042 200.709 210.21C200.349 210.366 200.067 210.6 199.863 210.912C199.671 211.212 199.575 211.572 199.575 211.992C199.575 212.484 199.731 212.922 200.043 213.306C200.355 213.69 200.829 213.984 201.465 214.188L203.715 214.854C204.771 215.178 205.569 215.64 206.109 216.24C206.649 216.84 206.919 217.584 206.919 218.472C206.919 219.204 206.727 219.852 206.343 220.416C205.971 220.98 205.449 221.424 204.777 221.748C204.117 222.06 203.349 222.216 202.473 222.216ZM211.842 222V210.21H208.206V208.59H217.206V210.21H213.624V222H211.842ZM221.852 222.216C220.94 222.216 220.118 221.994 219.386 221.55C218.666 221.106 218.096 220.5 217.676 219.732C217.256 218.964 217.046 218.106 217.046 217.158C217.046 216.186 217.256 215.322 217.676 214.566C218.096 213.798 218.666 213.192 219.386 212.748C220.118 212.304 220.94 212.082 221.852 212.082C222.656 212.082 223.37 212.256 223.994 212.604C224.618 212.94 225.11 213.396 225.47 213.972L225.2 214.386V208.374H226.892V222H225.254V219.93L225.47 220.218C225.134 220.854 224.642 221.346 223.994 221.694C223.358 222.042 222.644 222.216 221.852 222.216ZM221.996 220.596C222.608 220.596 223.154 220.446 223.634 220.146C224.114 219.846 224.492 219.438 224.768 218.922C225.056 218.394 225.2 217.806 225.2 217.158C225.2 216.498 225.056 215.91 224.768 215.394C224.492 214.866 224.114 214.452 223.634 214.152C223.154 213.852 222.608 213.702 221.996 213.702C221.396 213.702 220.85 213.858 220.358 214.17C219.878 214.47 219.5 214.878 219.224 215.394C218.948 215.898 218.81 216.486 218.81 217.158C218.81 217.806 218.948 218.394 219.224 218.922C219.5 219.438 219.878 219.846 220.358 220.146C220.838 220.446 221.384 220.596 221.996 220.596ZM228.386 222L231.788 217.14L228.404 212.298H230.42L233.318 216.51H232.292L235.154 212.298H237.188L233.804 217.14L237.17 222H235.154L232.292 217.788H233.3L230.438 222H228.386ZM240.585 222V210.12H238.047V208.59H242.367V222H240.585ZM245.226 222V220.776L248.934 216.762C249.666 215.982 250.248 215.34 250.68 214.836C251.124 214.332 251.448 213.882 251.652 213.486C251.856 213.09 251.958 212.67 251.958 212.226C251.958 211.494 251.742 210.93 251.31 210.534C250.878 210.138 250.308 209.94 249.6 209.94C248.88 209.94 248.268 210.15 247.764 210.57C247.26 210.978 246.912 211.56 246.72 212.316L245.118 211.902C245.274 211.182 245.562 210.558 245.982 210.03C246.402 209.502 246.924 209.094 247.548 208.806C248.172 208.518 248.856 208.374 249.6 208.374C250.416 208.374 251.13 208.536 251.742 208.86C252.366 209.172 252.852 209.61 253.2 210.174C253.56 210.738 253.74 211.392 253.74 212.136C253.74 212.628 253.638 213.108 253.434 213.576C253.23 214.044 252.93 214.542 252.534 215.07C252.138 215.586 251.622 216.186 250.986 216.87L247.674 220.47H254.028V222H245.226ZM262.216 222V218.904H255.628V217.446L262.18 208.59H263.872V217.446H265.618V218.904H263.872V222H262.216ZM256.96 218.076L256.708 217.446H262.216V210.066L262.738 210.21L256.96 218.076ZM267.718 222L273.604 210.12H267.034V208.59H275.458V210.12L269.626 222H267.718ZM283.861 222.216C282.913 222.216 282.037 222.048 281.233 221.712C280.441 221.364 279.745 220.878 279.145 220.254C278.557 219.63 278.101 218.898 277.777 218.058C277.453 217.218 277.291 216.3 277.291 215.304C277.291 214.296 277.453 213.372 277.777 212.532C278.101 211.692 278.557 210.96 279.145 210.336C279.733 209.712 280.429 209.232 281.233 208.896C282.037 208.548 282.913 208.374 283.861 208.374C284.785 208.374 285.613 208.536 286.345 208.86C287.089 209.184 287.713 209.604 288.217 210.12C288.733 210.636 289.099 211.188 289.315 211.776L287.695 212.514C287.383 211.77 286.897 211.17 286.237 210.714C285.577 210.246 284.785 210.012 283.861 210.012C282.925 210.012 282.091 210.234 281.359 210.678C280.639 211.122 280.075 211.74 279.667 212.532C279.259 213.324 279.055 214.248 279.055 215.304C279.055 216.348 279.259 217.266 279.667 218.058C280.075 218.85 280.639 219.468 281.359 219.912C282.091 220.356 282.925 220.578 283.861 220.578C284.785 220.578 285.577 220.35 286.237 219.894C286.897 219.426 287.383 218.82 287.695 218.076L289.315 218.814C289.099 219.402 288.733 219.954 288.217 220.47C287.713 220.986 287.089 221.406 286.345 221.73C285.613 222.054 284.785 222.216 283.861 222.216ZM293.425 222V210.12H290.887V208.59H295.207V222H293.425ZM298.588 222V208.59H304.222C305.026 208.59 305.716 208.734 306.292 209.022C306.88 209.31 307.33 209.718 307.642 210.246C307.966 210.762 308.128 211.38 308.128 212.1C308.128 212.76 307.954 213.36 307.606 213.9C307.27 214.428 306.772 214.842 306.112 215.142L306.094 214.476C306.67 214.692 307.144 214.98 307.516 215.34C307.9 215.688 308.188 216.096 308.38 216.564C308.572 217.02 308.668 217.506 308.668 218.022C308.668 219.258 308.272 220.23 307.48 220.938C306.688 221.646 305.608 222 304.24 222H298.588ZM300.352 220.38H304.312C305.092 220.38 305.716 220.17 306.184 219.75C306.652 219.33 306.886 218.76 306.886 218.04C306.886 217.32 306.652 216.75 306.184 216.33C305.716 215.898 305.092 215.682 304.312 215.682H300.352V220.38ZM300.352 214.098H304.186C304.834 214.098 305.356 213.912 305.752 213.54C306.148 213.156 306.346 212.67 306.346 212.082C306.346 211.47 306.148 211.002 305.752 210.678C305.356 210.354 304.834 210.192 304.186 210.192H300.352V214.098ZM314.849 222.216C314.141 222.216 313.481 222.09 312.869 221.838C312.257 221.586 311.729 221.232 311.285 220.776C310.841 220.308 310.511 219.756 310.295 219.12L311.789 218.508C312.041 219.18 312.437 219.702 312.977 220.074C313.517 220.446 314.141 220.632 314.849 220.632C315.401 220.632 315.893 220.524 316.325 220.308C316.757 220.092 317.093 219.78 317.333 219.372C317.585 218.964 317.711 218.472 317.711 217.896C317.711 217.308 317.585 216.816 317.333 216.42C317.093 216.012 316.757 215.7 316.325 215.484C315.893 215.268 315.395 215.16 314.831 215.16C314.651 215.16 314.453 215.172 314.237 215.196C314.033 215.22 313.859 215.256 313.715 215.304L313.337 214.494L316.919 210.12H310.979V208.59H318.917V210.066L315.497 214.278L315.389 213.81C316.193 213.834 316.901 214.02 317.513 214.368C318.125 214.716 318.605 215.19 318.953 215.79C319.301 216.378 319.475 217.068 319.475 217.86C319.475 218.676 319.277 219.414 318.881 220.074C318.485 220.734 317.939 221.256 317.243 221.64C316.547 222.024 315.749 222.216 314.849 222.216ZM325.961 222.216C325.097 222.216 324.329 222.024 323.657 221.64C322.997 221.256 322.475 220.734 322.091 220.074C321.707 219.402 321.515 218.64 321.515 217.788C321.515 217.32 321.569 216.858 321.677 216.402C321.785 215.946 321.959 215.484 322.199 215.016C322.439 214.548 322.745 214.062 323.117 213.558L326.897 208.59H329.021L324.395 214.602L324.071 214.566C324.251 214.326 324.449 214.14 324.665 214.008C324.893 213.876 325.133 213.78 325.385 213.72C325.649 213.66 325.925 213.63 326.213 213.63C327.005 213.63 327.713 213.816 328.337 214.188C328.973 214.548 329.471 215.046 329.831 215.682C330.203 216.318 330.389 217.05 330.389 217.878C330.389 218.706 330.197 219.45 329.813 220.11C329.429 220.758 328.901 221.274 328.229 221.658C327.569 222.03 326.813 222.216 325.961 222.216ZM325.961 220.632C326.465 220.632 326.915 220.518 327.311 220.29C327.707 220.05 328.019 219.72 328.247 219.3C328.487 218.88 328.607 218.412 328.607 217.896C328.607 217.356 328.493 216.888 328.265 216.492C328.037 216.084 327.725 215.76 327.329 215.52C326.933 215.28 326.477 215.16 325.961 215.16C325.457 215.16 325.001 215.28 324.593 215.52C324.185 215.76 323.867 216.084 323.639 216.492C323.411 216.888 323.297 217.356 323.297 217.896C323.297 218.412 323.411 218.88 323.639 219.3C323.879 219.72 324.197 220.05 324.593 220.29C325.001 220.518 325.457 220.632 325.961 220.632ZM336.718 222.216C336.022 222.216 335.368 222.096 334.756 221.856C334.144 221.604 333.61 221.25 333.154 220.794C332.71 220.326 332.386 219.78 332.182 219.156L333.622 218.544C333.874 219.204 334.282 219.72 334.846 220.092C335.422 220.452 336.046 220.632 336.718 220.632C337.27 220.632 337.756 220.512 338.176 220.272C338.608 220.02 338.944 219.678 339.184 219.246C339.424 218.802 339.544 218.31 339.544 217.77C339.544 217.206 339.418 216.708 339.166 216.276C338.926 215.844 338.596 215.508 338.176 215.268C337.756 215.016 337.276 214.89 336.736 214.89C336.184 214.89 335.68 215.016 335.224 215.268C334.768 215.52 334.438 215.838 334.234 216.222L332.812 215.916L333.838 208.59H340.786V210.12H334.504L335.188 209.436L334.396 215.124L333.784 214.764C334.18 214.26 334.642 213.9 335.17 213.684C335.71 213.456 336.292 213.342 336.916 213.342C337.792 213.342 338.56 213.54 339.22 213.936C339.88 214.332 340.396 214.86 340.768 215.52C341.14 216.18 341.326 216.93 341.326 217.77C341.326 218.61 341.122 219.366 340.714 220.038C340.318 220.71 339.772 221.244 339.076 221.64C338.392 222.024 337.606 222.216 336.718 222.216ZM342.608 222L347.414 208.59H349.502L354.308 222H352.418L351.32 218.85H345.596L344.498 222H342.608ZM346.154 217.23H350.762L348.206 209.868H348.71L346.154 217.23ZM146.67 245.216C145.77 245.216 144.972 245.036 144.276 244.676C143.592 244.316 143.052 243.83 142.656 243.218C142.272 242.594 142.08 241.898 142.08 241.13C142.08 240.266 142.32 239.51 142.8 238.862C143.28 238.214 143.94 237.752 144.78 237.476L144.744 237.926C144.108 237.674 143.61 237.272 143.25 236.72C142.902 236.156 142.728 235.55 142.728 234.902C142.728 234.218 142.896 233.612 143.232 233.084C143.58 232.556 144.048 232.142 144.636 231.842C145.236 231.53 145.914 231.374 146.67 231.374C147.426 231.374 148.098 231.524 148.686 231.824C149.274 232.124 149.736 232.544 150.072 233.084C150.42 233.612 150.594 234.218 150.594 234.902C150.594 235.586 150.408 236.198 150.036 236.738C149.676 237.278 149.196 237.68 148.596 237.944L148.542 237.476C149.394 237.752 150.06 238.22 150.54 238.88C151.02 239.528 151.26 240.278 151.26 241.13C151.26 241.898 151.062 242.594 150.666 243.218C150.282 243.83 149.742 244.316 149.046 244.676C148.362 245.036 147.57 245.216 146.67 245.216ZM146.67 243.686C147.234 243.686 147.726 243.578 148.146 243.362C148.566 243.146 148.89 242.846 149.118 242.462C149.358 242.066 149.478 241.616 149.478 241.112C149.478 240.596 149.358 240.146 149.118 239.762C148.89 239.366 148.566 239.066 148.146 238.862C147.726 238.646 147.234 238.538 146.67 238.538C146.106 238.538 145.608 238.646 145.176 238.862C144.756 239.066 144.432 239.366 144.204 239.762C143.976 240.146 143.862 240.596 143.862 241.112C143.862 241.616 143.976 242.066 144.204 242.462C144.432 242.846 144.756 243.146 145.176 243.362C145.608 243.578 146.106 243.686 146.67 243.686ZM146.67 237.008C147.078 237.008 147.438 236.918 147.75 236.738C148.074 236.558 148.332 236.318 148.524 236.018C148.716 235.706 148.812 235.346 148.812 234.938C148.812 234.53 148.716 234.176 148.524 233.876C148.332 233.576 148.074 233.342 147.75 233.174C147.438 232.994 147.078 232.904 146.67 232.904C146.25 232.904 145.878 232.994 145.554 233.174C145.23 233.342 144.972 233.576 144.78 233.876C144.588 234.176 144.492 234.53 144.492 234.938C144.492 235.346 144.588 235.706 144.78 236.018C144.972 236.318 145.23 236.558 145.554 236.738C145.878 236.918 146.25 237.008 146.67 237.008ZM154.3 245V242.84H156.046V245H154.3ZM160.013 245V242.84H161.759V245H160.013ZM165.726 245V242.84H167.472V245H165.726ZM171.439 245V242.84H173.185V245H171.439ZM181.274 245.216C180.422 245.216 179.642 245.06 178.934 244.748C178.226 244.424 177.626 243.986 177.134 243.434C176.642 242.882 176.288 242.264 176.072 241.58L177.602 240.95C177.926 241.814 178.406 242.48 179.042 242.948C179.69 243.404 180.446 243.632 181.31 243.632C181.838 243.632 182.3 243.548 182.696 243.38C183.092 243.212 183.398 242.978 183.614 242.678C183.842 242.366 183.956 242.006 183.956 241.598C183.956 241.034 183.794 240.59 183.47 240.266C183.158 239.93 182.696 239.678 182.084 239.51L179.618 238.754C178.646 238.454 177.902 237.98 177.386 237.332C176.87 236.684 176.612 235.94 176.612 235.1C176.612 234.368 176.786 233.726 177.134 233.174C177.494 232.61 177.986 232.172 178.61 231.86C179.246 231.536 179.966 231.374 180.77 231.374C181.574 231.374 182.3 231.518 182.948 231.806C183.608 232.094 184.166 232.484 184.622 232.976C185.078 233.456 185.414 234.008 185.63 234.632L184.118 235.262C183.83 234.506 183.398 233.936 182.822 233.552C182.246 233.156 181.568 232.958 180.788 232.958C180.308 232.958 179.882 233.042 179.51 233.21C179.15 233.366 178.868 233.6 178.664 233.912C178.472 234.212 178.376 234.572 178.376 234.992C178.376 235.484 178.532 235.922 178.844 236.306C179.156 236.69 179.63 236.984 180.266 237.188L182.516 237.854C183.572 238.178 184.37 238.64 184.91 239.24C185.45 239.84 185.72 240.584 185.72 241.472C185.72 242.204 185.528 242.852 185.144 243.416C184.772 243.98 184.25 244.424 183.578 244.748C182.918 245.06 182.15 245.216 181.274 245.216ZM180.464 246.8V229.79H181.814V246.8H180.464ZM188.303 245V231.59H193.037C193.925 231.59 194.705 231.758 195.377 232.094C196.049 232.43 196.571 232.91 196.943 233.534C197.327 234.158 197.519 234.89 197.519 235.73C197.519 236.57 197.327 237.302 196.943 237.926C196.571 238.538 196.049 239.018 195.377 239.366C194.717 239.702 193.937 239.87 193.037 239.87H190.067V245H188.303ZM190.067 238.25H193.091C193.631 238.25 194.099 238.148 194.495 237.944C194.891 237.74 195.197 237.446 195.413 237.062C195.629 236.678 195.737 236.234 195.737 235.73C195.737 235.214 195.629 234.77 195.413 234.398C195.197 234.014 194.891 233.72 194.495 233.516C194.099 233.312 193.631 233.21 193.091 233.21H190.067V238.25ZM198.257 245L202.631 238.196L198.365 231.59H200.381L203.999 237.224H203.243L206.861 231.59H208.877L204.611 238.196L208.985 245H206.969L203.243 239.168H203.999L200.255 245H198.257ZM209.384 245L214.19 231.59H216.278L221.084 245H219.194L218.096 241.85H212.372L211.274 245H209.384ZM212.93 240.23H217.538L214.982 232.868H215.486L212.93 240.23ZM222.773 245V231.59H224.537V245H222.773Z" fill="#0DC143"/>
<defs>
<linearGradient id="paint0_linear_54_5491" x1="210" y1="0" x2="210" y2="407.566" gradientUnits="userSpaceOnUse">
<stop stop-color="#0DC143"/>
<stop offset="1" stop-color="#0DC143" stop-opacity="0"/>
</linearGradient>
</defs>
</svg>
