<svg width="190" height="264" viewBox="0 0 190 264" fill="none" xmlns="http://www.w3.org/2000/svg">
<path d="M189.79 116.939C189.791 116.925 189.793 116.911 189.794 116.898C189.978 114.341 189.031 111.8 186.955 109.317L95.7784 0.274253L95.6784 0.154158L95.5918 0.0802171C95.4423 -0.0109712 95.2045 -0.00793398 95.0863 0.0101369C95.042 0.0168092 95.0091 0.0304461 94.9736 0.0421226L94.9293 0.0154396L94.8875 0.0774173C94.8507 0.0985463 94.8159 0.120772 94.7892 0.151909L94.7776 0.165272L3.16127 108.94C3.0299 109.096 2.90396 109.253 2.7814 109.409C2.7503 109.449 2.71977 109.489 2.6892 109.529C2.52207 109.747 2.36531 109.965 2.21555 110.184C2.19456 110.215 2.16991 110.245 2.14944 110.275C2.13545 110.296 2.12459 110.317 2.11085 110.338C1.93751 110.597 1.77633 110.858 1.62708 111.119C1.60506 111.157 1.58438 111.196 1.56287 111.235C1.25168 111.793 0.994826 112.355 0.794276 112.918C0.786762 112.939 0.778226 112.96 0.770712 112.982C0.674842 113.257 0.593759 113.533 0.524318 113.809C0.515249 113.845 0.506458 113.881 0.497908 113.916C0.432353 114.191 0.378411 114.465 0.339286 114.74C0.335399 114.767 0.332792 114.794 0.329164 114.822C0.291594 115.103 0.265257 115.385 0.255151 115.667C0.254892 115.67 0.25462 115.674 0.254361 115.677C0.244774 115.952 0.251695 116.228 0.268278 116.503C0.270869 116.547 0.272817 116.591 0.276185 116.634C0.292509 116.85 0.314014 117.066 0.346402 117.282C0.352621 117.322 0.36323 117.363 0.369966 117.404C0.37463 117.433 0.375323 117.461 0.380246 117.49L15.0386 201.635C15.2441 203.148 15.9222 204.64 17.0623 206.105C17.076 206.123 17.0905 206.141 17.1045 206.159C17.2403 206.332 17.3812 206.504 17.5299 206.676C17.5719 206.725 17.6159 206.773 17.6586 206.822C17.789 206.968 17.9207 207.115 18.0603 207.261C18.1422 207.347 18.2297 207.433 18.3149 207.519C18.4269 207.631 18.5365 207.744 18.6539 207.856C18.8497 208.043 19.054 208.229 19.2654 208.415C19.2812 208.429 19.2955 208.443 19.3113 208.457C19.5548 208.67 19.8098 208.882 20.0735 209.093C20.1044 209.118 20.1375 209.142 20.1686 209.167C20.3956 209.347 20.6288 209.526 20.8703 209.704C20.8902 209.719 20.9082 209.734 20.9282 209.749L94.5972 263.926L94.6018 263.929L94.6261 263.946L94.7439 264L94.9057 263.964L94.9122 263.962L94.9812 263.911L95.0783 263.848L95.0778 263.84L95.4294 263.582L168.77 210.073C172.207 207.566 174.182 204.93 174.674 202.218C174.677 202.202 174.683 202.186 174.686 202.17L189.68 117.828C189.685 117.8 189.685 117.772 189.69 117.744C189.736 117.476 189.769 117.207 189.79 116.939ZM2.64128 111.192C2.77083 110.981 2.90421 110.771 3.05009 110.561C3.11694 110.465 3.18825 110.37 3.25821 110.274C3.42352 110.049 3.59577 109.824 3.78026 109.6C3.8383 109.529 3.8961 109.458 3.95596 109.387C4.13137 109.181 4.31223 108.976 4.50267 108.771C4.52211 108.75 4.5415 108.729 4.56119 108.708C5.14107 108.092 5.79664 107.485 6.51178 106.887L2.05392 112.26C2.17777 112.001 2.31133 111.742 2.46083 111.483C2.51706 111.386 2.58168 111.289 2.64128 111.192ZM173.381 203.484C173.291 203.703 173.188 203.922 173.076 204.139C173.055 204.18 173.036 204.22 173.014 204.261C172.892 204.49 172.758 204.719 172.614 204.947C172.562 205.028 172.503 205.109 172.448 205.19C172.362 205.316 172.274 205.443 172.182 205.569C172.078 205.71 171.97 205.85 171.857 205.991C171.825 206.031 171.791 206.071 171.758 206.111C170.865 207.194 169.705 208.263 168.275 209.314C166.399 210.693 164.099 212.004 161.423 213.235L161.532 212.521L173.42 203.389C173.417 203.398 173.415 203.406 173.411 203.414C173.402 203.438 173.391 203.461 173.381 203.484ZM20.705 208.437C20.6651 208.405 20.625 208.373 20.5856 208.341C20.3662 208.164 20.1544 207.986 19.9502 207.809C19.9274 207.789 19.9036 207.769 19.8811 207.749C19.4214 207.345 18.9993 206.939 18.6169 206.532C18.6096 206.524 18.6032 206.516 18.5957 206.508C18.4278 206.328 18.2689 206.148 18.116 205.967C18.0305 205.866 17.9508 205.764 17.8699 205.663C17.8023 205.578 17.7341 205.493 17.6695 205.408C17.5721 205.279 17.4797 205.15 17.3898 205.02C17.3522 204.966 17.3143 204.912 17.2783 204.858C17.1788 204.709 17.0838 204.56 16.9941 204.411C16.9765 204.381 16.9596 204.352 16.9422 204.323C16.4136 203.42 16.0664 202.507 15.906 201.587C15.7853 200.893 15.7747 200.196 15.8708 199.5C15.8793 199.438 15.8934 199.376 15.9035 199.314C15.9033 199.315 15.9038 199.313 15.9035 199.314L22.0444 204.332L22.9561 210.043C22.8558 209.978 22.7494 209.914 22.6512 209.849C22.6152 209.825 22.577 209.801 22.5413 209.777C22.1793 209.534 21.8335 209.291 21.5026 209.047C21.4443 209.004 21.3869 208.961 21.3294 208.918C21.1154 208.758 20.9069 208.598 20.705 208.437ZM1.19692 115.158C1.20314 115.104 1.21465 115.051 1.22191 114.997L2.07827 119.954C2.04977 119.895 2.02113 119.836 1.99367 119.776C1.94599 119.674 1.89708 119.571 1.85355 119.467C1.82479 119.399 1.80041 119.33 1.77321 119.262L1.15833 115.704C1.16144 115.642 1.16019 115.581 1.16434 115.52C1.17289 115.399 1.18319 115.279 1.19692 115.158ZM100.482 6.80087L175.019 100.972C174.895 100.913 174.766 100.856 174.641 100.797C174.2 100.591 173.752 100.388 173.295 100.187C173.158 100.127 173.024 100.066 172.886 100.006C172.319 99.7604 171.742 99.5177 171.153 99.2789C171.022 99.2258 170.887 99.1735 170.755 99.1204C170.269 98.9266 169.777 98.7348 169.277 98.5452C169.104 98.4799 168.932 98.4143 168.758 98.3492C168.14 98.1193 167.515 97.8919 166.876 97.6686C166.79 97.6386 166.701 97.6094 166.615 97.5796C166.047 97.3828 165.469 97.1891 164.885 96.9975C164.687 96.9327 164.489 96.8682 164.289 96.804C163.705 96.6163 163.114 96.4306 162.515 96.2479C162.417 96.2182 162.322 96.1876 162.224 96.1582C161.544 95.9527 160.851 95.7517 160.153 95.5535C159.942 95.4937 159.729 95.4345 159.517 95.3753C158.956 95.2191 158.39 95.065 157.818 94.9129C157.639 94.8654 157.461 94.8171 157.281 94.7698C156.564 94.5824 155.839 94.3987 155.106 94.2182C154.899 94.1674 154.69 94.1175 154.482 94.0672C153.903 93.9274 153.32 93.7898 152.732 93.6541C152.507 93.6021 152.284 93.5501 152.057 93.4989C151.653 93.4075 151.245 93.3175 150.836 93.2282L96.4323 1.93539L100.482 6.80087ZM1.15343 116.475L1.49803 118.468C1.49285 118.451 1.48746 118.434 1.48253 118.417C1.44989 118.305 1.41626 118.193 1.38828 118.08C1.35952 117.965 1.33668 117.85 1.31284 117.734C1.289 117.618 1.26407 117.502 1.24515 117.386C1.22805 117.279 1.21978 117.173 1.20657 117.067C1.18247 116.87 1.16327 116.672 1.15343 116.475ZM1.35507 114.231C1.40067 114.033 1.45943 113.835 1.51954 113.637L8.1388 105.623C10.3793 104.003 13.116 102.459 16.3054 101.008L18.3515 115.563L10.1816 127.89C10.1331 127.86 10.085 127.83 10.037 127.8C9.86137 127.689 9.68407 127.578 9.51357 127.466C9.35396 127.362 9.20082 127.257 9.04562 127.152C8.88238 127.042 8.71784 126.932 8.55979 126.821C8.4051 126.713 8.25662 126.605 8.10685 126.496C7.95812 126.389 7.80816 126.281 7.66436 126.174C7.51381 126.061 7.36997 125.948 7.22486 125.835C7.09091 125.73 6.95494 125.626 6.82538 125.521C6.68106 125.405 6.54375 125.288 6.40487 125.171C6.28361 125.069 6.16015 124.967 6.04303 124.865C5.9057 124.745 5.77496 124.624 5.64307 124.503C5.53451 124.404 5.42349 124.304 5.31856 124.204C5.18848 124.081 5.06549 123.956 4.94137 123.832C4.84395 123.735 4.74471 123.638 4.65117 123.54C4.52991 123.413 4.41529 123.286 4.30024 123.16C4.21318 123.063 4.12416 122.968 4.04072 122.871C3.92957 122.743 3.82516 122.614 3.72048 122.486C3.64223 122.39 3.56183 122.294 3.48721 122.198C3.38693 122.069 3.29349 121.939 3.1997 121.81C3.12974 121.714 3.05822 121.618 2.99189 121.521C2.90302 121.392 2.82078 121.262 2.73838 121.133C2.67645 121.035 2.6127 120.938 2.55414 120.841C2.47744 120.712 2.40732 120.584 2.33685 120.455C2.32 120.425 2.30383 120.394 2.2875 120.364L1.28738 114.577C1.30914 114.461 1.32838 114.346 1.35507 114.231ZM94.4751 1.87923L61.5289 89.4528C60.5554 89.5612 59.585 89.6749 58.618 89.7934C58.483 89.81 58.3477 89.8259 58.213 89.8428C56.7703 90.0221 55.3357 90.2132 53.9098 90.4158L65.0129 66.1828L94.4751 1.87923ZM35.2941 215.745C35.1348 215.691 34.9734 215.637 34.8156 215.582C34.55 215.489 34.2895 215.395 34.0283 215.301C33.8718 215.245 33.7128 215.19 33.5578 215.133C33.3023 215.039 33.0526 214.944 32.8016 214.849C32.6453 214.79 32.4867 214.731 32.332 214.672C32.0908 214.579 31.8547 214.484 31.6178 214.39C31.4587 214.327 31.2973 214.264 31.1401 214.2C30.9102 214.107 30.6857 214.012 30.4597 213.917C30.3019 213.851 30.1418 213.785 29.9861 213.718C29.7632 213.623 29.5461 213.526 29.3277 213.429C29.1748 213.362 29.0196 213.295 28.8688 213.227C28.6545 213.13 28.4459 213.031 28.236 212.933C28.0865 212.864 27.9347 212.794 27.7875 212.724C27.5849 212.627 27.3879 212.529 27.1897 212.431C27.041 212.358 26.89 212.285 26.7436 212.211C26.5498 212.113 26.3616 212.013 26.1722 211.914C26.0284 211.839 25.8821 211.764 25.7406 211.688C25.5553 211.589 25.3757 211.488 25.1948 211.388C25.0549 211.31 24.9129 211.233 24.7756 211.155C24.6004 211.055 24.4312 210.954 24.2602 210.853C24.14 210.782 24.0179 210.711 23.8998 210.64L23.0202 205.13L36.4951 216.147C36.3666 216.105 36.2357 216.064 36.108 216.021C35.8336 215.93 35.5641 215.838 35.2941 215.745ZM49.5435 91.8798C50.1138 91.7869 50.6852 91.6944 51.2635 91.6052C51.9696 91.4959 52.6826 91.3897 53.4006 91.2855L54.5985 107.874L42.8205 139.182C42.7252 139.162 42.6283 139.144 42.5332 139.125C42.2956 139.077 42.061 139.027 41.8247 138.979C41.437 138.899 41.0491 138.82 40.6651 138.738C40.4275 138.688 40.1926 138.636 39.9563 138.585C39.5793 138.503 39.2019 138.422 38.8286 138.339C38.5884 138.285 38.3511 138.23 38.1122 138.175C37.7481 138.092 37.3836 138.01 37.0232 137.925C36.7819 137.868 36.5443 137.811 36.3048 137.753C35.9501 137.668 35.5951 137.584 35.2443 137.497C35.007 137.439 34.7731 137.379 34.5375 137.319C34.1909 137.232 33.8434 137.145 33.5006 137.056C33.2632 136.995 33.0295 136.932 32.794 136.87C32.4579 136.781 32.1213 136.693 31.7891 136.602C31.5541 136.538 31.3226 136.473 31.0896 136.408C30.7629 136.317 30.4353 136.227 30.1127 136.135C29.877 136.067 29.645 135.999 29.4115 135.931C29.0975 135.839 28.7828 135.748 28.4726 135.655C28.2373 135.584 28.0061 135.512 27.7734 135.441C27.4695 135.348 27.1653 135.255 26.8655 135.161C26.6352 135.088 26.4087 135.014 26.1807 134.941C25.8846 134.845 25.5879 134.75 25.2959 134.654C25.0687 134.578 24.8456 134.502 24.6209 134.426C24.3346 134.329 24.0472 134.232 23.765 134.134C23.5409 134.056 23.321 133.977 23.0997 133.898C22.8232 133.799 22.546 133.701 22.2737 133.602C22.0532 133.521 21.8371 133.439 21.6194 133.358C21.4901 133.309 21.3617 133.26 21.2334 133.212L18.8531 116.278L32.6328 95.402C37.6152 94.097 43.0907 92.9433 48.9955 91.9677C49.1769 91.9377 49.3614 91.9093 49.5435 91.8798ZM85.7589 176.757C85.6317 176.761 85.5044 176.765 85.3772 176.769C84.0524 176.814 82.7284 176.869 81.4059 176.934C81.3077 176.939 81.2097 176.943 81.1118 176.948C78.3023 177.09 75.5022 177.278 72.7227 177.514C72.6139 177.524 72.5054 177.533 72.3966 177.543C71.1052 177.654 69.8185 177.776 68.5372 177.909C68.3967 177.923 68.2567 177.938 68.1165 177.952C66.8391 178.086 65.5679 178.231 64.3034 178.386C64.1923 178.4 64.0806 178.413 63.9697 178.427C62.6397 178.592 61.3175 178.769 60.0048 178.957L57.3481 142.165C57.5442 142.191 57.7423 142.216 57.9392 142.241C58.7202 142.341 59.5042 142.439 60.2934 142.534C60.4059 142.547 60.5173 142.561 60.63 142.575C61.5133 142.679 62.4029 142.778 63.2955 142.875C63.5549 142.903 63.8147 142.93 64.0746 142.957C64.8125 143.035 65.5536 143.11 66.2978 143.182C66.4921 143.201 66.6851 143.221 66.88 143.239C67.7811 143.325 68.6871 143.406 69.5963 143.484C69.8417 143.505 70.088 143.524 70.3339 143.545C71.0711 143.606 71.8109 143.664 72.5527 143.72C72.7882 143.738 73.0229 143.756 73.2587 143.773C74.1821 143.84 75.1088 143.903 76.0387 143.962C76.2437 143.975 76.4499 143.987 76.6554 144C77.4267 144.047 78.2002 144.091 78.9757 144.133C79.2307 144.147 79.4853 144.16 79.7408 144.174C80.6868 144.222 81.6352 144.267 82.5867 144.307C82.716 144.313 82.846 144.317 82.9756 144.322C83.82 144.356 84.6665 144.387 85.5146 144.415C85.7766 144.423 86.0385 144.432 86.3004 144.439C86.8891 144.457 87.4785 144.473 88.0685 144.487L88.4456 176.682C87.5501 176.702 86.6544 176.728 85.7589 176.757ZM60.038 179.631L64.7848 191.144L60.0157 179.634C60.023 179.633 60.0305 179.632 60.038 179.631ZM78.205 223.332L60.4987 180.388L60.1786 179.612C61.419 179.435 62.6663 179.267 63.922 179.111C64.0362 179.097 64.1507 179.083 64.265 179.069C65.5258 178.915 66.7935 178.771 68.067 178.637C68.2186 178.621 68.3706 178.605 68.5225 178.589C69.788 178.459 71.0592 178.338 72.3348 178.228C72.4659 178.217 72.597 178.205 72.7281 178.194C74.0861 178.079 75.4484 177.974 76.8149 177.882C76.8748 177.878 76.9347 177.874 76.9946 177.87C78.3399 177.779 79.6888 177.701 81.0395 177.632C81.1999 177.624 81.3602 177.617 81.5206 177.609C82.776 177.548 84.0333 177.496 85.291 177.453C85.482 177.446 85.6735 177.44 85.8644 177.434C86.7275 177.406 87.5905 177.389 88.4536 177.37L88.9972 223.819C85.3596 223.73 81.7535 223.568 78.205 223.332ZM99.8496 176.678C99.7571 176.676 99.6642 176.675 99.5717 176.673C98.8255 176.658 98.0779 176.647 97.3297 176.638C97.1431 176.636 96.9568 176.634 96.77 176.632C94.5274 176.61 92.277 176.617 90.024 176.653C89.9289 176.655 89.834 176.657 89.7389 176.659C89.3614 176.665 88.9838 176.671 88.6066 176.679L88.2295 144.491C88.5267 144.498 88.8237 144.506 89.1212 144.513C89.1533 144.513 89.1853 144.514 89.2175 144.515C90.1912 144.535 91.1673 144.549 92.1441 144.561C92.3973 144.564 92.6504 144.566 92.9036 144.568C93.7568 144.576 94.6106 144.581 95.4654 144.581C95.5722 144.582 95.6784 144.583 95.7852 144.583C95.809 144.583 95.8328 144.582 95.8567 144.582C97.5292 144.582 99.204 144.568 100.88 144.541C100.94 144.54 101 144.539 101.06 144.538L100.615 176.696C100.36 176.69 100.105 176.684 99.8496 176.678ZM57.0289 141.526C56.7981 141.495 56.5657 141.465 56.3356 141.434C56.1066 141.403 55.8793 141.37 55.6505 141.338C55.1974 141.275 54.7442 141.213 54.2941 141.147C54.0625 141.114 53.8329 141.079 53.6017 141.045C53.1566 140.979 52.7111 140.913 52.269 140.845C52.0376 140.81 51.8084 140.773 51.5781 140.737C51.1425 140.669 50.707 140.601 50.2748 140.53C50.0374 140.492 49.8024 140.452 49.5661 140.412C49.143 140.342 48.7193 140.272 48.2998 140.2C48.0622 140.159 47.8274 140.117 47.5913 140.075C47.1765 140.003 46.7618 139.93 46.3508 139.855C46.1117 139.812 45.8754 139.767 45.6373 139.723C45.2344 139.649 44.831 139.574 44.4314 139.498C44.1884 139.451 43.9484 139.403 43.7066 139.356C43.5164 139.319 43.3265 139.281 43.1371 139.244L54.6465 108.537L57.0289 141.526ZM20.1803 132.805C19.9227 132.703 19.6645 132.602 19.4111 132.499C19.1973 132.412 18.9882 132.325 18.7775 132.237C18.5316 132.135 18.2847 132.033 18.0429 131.929C17.8323 131.839 17.6263 131.748 17.4187 131.657C17.1842 131.554 16.9486 131.451 16.7183 131.347C16.512 131.255 16.3107 131.16 16.1078 131.066C15.8824 130.962 15.656 130.858 15.4348 130.752C15.2347 130.657 15.0395 130.56 14.8431 130.464C14.6273 130.358 14.4102 130.253 14.1985 130.146C14.0029 130.047 13.8125 129.947 13.6205 129.847C13.4153 129.741 13.209 129.635 13.0077 129.527C12.8185 129.426 12.6346 129.323 12.4491 129.221C12.2524 129.113 12.0547 129.005 11.8622 128.895C11.6803 128.792 11.5031 128.687 11.3248 128.583C11.1818 128.499 11.0384 128.415 10.8977 128.331L18.5226 116.779L20.8102 133.052C20.598 132.97 20.3899 132.887 20.1803 132.805ZM43.5584 139.938C44.1969 140.062 44.8395 140.184 45.4867 140.303C45.7096 140.344 45.931 140.386 46.1549 140.427C46.9651 140.573 47.7813 140.717 48.6048 140.856C48.7867 140.887 48.9709 140.917 49.1535 140.947C49.8332 141.06 50.517 141.171 51.2052 141.279C51.4544 141.319 51.7038 141.358 51.9543 141.396C52.7982 141.526 53.6461 141.654 54.5019 141.776C54.612 141.792 54.7234 141.806 54.8335 141.822C55.5756 141.927 56.3221 142.029 57.0724 142.128L59.7349 178.997C59.0262 179.1 58.3242 179.206 57.629 179.314C57.5222 179.331 57.4173 179.349 57.3108 179.366C53.7501 179.927 50.3735 180.563 47.1947 181.265L43.0625 139.843C43.2265 139.875 43.3939 139.906 43.5584 139.938ZM54.6229 108.209L43.0003 139.217C42.9861 139.214 42.9716 139.211 42.9573 139.208L54.6223 108.202L54.6229 108.209ZM20.9559 133.107L18.6363 116.607L18.7394 116.45L21.0877 133.157C21.044 133.14 20.9994 133.124 20.9559 133.107ZM42.923 139.814L47.0612 181.295L47.0116 181.306L42.8702 139.804L42.923 139.814ZM54.8516 107.592L55.5109 105.839L54.8519 107.597L54.8516 107.592ZM21.3719 133.946C21.8891 134.138 22.4139 134.328 22.9458 134.515C23.106 134.572 23.265 134.628 23.4264 134.684C24.0729 134.908 24.7282 135.13 25.3954 135.347C25.5037 135.382 25.6146 135.416 25.7232 135.451C26.3023 135.638 26.8894 135.821 27.4832 136.003C27.668 136.059 27.8528 136.116 28.0391 136.172C28.7351 136.38 29.4375 136.587 30.1529 136.789C30.1882 136.799 30.2241 136.808 30.2593 136.818C30.9442 137.011 31.6402 137.199 32.3421 137.385C32.5463 137.439 32.7509 137.493 32.9564 137.546C33.6026 137.714 34.2546 137.88 34.9143 138.043C35.0192 138.068 35.1223 138.095 35.2275 138.121C35.9756 138.303 36.7339 138.482 37.4985 138.657C37.7123 138.706 37.9278 138.754 38.1428 138.803C38.7678 138.944 39.3982 139.082 40.0338 139.218C40.2134 139.257 40.3909 139.296 40.5712 139.334C41.285 139.485 42.0045 139.633 42.731 139.777L46.8781 181.335C39.7783 182.919 33.6859 184.837 28.7952 187.013L21.3345 133.932C21.3469 133.937 21.3595 133.942 21.3719 133.946ZM46.9447 182.002L49.9073 211.692L29.0631 187.579C33.916 185.455 39.9475 183.565 46.9447 182.002ZM47.0782 181.973L47.1278 181.962L50.1182 211.936L50.0615 211.871L47.0782 181.973ZM47.2613 181.933C49.7625 181.379 52.3803 180.866 55.1165 180.4C55.1626 180.393 55.2078 180.384 55.2542 180.377C55.9015 180.267 56.5576 180.161 57.2173 180.056C57.343 180.036 57.4666 180.016 57.5931 179.996C58.3432 179.879 59.1003 179.764 59.866 179.654C59.8688 179.654 59.8719 179.653 59.8745 179.653L77.967 223.316C73.8355 223.038 69.7822 222.664 65.8503 222.196C65.8422 222.195 65.8339 222.195 65.8259 222.194C64.6581 222.054 63.5014 221.907 62.3561 221.752C62.3466 221.75 62.3368 221.749 62.3272 221.748C61.795 221.676 61.2662 221.601 60.7394 221.525C60.6917 221.518 60.6435 221.512 60.5958 221.505C60.0859 221.431 59.579 221.356 59.0743 221.279C59.0126 221.269 58.9502 221.26 58.8891 221.251C58.61 221.208 58.3343 221.163 58.0568 221.12L50.2724 212.115L47.2613 181.933ZM57.8423 221.086C57.8361 221.085 57.8299 221.084 57.824 221.083L50.3042 212.431L50.2968 212.357L57.8423 221.086ZM57.6082 221.049C57.5427 221.038 57.4764 221.028 57.4109 221.018C57.3417 221.007 57.2715 220.996 57.2026 220.985C56.7336 220.908 56.268 220.83 55.8039 220.751C55.7138 220.736 55.6225 220.721 55.5326 220.706C55.0783 220.628 54.6281 220.548 54.1785 220.467C54.0821 220.449 53.9846 220.433 53.8885 220.415C53.4402 220.334 52.9962 220.251 52.5529 220.166C52.4583 220.149 52.3621 220.131 52.2678 220.113C51.8579 220.035 51.452 219.954 51.0467 219.874L50.3281 212.673L57.6082 221.049ZM78.5663 224.208C78.5681 224.208 78.5696 224.209 78.5712 224.209C78.8005 224.223 79.0291 224.239 79.2586 224.253C80.0023 224.299 80.748 224.342 81.4961 224.381C81.7246 224.394 81.9534 224.405 82.182 224.416C82.7994 224.447 83.4181 224.477 84.0382 224.503C84.2441 224.512 84.4496 224.522 84.6559 224.53C85.4164 224.562 86.1786 224.589 86.9422 224.614C87.1757 224.621 87.4096 224.628 87.6436 224.635C88.1097 224.649 88.5764 224.661 89.0438 224.673L94.6309 263.17L78.5663 224.208ZM89.1582 223.823L88.6143 177.366C88.954 177.358 89.2937 177.346 89.6334 177.34C89.7972 177.338 89.9609 177.334 90.1249 177.332C91.4744 177.31 92.823 177.299 94.1695 177.298C94.3678 177.298 94.5654 177.299 94.7634 177.3C95.3819 177.301 95.9999 177.304 96.6173 177.309C96.9293 177.312 97.2413 177.316 97.5533 177.32C98.1166 177.326 98.6794 177.335 99.2416 177.346C99.4891 177.35 99.7373 177.354 99.9845 177.359C100.185 177.363 100.384 177.37 100.584 177.375L97.4182 223.893C94.6546 223.913 91.898 223.889 89.1582 223.823ZM131.572 179.375C131.468 179.358 131.365 179.341 131.261 179.325C130.535 179.213 129.803 179.104 129.067 178.998C128.891 178.973 128.715 178.949 128.539 178.924C127.926 178.837 127.309 178.753 126.688 178.671C126.531 178.65 126.374 178.629 126.216 178.609C125.465 178.511 124.71 178.417 123.95 178.327C123.811 178.31 123.671 178.295 123.532 178.279C122.886 178.203 122.237 178.13 121.585 178.059C121.401 178.039 121.217 178.019 121.033 178C120.255 177.917 119.475 177.838 118.689 177.762C118.635 177.757 118.58 177.753 118.526 177.747C117.791 177.678 117.051 177.612 116.31 177.548C116.123 177.532 115.935 177.517 115.747 177.501C114.978 177.437 114.206 177.375 113.43 177.318C113.405 177.316 113.379 177.314 113.354 177.312C112.543 177.252 111.729 177.198 110.912 177.146C110.734 177.134 110.556 177.123 110.377 177.113C109.668 177.069 108.956 177.028 108.243 176.99C108.124 176.984 108.007 176.977 107.888 176.97C107.067 176.928 106.243 176.889 105.417 176.855C105.266 176.848 105.115 176.843 104.965 176.836C104.259 176.808 103.552 176.782 102.843 176.759C102.68 176.754 102.516 176.748 102.353 176.743C101.827 176.727 101.3 176.713 100.773 176.7L101.219 144.535C102.792 144.508 104.365 144.469 105.938 144.417C106.075 144.413 106.213 144.408 106.35 144.403C107.93 144.35 109.508 144.285 111.085 144.207C111.208 144.201 111.331 144.195 111.454 144.189C113.112 144.105 114.767 144.009 116.418 143.898C116.435 143.897 116.452 143.896 116.468 143.894C118.14 143.782 119.807 143.654 121.468 143.513C121.567 143.504 121.664 143.495 121.762 143.487C123.326 143.352 124.883 143.205 126.433 143.045C126.59 143.028 126.746 143.012 126.902 142.996C128.429 142.835 129.948 142.663 131.459 142.477C131.59 142.461 131.72 142.445 131.85 142.43C133.371 142.24 134.885 142.039 136.387 141.824L133.249 179.645C132.693 179.553 132.134 179.463 131.572 179.375ZM101.068 143.95C100.842 143.954 100.616 143.959 100.39 143.962C100.192 143.965 99.9933 143.966 99.7945 143.969C99.2318 143.976 98.6688 143.983 98.106 143.988C97.9106 143.989 97.7155 143.989 97.5204 143.99C96.9555 143.993 96.3906 143.996 95.8263 143.996C95.6221 143.996 95.4184 143.995 95.2143 143.995C94.6598 143.994 94.1053 143.993 93.5513 143.989C93.3407 143.988 93.1305 143.984 92.9199 143.983C92.3721 143.978 91.8242 143.973 91.2772 143.965C91.0704 143.962 90.8641 143.958 90.6576 143.954C90.108 143.945 89.5585 143.936 89.0097 143.924C88.8013 143.92 88.5933 143.914 88.385 143.909C88.3371 143.908 88.2892 143.907 88.2412 143.906L90.9612 88.4862C94.5996 88.4475 98.2298 88.4717 101.835 88.5576L101.068 143.95ZM88.0806 143.901C87.6367 143.891 87.1929 143.881 86.7501 143.868C86.5404 143.862 86.3313 143.855 86.1219 143.848C85.5786 143.831 85.0354 143.815 84.4936 143.795C84.2933 143.788 84.0941 143.78 83.8941 143.772C83.3443 143.751 82.7947 143.73 82.2467 143.706C82.0479 143.698 81.85 143.688 81.6516 143.679C81.1051 143.654 80.5588 143.629 80.0144 143.602C79.8022 143.591 79.5913 143.579 79.3796 143.568C78.8505 143.54 78.3212 143.512 77.7937 143.482C77.5704 143.469 77.348 143.455 77.1252 143.441C76.6093 143.41 76.0934 143.38 75.5793 143.346C75.3578 143.332 75.1373 143.316 74.9161 143.301C74.4025 143.266 73.8887 143.232 73.3774 143.194C73.1582 143.179 72.9408 143.161 72.7221 143.145C72.2103 143.106 71.6989 143.068 71.1895 143.027C70.9653 143.01 70.7425 142.99 70.5189 142.972C70.0183 142.93 69.518 142.889 69.02 142.846C68.7894 142.825 68.5606 142.803 68.3308 142.783C67.84 142.738 67.3489 142.694 66.8605 142.648C66.633 142.626 66.4074 142.603 66.1805 142.581C65.692 142.533 65.2038 142.485 64.7179 142.435C64.4904 142.411 64.2645 142.386 64.0376 142.362C63.5561 142.311 63.0749 142.26 62.5964 142.207C62.366 142.182 62.1377 142.154 61.9084 142.128C61.434 142.074 60.9593 142.02 60.4875 141.964C60.2621 141.937 60.0387 141.909 59.8138 141.881C59.3422 141.824 58.8707 141.766 58.402 141.706C58.175 141.678 57.9504 141.647 57.7242 141.617C57.584 141.599 57.4443 141.581 57.3046 141.562L54.8758 107.926L61.5021 90.2467C71.0876 89.172 80.975 88.5979 90.81 88.488L88.0806 143.901ZM61.2183 90.2787L54.828 107.264L53.6715 91.2454C56.1605 90.8868 58.6793 90.5662 61.2183 90.2787ZM21.1893 133.88L28.6655 187.071C28.6267 187.088 28.5881 187.106 28.5495 187.123L21.0577 133.831C21.101 133.848 21.1457 133.864 21.1893 133.88ZM28.9277 187.637L49.9315 211.934L49.9392 212.012L28.803 187.694C28.8455 187.675 28.885 187.656 28.9277 187.637ZM50.0856 212.113L50.1426 212.179L50.1502 212.254L50.0934 212.189L50.0856 212.113ZM50.1742 212.496L50.9075 219.846C50.8907 219.843 50.8732 219.839 50.8561 219.836L50.1174 212.43L50.1742 212.496ZM136.469 141.207L134.056 132.933L136.477 141.206C136.474 141.206 136.471 141.207 136.469 141.207ZM136.332 141.226C135.643 141.325 134.952 141.422 134.259 141.516C134.139 141.532 134.019 141.547 133.899 141.563C133.286 141.645 132.673 141.725 132.058 141.803C131.923 141.82 131.788 141.835 131.653 141.852C131.05 141.927 130.448 142.001 129.843 142.072C129.72 142.087 129.596 142.099 129.473 142.113C128.856 142.185 128.239 142.256 127.62 142.323C127.446 142.342 127.27 142.359 127.096 142.377C126.527 142.438 125.957 142.498 125.386 142.556C125.193 142.575 124.999 142.592 124.806 142.611C124.252 142.665 123.697 142.72 123.141 142.771C122.94 142.789 122.74 142.805 122.539 142.823C121.99 142.872 121.441 142.922 120.89 142.967C120.677 142.986 120.464 143.001 120.251 143.019C119.709 143.063 119.169 143.107 118.626 143.148C118.44 143.162 118.253 143.174 118.066 143.188C117.497 143.23 116.928 143.271 116.358 143.31C116.169 143.323 115.978 143.334 115.789 143.346C115.222 143.383 114.655 143.42 114.088 143.454C113.882 143.467 113.676 143.477 113.47 143.489C112.917 143.521 112.365 143.553 111.811 143.582C111.607 143.592 111.403 143.601 111.199 143.612C110.642 143.639 110.085 143.667 109.528 143.692C109.334 143.701 109.14 143.708 108.946 143.716C108.379 143.74 107.812 143.764 107.245 143.785C107.052 143.792 106.86 143.798 106.667 143.804C106.098 143.824 105.528 143.844 104.959 143.861C104.765 143.867 104.572 143.871 104.379 143.876C103.812 143.892 103.245 143.907 102.678 143.92C102.468 143.924 102.257 143.927 102.046 143.932C101.773 143.937 101.5 143.942 101.227 143.947L101.993 88.5618C108.546 88.7216 115.014 89.0836 121.287 89.6394L136.332 141.226ZM11.6452 129.555C11.6504 129.558 11.6551 129.561 11.6603 129.564C12.1526 129.838 12.6626 130.108 13.1813 130.376C13.3132 130.444 13.4468 130.512 13.5805 130.58C14.0376 130.811 14.5034 131.04 14.9799 131.267C15.0566 131.303 15.1313 131.341 15.2088 131.377C15.7545 131.634 16.3149 131.887 16.885 132.137C17.0241 132.198 17.1659 132.259 17.3066 132.319C17.7857 132.526 18.2728 132.731 18.7682 132.933C18.8918 132.983 19.0135 133.034 19.1381 133.084C19.719 133.318 20.3101 133.549 20.912 133.776L28.4198 187.182C26.9822 187.834 25.6476 188.507 24.4292 189.202C23.1023 189.947 21.9081 190.716 20.8455 191.506L10.8861 129.119C11.137 129.265 11.3872 129.411 11.6452 129.555ZM20.9547 192.191C22.1262 191.283 23.492 190.4 25.03 189.546C26.1522 188.933 27.369 188.336 28.67 187.755L49.9632 212.253L50.7173 219.809C50.7002 219.805 50.6828 219.802 50.6657 219.799C50.2561 219.716 49.8508 219.632 49.4461 219.546C49.3269 219.522 49.2064 219.498 49.0877 219.472C48.6957 219.389 48.3081 219.304 47.9208 219.218C47.7928 219.19 47.663 219.163 47.5355 219.134C47.1513 219.049 46.7716 218.961 46.3923 218.873C46.2656 218.844 46.1372 218.815 46.0113 218.786C45.6475 218.7 45.2885 218.613 44.9294 218.525C44.7892 218.491 44.6471 218.458 44.5075 218.424C44.1621 218.339 43.8215 218.251 43.4805 218.164C43.3323 218.126 43.1819 218.089 43.0345 218.051C42.7031 217.965 42.3765 217.878 42.0495 217.79C41.8964 217.749 41.7413 217.709 41.5892 217.667C41.2702 217.581 40.9561 217.492 40.6416 217.403C40.4858 217.36 40.328 217.317 40.1736 217.272C39.8671 217.185 39.5656 217.096 39.2635 217.006C39.1049 216.96 38.9442 216.913 38.787 216.866C38.489 216.777 38.1962 216.685 37.9026 216.595C37.7606 216.551 37.6167 216.507 37.4758 216.463L22.917 204.483L20.9547 192.191ZM89.2423 224.677C89.3548 224.68 89.467 224.682 89.5795 224.685C89.7593 224.689 89.9385 224.694 90.1186 224.698C90.8936 224.713 91.6699 224.725 92.447 224.734C92.6825 224.737 92.9179 224.739 93.1531 224.741C93.825 224.747 94.4973 224.75 95.1705 224.751C95.2886 224.751 95.4062 224.753 95.5244 224.753C95.5506 224.753 95.577 224.753 95.6031 224.753C96.1885 224.752 96.7741 224.75 97.3602 224.746L94.7531 263.059L89.2423 224.677ZM22.9507 204.695L37.1084 216.345C37.0276 216.319 36.9475 216.293 36.8669 216.267L22.9865 204.919L22.9507 204.695ZM116.573 223.042L132.053 194.057L129.771 221.555C125.456 222.177 121.04 222.671 116.573 223.042ZM125.964 205.164L132.087 193.641L132.082 193.709L125.964 205.164ZM116.296 223.064C110.108 223.57 103.822 223.843 97.5678 223.892L100.748 177.379C101.239 177.391 101.73 177.403 102.219 177.417C102.522 177.426 102.824 177.436 103.125 177.446C103.657 177.464 104.188 177.483 104.718 177.504C105.001 177.516 105.283 177.526 105.565 177.538C106.305 177.57 107.044 177.604 107.781 177.642C108.052 177.656 108.321 177.671 108.591 177.686C109.127 177.715 109.663 177.746 110.197 177.778C110.488 177.796 110.779 177.813 111.069 177.832C111.807 177.879 112.543 177.928 113.276 177.982C113.476 177.996 113.675 178.012 113.874 178.027C114.46 178.072 115.045 178.118 115.627 178.166C115.907 178.189 116.187 178.212 116.466 178.236C117.072 178.289 117.676 178.343 118.278 178.399C118.452 178.415 118.627 178.431 118.801 178.447C119.524 178.516 120.242 178.59 120.959 178.665C121.217 178.692 121.474 178.72 121.731 178.748C122.288 178.809 122.843 178.871 123.396 178.935C123.607 178.96 123.82 178.984 124.031 179.009C124.748 179.094 125.462 179.183 126.171 179.275C126.394 179.303 126.614 179.333 126.835 179.362C127.383 179.435 127.928 179.509 128.47 179.585C128.691 179.616 128.912 179.647 129.132 179.678C129.838 179.78 130.54 179.884 131.236 179.991C131.4 180.017 131.563 180.043 131.728 180.069C132.219 180.147 132.707 180.226 133.194 180.307L132.116 193.293L116.296 223.064ZM133.383 179.667L136.525 141.804C136.53 141.804 136.535 141.803 136.54 141.802L133.397 179.67C133.392 179.669 133.388 179.668 133.383 179.667ZM142.691 140.218L147.141 93.2616C147.153 93.2638 147.166 93.266 147.178 93.2685L142.728 140.211C142.715 140.214 142.703 140.215 142.691 140.218ZM142.553 140.242C141.534 140.418 140.504 140.589 139.459 140.755C139.391 140.765 139.325 140.777 139.257 140.787C138.385 140.924 137.503 141.056 136.614 141.185L125.121 101.921L121.533 89.6618C130.537 90.4675 139.134 91.67 147.008 93.2352L142.553 140.242ZM58.7067 222.086L60.757 224.458L58.6938 222.084C58.6982 222.084 58.7026 222.085 58.7067 222.086ZM58.9209 222.119C59.5015 222.208 60.0849 222.294 60.672 222.378C60.8363 222.402 61.0024 222.424 61.1672 222.447C61.7344 222.527 62.3046 222.605 62.8777 222.681C63.1239 222.713 63.3703 222.746 63.6175 222.778C64.3052 222.866 64.996 222.953 65.6915 223.036C65.885 223.059 66.0802 223.08 66.2742 223.103C66.8414 223.169 67.4106 223.233 67.9827 223.295C68.2271 223.322 68.4709 223.349 68.716 223.374C69.4252 223.449 70.1373 223.521 70.8529 223.59C71.0613 223.61 71.271 223.629 71.4801 223.649C72.0572 223.703 72.6362 223.755 73.2171 223.805C73.4583 223.826 73.699 223.847 73.9408 223.867C74.666 223.928 75.3938 223.985 76.1245 224.039C76.3481 224.056 76.5725 224.072 76.7966 224.088C77.3068 224.124 77.8179 224.16 78.3305 224.193L79.063 225.961L94.4569 263.113L94.1779 262.905L58.9209 222.119ZM142.866 140.187L147.311 93.2949C148.544 93.5418 149.757 93.7979 150.952 94.0628L173.277 131.673C165.541 135.113 155.2 138.04 142.866 140.187ZM53.1485 221.149C53.3794 221.192 53.6111 221.234 53.8432 221.276C54.4319 221.382 55.0242 221.486 55.6214 221.588C55.808 221.619 55.9954 221.651 56.1827 221.682C56.76 221.778 57.3414 221.872 57.9256 221.964C58.1106 221.994 58.2944 222.023 58.48 222.052L93.452 262.288L51.8442 220.903C52.2767 220.986 52.7111 221.069 53.1485 221.149ZM94.8746 263.28L97.5095 224.745C98.2446 224.74 98.9804 224.73 99.7166 224.719C99.8477 224.717 99.9788 224.714 100.11 224.712C101.411 224.689 102.713 224.657 104.014 224.615C104.145 224.611 104.276 224.607 104.407 224.603C105.79 224.556 107.173 224.5 108.554 224.431C108.6 224.428 108.647 224.426 108.694 224.423C110.05 224.355 111.403 224.275 112.753 224.185C112.883 224.176 113.013 224.167 113.142 224.158C114.036 224.098 114.929 224.033 115.819 223.962L94.9582 263.218L94.8746 263.28ZM173.405 131.617L151.138 94.1034C151.16 94.1081 151.182 94.1129 151.205 94.1179L173.52 131.564C173.481 131.582 173.444 131.6 173.405 131.617ZM51.5964 220.856L73.8796 243.019L51.3298 220.805C51.4182 220.822 51.5078 220.839 51.5964 220.856ZM129.909 221.534L132.214 193.755L132.23 193.725L129.922 221.532C129.918 221.532 129.913 221.533 129.909 221.534ZM132.243 193.407L132.249 193.337L132.265 193.307L132.259 193.378L132.243 193.407ZM132.278 192.99L133.328 180.328C133.333 180.329 133.337 180.33 133.342 180.331L132.294 192.96L132.278 192.99ZM138.215 180.54C137.529 180.406 136.839 180.274 136.141 180.147C136.133 180.145 136.124 180.144 136.115 180.142C135.423 180.016 134.722 179.894 134.017 179.774C133.855 179.746 133.693 179.719 133.531 179.692L136.677 141.783C137.559 141.656 138.432 141.525 139.296 141.39C140.016 141.277 140.726 141.161 141.435 141.044C141.554 141.024 141.677 141.005 141.796 140.985C142.03 140.946 142.261 140.906 142.494 140.867L138.724 180.64C138.555 180.606 138.385 180.573 138.215 180.54ZM173.647 131.506L151.391 94.1587C161.229 96.3644 169.741 99.171 176.231 102.504L179.159 106.202L175.337 130.712C174.788 130.979 174.225 131.244 173.647 131.506ZM38.8732 217.797L59.8087 235.024L38.663 217.735C38.7327 217.756 38.8032 217.776 38.8732 217.797ZM40.021 218.13C40.1897 218.178 40.3605 218.225 40.5307 218.272C41.0095 218.406 41.4932 218.538 41.9822 218.667C42.1229 218.705 42.2615 218.743 42.403 218.78C42.9883 218.933 43.5815 219.083 44.1803 219.23C44.372 219.278 44.5655 219.324 44.7588 219.371C45.2635 219.493 45.7727 219.614 46.2865 219.732C46.4279 219.765 46.5672 219.798 46.7092 219.83C47.3199 219.969 47.9381 220.104 48.5605 220.237C48.7745 220.283 48.9896 220.328 49.2049 220.373C49.7467 220.487 50.2924 220.598 50.8427 220.708C50.9222 220.724 50.9998 220.74 51.0796 220.756L92.9004 261.955L91.4665 260.889L39.2209 217.899C39.4865 217.976 39.7523 218.054 40.021 218.13ZM133.476 180.352C133.672 180.385 133.869 180.418 134.064 180.451C134.753 180.568 135.438 180.687 136.116 180.81C136.166 180.82 136.216 180.829 136.267 180.838C136.921 180.958 137.569 181.081 138.212 181.207C138.311 181.226 138.409 181.245 138.508 181.265L132.455 192.656L133.476 180.352ZM138.858 180.667L142.632 140.843C142.644 140.84 142.656 140.838 142.668 140.836L138.892 180.673C138.881 180.671 138.869 180.669 138.858 180.667ZM179.188 106.014L176.536 102.664C176.638 102.717 176.741 102.77 176.842 102.823L179.219 105.814L179.188 106.014ZM29.0805 214.29C29.1595 214.325 29.2406 214.359 29.3201 214.393C29.7419 214.575 30.1713 214.755 30.6079 214.934C30.7196 214.979 30.8305 215.025 30.9432 215.071C31.4386 215.269 31.9423 215.466 32.4559 215.659C32.5644 215.7 32.6751 215.74 32.7842 215.78C33.2262 215.945 33.675 216.107 34.1297 216.267C34.2533 216.311 34.375 216.355 34.4991 216.398C35.0272 216.581 35.5639 216.761 36.1083 216.939C36.2479 216.985 36.3899 217.03 36.5304 217.075C36.99 217.223 37.4551 217.368 37.9259 217.512C38.0539 217.551 38.1803 217.591 38.309 217.63L88.7498 258.869L28.3477 213.962C28.5902 214.072 28.8328 214.182 29.0805 214.29ZM95.2179 263.027L116.093 223.94C116.434 223.912 116.775 223.884 117.116 223.855C117.191 223.849 117.265 223.843 117.34 223.836C118.711 223.719 120.078 223.589 121.437 223.448C121.531 223.439 121.623 223.429 121.717 223.419C123.016 223.282 124.309 223.135 125.595 222.977C125.712 222.963 125.829 222.949 125.946 222.934C127.025 222.8 128.098 222.658 129.166 222.508L95.3104 262.959L95.2179 263.027ZM132.426 193.003L138.649 181.293C138.669 181.297 138.688 181.301 138.707 181.304L132.42 193.076L132.426 193.003ZM164.852 189.867L164.561 191.775L164.394 191.947L164.722 189.795C164.766 189.819 164.809 189.843 164.852 189.867ZM164.978 189.938C165.274 190.107 165.568 190.276 165.851 190.447L164.724 191.608L164.978 189.938ZM163.644 188.56C163.572 188.522 163.502 188.484 163.429 188.447C162.997 188.227 162.553 188.01 162.101 187.795C161.984 187.739 161.865 187.685 161.747 187.629C161.376 187.457 160.999 187.286 160.615 187.116C160.501 187.066 160.388 187.015 160.273 186.965C159.796 186.758 159.311 186.555 158.815 186.354C158.707 186.31 158.596 186.267 158.487 186.223C158.076 186.059 157.658 185.896 157.235 185.736C157.093 185.682 156.952 185.628 156.809 185.575C156.288 185.381 155.759 185.189 155.22 185C155.155 184.978 155.087 184.955 155.021 184.932C154.536 184.764 154.043 184.599 153.543 184.435C153.383 184.383 153.223 184.331 153.062 184.279C152.555 184.116 152.042 183.954 151.521 183.796C151.456 183.776 151.392 183.756 151.327 183.736C150.748 183.561 150.158 183.39 149.563 183.221C149.398 183.174 149.231 183.128 149.065 183.081C148.574 182.944 148.077 182.809 147.575 182.676C147.444 182.641 147.314 182.606 147.181 182.571C146.568 182.41 145.947 182.253 145.32 182.099C145.165 182.061 145.009 182.024 144.854 181.986C144.342 181.862 143.825 181.74 143.304 181.62C143.137 181.582 142.971 181.543 142.803 181.505C142.154 181.358 141.5 181.213 140.837 181.073C140.723 181.049 140.607 181.025 140.492 181.001C140.007 180.899 139.518 180.798 139.026 180.7L142.807 140.812C155.165 138.685 165.524 135.795 173.347 132.372L164.689 189.117C164.348 188.929 164 188.743 163.644 188.56ZM179.455 104.303L179.248 105.626L177.146 102.983C177.941 103.41 178.704 103.845 179.431 104.288C179.439 104.293 179.446 104.298 179.455 104.303ZM101.015 87.7611C100.81 87.7567 100.605 87.7539 100.4 87.75C99.6196 87.735 98.8382 87.7227 98.0557 87.7133C97.7663 87.7099 97.4768 87.7066 97.1868 87.7038C96.2484 87.6952 95.3088 87.6894 94.368 87.6891C94.3387 87.6891 94.3095 87.6888 94.2803 87.6888C94.2593 87.6888 94.2383 87.6893 94.2173 87.6893C93.1456 87.6893 92.0728 87.6969 90.9993 87.708L95.248 1.15026L101.802 87.7799C101.54 87.7738 101.278 87.7667 101.015 87.7611ZM53.7479 90.4386C53.7178 90.4427 53.6877 90.4467 53.6579 90.4511L68.467 58.3128L53.7479 90.4386ZM129.374 222.479C129.435 222.47 129.496 222.462 129.557 222.453L113.236 241.76L129.374 222.479ZM136.735 220.416C136.679 220.427 136.623 220.437 136.566 220.448C135.894 220.57 135.216 220.69 134.529 220.807C134.468 220.818 134.406 220.828 134.345 220.838C133.717 220.944 133.081 221.047 132.441 221.149C132.262 221.177 132.083 221.205 131.903 221.234C131.294 221.328 130.68 221.421 130.06 221.511L132.391 193.423L138.849 181.332C139.403 181.443 139.953 181.555 140.498 181.669C140.617 181.694 140.737 181.718 140.856 181.743C141.514 181.883 142.165 182.026 142.811 182.172C142.982 182.211 143.152 182.251 143.322 182.29C143.845 182.41 144.363 182.532 144.876 182.656C145.026 182.693 145.177 182.728 145.326 182.765C145.956 182.92 146.578 183.077 147.193 183.238C147.324 183.272 147.452 183.307 147.582 183.342C148.089 183.476 148.591 183.613 149.088 183.751C149.245 183.795 149.404 183.839 149.561 183.883C150.16 184.053 150.754 184.226 151.338 184.402C151.399 184.42 151.458 184.439 151.519 184.458C152.047 184.618 152.567 184.781 153.081 184.947C153.234 184.996 153.385 185.045 153.536 185.095C154.053 185.263 154.563 185.435 155.065 185.609C155.115 185.626 155.167 185.643 155.217 185.66C155.761 185.85 156.293 186.044 156.819 186.239C156.956 186.29 157.091 186.342 157.226 186.393C157.66 186.557 158.087 186.723 158.508 186.892C158.608 186.932 158.71 186.971 158.809 187.011C159.309 187.214 159.798 187.419 160.278 187.627C160.387 187.675 160.495 187.723 160.603 187.771C160.993 187.943 161.376 188.116 161.752 188.291C161.866 188.345 161.981 188.397 162.094 188.451C162.548 188.666 162.994 188.884 163.427 189.106C163.497 189.141 163.564 189.178 163.633 189.213C163.961 189.383 164.28 189.554 164.595 189.727L164.231 192.114L153.465 203.196L136.735 220.416ZM165.977 190.52C165.979 190.522 165.982 190.523 165.985 190.525C166.026 190.55 166.064 190.575 166.104 190.6L164.65 192.089L164.687 191.847L165.977 190.52ZM164.816 189.185L173.494 132.306C173.545 132.284 173.596 132.261 173.647 132.239L164.945 189.256C164.903 189.232 164.858 189.209 164.816 189.185ZM175.646 130.558C175.592 130.585 175.54 130.611 175.486 130.638L179.273 106.348L179.397 106.504L175.646 130.558ZM179.303 106.159L179.334 105.958L179.458 106.114L179.427 106.315L179.303 106.159ZM179.364 105.771L179.58 104.383C179.626 104.411 179.669 104.44 179.715 104.468L179.487 105.927L179.364 105.771ZM164.524 192.015L164.487 192.256L164.321 192.426L164.357 192.186L164.524 192.015ZM165.429 189.531C165.347 189.484 165.265 189.437 165.182 189.391C165.169 189.383 165.156 189.376 165.143 189.369C165.12 189.356 165.095 189.343 165.071 189.329L173.794 132.173C174.276 131.958 174.748 131.741 175.211 131.522L166.105 189.925C165.882 189.793 165.658 189.661 165.429 189.531ZM188.602 118.664C188.581 118.738 188.557 118.812 188.534 118.885C188.484 119.046 188.425 119.206 188.365 119.366C188.3 119.544 188.231 119.72 188.154 119.896C188.1 120.02 188.041 120.143 187.982 120.266C187.899 120.438 187.814 120.611 187.72 120.782C187.638 120.932 187.549 121.081 187.459 121.23C187.378 121.365 187.297 121.499 187.209 121.634C187.066 121.852 186.913 122.07 186.752 122.287C186.709 122.345 186.668 122.404 186.624 122.462C184.445 125.309 180.762 128.012 175.795 130.484L177.384 120.294L179.512 106.65L188.698 118.255C188.667 118.392 188.641 118.528 188.602 118.664ZM90.8483 87.7099C90.3314 87.7152 89.8147 87.7213 89.2978 87.7296C89.1403 87.7319 88.983 87.7355 88.8254 87.738C87.2897 87.7647 85.7537 87.8025 84.218 87.852C84.0319 87.8578 83.8464 87.8639 83.6607 87.8703C82.1177 87.9226 80.5755 87.9868 79.0353 88.0625C78.89 88.0694 78.7445 88.0758 78.5991 88.0833C76.9393 88.1672 75.2818 88.2637 73.6292 88.3749C73.6124 88.3761 73.5958 88.3774 73.5789 88.3785C71.9328 88.4897 70.2916 88.6157 68.6556 88.7544C68.5134 88.7664 68.3717 88.7795 68.2297 88.7917C66.7013 88.9238 65.1787 89.068 63.6624 89.2242C63.4909 89.242 63.3199 89.2599 63.1486 89.2777C62.7024 89.3247 62.2564 89.3718 61.8115 89.4211L94.965 0.969285L95.1257 0.725744C95.128 0.726022 95.13 0.725763 95.1323 0.726041L90.8483 87.7099ZM53.4955 90.4736C53.4623 90.4786 53.4289 90.4828 53.396 90.4875C52.6409 90.5965 51.8937 90.7089 51.1511 90.8237C50.856 90.869 50.5647 90.9157 50.2719 90.9621C49.8496 91.0289 49.4277 91.0961 49.0098 91.1645C48.6149 91.2293 48.2228 91.2949 47.8316 91.3611C47.5647 91.4064 47.2989 91.4522 47.0336 91.4981C46.5337 91.5848 46.0359 91.6719 45.5429 91.7609C45.5403 91.7614 45.5379 91.7619 45.5356 91.7622C41.1932 92.5457 37.1063 93.4247 33.301 94.3897L51.6651 66.5681L94.2152 2.10525L53.4955 90.4736ZM31.5142 95.7017L18.6825 115.064L16.6832 100.839C20.8955 98.9533 25.8732 97.2286 31.5142 95.7017ZM129.765 222.424C129.836 222.414 129.908 222.404 129.979 222.394C130.818 222.273 131.647 222.148 132.468 222.018C132.862 221.956 133.248 221.89 133.638 221.826C134.049 221.759 134.463 221.693 134.869 221.624C135.15 221.575 135.426 221.526 135.705 221.477L96.138 262.204L129.765 222.424ZM137.026 220.363C137.009 220.366 136.992 220.369 136.974 220.372L164.195 192.354L164.158 192.593L139.782 217.542L137.026 220.363ZM188.789 117.87C188.776 117.941 188.754 118.011 188.739 118.081L179.542 106.461L179.573 106.259L188.792 117.855C188.791 117.86 188.79 117.865 188.789 117.87ZM149.778 92.998C149.599 92.9599 149.418 92.9235 149.239 92.886C148.612 92.7545 147.98 92.6255 147.343 92.4987C147.297 92.4896 147.252 92.4798 147.206 92.4709L98.1076 5.03521L150.4 93.1329C150.192 93.0881 149.986 93.0422 149.778 92.998ZM120.64 88.8039C120.353 88.7794 120.067 88.7549 119.779 88.731C118.978 88.6646 118.174 88.6012 117.366 88.5406C117.232 88.5309 117.1 88.5197 116.966 88.51C116.049 88.4427 115.128 88.381 114.205 88.3221C113.922 88.304 113.639 88.2868 113.355 88.2693C112.616 88.2243 111.874 88.1814 111.131 88.1414C110.901 88.1291 110.673 88.1158 110.443 88.1041C109.516 88.0563 108.585 88.0127 107.653 87.9732C107.394 87.9621 107.135 87.9524 106.876 87.9421C106.137 87.9126 105.396 87.8856 104.654 87.8611C104.383 87.8522 104.113 87.8428 103.842 87.8348C103.222 87.8158 102.601 87.7997 101.979 87.7844L95.3526 0.72409C95.3537 0.723812 95.3556 0.723793 95.3566 0.723793L121.054 88.839C120.916 88.827 120.778 88.8159 120.64 88.8039ZM16.5533 100.897L18.5686 115.235L18.4653 115.391L16.4352 100.95C16.4743 100.932 16.5142 100.914 16.5533 100.897ZM16.1134 198.422C16.1463 198.311 16.1745 198.201 16.2129 198.09C16.2561 197.965 16.3106 197.841 16.3606 197.717C16.6002 197.123 16.9093 196.531 17.306 195.943C17.429 195.76 17.5638 195.579 17.7009 195.398C17.7402 195.345 17.7768 195.293 17.8173 195.241C17.9313 195.095 18.0549 194.95 18.1777 194.804C18.2642 194.703 18.3495 194.601 18.441 194.499C18.5314 194.398 18.6272 194.297 18.722 194.196C18.8806 194.029 19.0412 193.863 19.212 193.697C19.2508 193.659 19.2906 193.621 19.3299 193.583C19.6051 193.321 19.8979 193.062 20.2034 192.803L21.9402 203.679L16.0076 198.798C16.0382 198.672 16.0761 198.547 16.1134 198.422ZM159.506 214.077L161.062 212.881L160.978 213.437C160.498 213.653 160.009 213.866 159.506 214.077ZM159.003 214.284C158.911 214.321 158.821 214.359 158.729 214.396C158.678 214.417 158.626 214.438 158.574 214.459L161.122 212.488L161.093 212.678L159.003 214.284ZM158.1 214.646C157.916 214.718 157.734 214.791 157.548 214.862C157.412 214.914 157.272 214.965 157.135 215.017C156.679 215.189 156.214 215.359 155.743 215.526C155.491 215.616 155.238 215.705 154.982 215.794C154.76 215.87 154.537 215.946 154.312 216.022C153.939 216.147 153.561 216.272 153.178 216.394C153.015 216.447 152.852 216.499 152.687 216.551C152.236 216.694 151.778 216.835 151.314 216.974C151.148 217.024 150.98 217.073 150.813 217.123C150.357 217.257 149.896 217.39 149.428 217.521C149.338 217.547 149.249 217.573 149.158 217.598C148.595 217.754 148.021 217.908 147.441 218.06C147.314 218.094 147.186 218.126 147.058 218.159C146.548 218.291 146.033 218.421 145.511 218.549C145.413 218.573 145.315 218.598 145.216 218.622C144.606 218.77 143.987 218.916 143.36 219.059C143.254 219.083 143.147 219.107 143.04 219.131C142.496 219.254 141.944 219.375 141.388 219.494C141.263 219.521 141.138 219.548 141.012 219.575C140.368 219.711 139.716 219.845 139.055 219.975C138.969 219.992 138.881 220.009 138.794 220.026C138.291 220.125 137.78 220.221 137.268 220.317L145.257 212.139L164.122 192.831L161.154 212.284L158.1 214.646ZM164.284 192.665L164.451 192.494L161.468 212.041L161.309 212.163L164.284 192.665ZM164.614 192.328L166.226 190.678C166.493 190.843 166.758 191.009 167.011 191.176C167.059 191.208 167.105 191.24 167.152 191.272C167.448 191.469 167.737 191.667 168.014 191.866C168.027 191.876 168.04 191.885 168.053 191.895C172.125 194.837 174.141 197.979 173.951 201.101C173.949 201.145 173.944 201.19 173.94 201.235C173.925 201.422 173.902 201.61 173.871 201.797C173.864 201.839 173.857 201.881 173.85 201.923C173.808 202.145 173.756 202.366 173.693 202.586L161.624 211.92L164.614 192.328ZM188.921 116.088C188.932 116.36 188.927 116.633 188.91 116.905C188.907 116.947 188.902 116.99 188.899 117.032C188.882 117.244 188.855 117.456 188.821 117.668L179.602 106.072L179.84 104.548C180.1 104.71 180.362 104.873 180.612 105.037C180.716 105.106 180.814 105.175 180.917 105.243C181.198 105.433 181.475 105.623 181.743 105.814C181.838 105.882 181.93 105.95 182.024 106.018C182.305 106.223 182.579 106.429 182.843 106.636C182.902 106.682 182.961 106.728 183.019 106.774C186.778 109.765 188.783 112.913 188.919 116.061C188.92 116.07 188.921 116.079 188.921 116.088ZM150.586 93.1734L136.334 69.1637L150.651 93.1876C150.629 93.1828 150.607 93.1781 150.586 93.1734ZM147.027 92.4342C146.978 92.4244 146.929 92.4144 146.88 92.405L123.685 50.8676L147.027 92.4342ZM15.9737 198.954L21.9738 203.892L22.0104 204.121L15.9348 199.153C15.9475 199.087 15.9592 199.021 15.9737 198.954ZM161.125 213.37L161.218 212.762L161.376 212.64L161.275 213.302C161.226 213.325 161.175 213.348 161.125 213.37ZM161.249 212.558L161.278 212.368L161.437 212.245L161.407 212.437L161.249 212.558ZM161.593 212.124L173.618 202.825C173.584 202.931 173.545 203.037 173.506 203.143L161.563 212.317L161.593 212.124ZM166.364 190.078C166.32 190.052 166.275 190.026 166.231 189.999L175.36 131.452C175.412 131.426 175.466 131.401 175.518 131.376L172.271 152.201L166.364 190.078ZM146.703 92.3711C146.661 92.3633 146.62 92.3558 146.578 92.3477C145.825 92.2009 145.067 92.0564 144.3 91.9163C144.188 91.8954 144.075 91.8751 143.963 91.8548C143.209 91.718 142.448 91.5851 141.683 91.455C141.417 91.4094 141.149 91.3647 140.881 91.3202C140.214 91.209 139.542 91.1 138.866 90.9938C138.677 90.9638 138.489 90.9332 138.299 90.9038C137.47 90.7756 136.633 90.6513 135.793 90.5304C135.529 90.4926 135.265 90.4559 135 90.4189C134.347 90.3269 133.69 90.2371 133.03 90.1498C132.779 90.1167 132.529 90.0825 132.276 90.05C131.422 89.9393 130.563 89.8326 129.699 89.7297C129.466 89.7016 129.232 89.6755 128.998 89.6483C128.31 89.5679 127.619 89.49 126.925 89.4147C126.649 89.3847 126.374 89.3546 126.097 89.3254C125.212 89.232 124.324 89.1417 123.431 89.0558C123.276 89.0411 123.12 89.0274 122.965 89.013C122.41 88.9607 121.856 88.9087 121.298 88.8595L95.5405 0.863656L95.7346 1.09689L146.703 92.3711ZM7.67859 105.96L1.62629 113.288C1.69236 113.099 1.77373 112.91 1.85276 112.722L7.08063 106.421C7.27548 106.266 7.47467 106.113 7.67859 105.96ZM2.74075 122.499C2.86953 122.665 3.00341 122.83 3.14229 122.995C3.18012 123.04 3.21518 123.085 3.25378 123.13C3.42687 123.332 3.61001 123.533 3.79813 123.734C3.8629 123.803 3.9298 123.871 3.99613 123.94C4.14149 124.091 4.29098 124.241 4.44463 124.391C4.50889 124.453 4.57208 124.516 4.63789 124.579C4.84958 124.78 5.06801 124.981 5.29499 125.182C5.34889 125.229 5.40574 125.276 5.46041 125.324C5.64775 125.486 5.84 125.648 6.03718 125.81C6.11387 125.873 6.19077 125.935 6.26902 125.998C6.49445 126.179 6.72533 126.359 6.96345 126.539C6.99584 126.563 7.02648 126.588 7.05913 126.612C7.33015 126.815 7.61126 127.017 7.8981 127.218C7.97505 127.273 8.05406 127.326 8.13231 127.38C8.36603 127.542 8.6049 127.703 8.84872 127.863C8.92075 127.91 8.99115 127.958 9.06396 128.005C9.30364 128.16 9.5485 128.315 9.79776 128.469L9.94611 128.562L17.594 176.458L20.0897 192.09C18.6166 193.274 17.4353 194.502 16.581 195.769C16.1872 196.354 15.8716 196.943 15.6215 197.535L2.6329 122.363C2.66762 122.408 2.70526 122.454 2.74075 122.499ZM129.532 228.033L135.943 221.434C135.958 221.431 135.972 221.429 135.987 221.426L135.034 222.402L129.532 228.033ZM168.957 191.809C168.946 191.801 168.934 191.792 168.923 191.784C168.696 191.616 168.465 191.449 168.225 191.282C168.131 191.216 168.031 191.15 167.935 191.085C167.762 190.967 167.591 190.85 167.412 190.733C167.12 190.543 166.822 190.354 166.514 190.166C166.506 190.162 166.498 190.157 166.49 190.152L166.923 187.376L175.667 131.305C181.677 128.399 185.925 125.149 188.115 121.683L174.447 198.577C173.723 196.244 171.882 193.98 168.957 191.809ZM175.304 101.107L136.056 51.5193L175.588 101.247C175.493 101.2 175.4 101.153 175.304 101.107ZM2.23958 121.816C2.31006 121.918 2.37882 122.02 2.45293 122.121L15.5262 197.783C15.493 197.869 15.4575 197.955 15.4272 198.041C15.4189 198.064 15.408 198.087 15.4 198.111L2.20701 121.77C2.21737 121.785 2.22922 121.8 2.23958 121.816ZM96.3562 262.19L109.68 248.553L136.226 221.383C136.29 221.372 136.355 221.36 136.419 221.349C136.673 221.303 136.93 221.258 137.182 221.212C137.798 221.098 138.406 220.98 139.01 220.862C139.139 220.837 139.27 220.812 139.398 220.786C140.105 220.646 140.802 220.502 141.493 220.355C141.497 220.354 141.501 220.353 141.505 220.352C146.796 219.226 151.584 217.912 155.776 216.442L101.707 258.256L96.3562 262.19ZM156.204 216.291C156.318 216.251 156.434 216.211 156.546 216.171L129.12 237.237L156.204 216.291ZM178.394 102.702C178.326 102.664 178.252 102.628 178.184 102.59C177.766 102.36 177.338 102.131 176.901 101.905C176.815 101.861 176.731 101.815 176.644 101.77C176.394 101.643 176.137 101.517 175.882 101.392L104.976 12.2016L105.643 13.0039L178.394 102.702ZM2.02039 121.491L10.2611 169.176L1.93215 121.351C1.96168 121.398 1.99008 121.444 2.02039 121.491ZM156.987 216.011C157.606 215.784 158.209 215.552 158.8 215.318L108.587 253.198L108.274 253.428L156.987 216.011ZM178.729 102.892L131.493 44.6535L179.176 103.15C179.028 103.064 178.88 102.978 178.729 102.892ZM47.1152 72.1615L32.194 94.6761C26.6203 96.1353 21.6739 97.7824 17.4349 99.5858L91.4357 5.02439L92.2647 4.03551L47.1152 72.1615ZM159.318 215.105C159.541 215.014 159.766 214.924 159.984 214.832L123.282 242.29L159.318 215.105ZM17.17 99.6976C17.0596 99.7451 16.9443 99.7918 16.835 99.8393L60.5117 44.3143L17.17 99.6976ZM160.53 214.601C161.003 214.398 161.469 214.193 161.921 213.985L129.049 238.154L160.53 214.601ZM16.5595 99.9628C14.1415 101.029 11.9629 102.146 10.0486 103.31L76.9821 22.2665L88.2442 8.8315L16.5595 99.9628ZM182.367 105.199C182.07 104.987 181.763 104.775 181.449 104.565C181.362 104.507 181.275 104.449 181.187 104.391C180.804 104.139 180.414 103.889 180.007 103.641C179.85 103.545 179.685 103.451 179.524 103.356L116.954 26.5957L155.009 72.3233L182.367 105.199ZM9.66935 103.549C9.52347 103.64 9.37879 103.731 9.23602 103.823L54.9506 48.7222L9.66935 103.549ZM8.85046 104.068C8.49807 104.299 8.15579 104.533 7.82361 104.767L51.2559 52.9558L8.85046 104.068Z" fill="#0DC143"/>
</svg>
