<svg width="440" height="311" viewBox="0 0 440 311" fill="none" xmlns="http://www.w3.org/2000/svg">
<g opacity="0.2">
<path d="M-95 310.352L-94.6705 309.478C-82.1098 276.195 -79.4743 240.387 -76.9275 205.757C-74.4321 171.828 -71.8486 136.742 -59.7696 104.895C-53.7364 88.9829 -41.9288 75.6779 -30.5085 62.8102C-14.4795 44.7513 0.65892 27.6929 1.32078 4.01083C1.98861 -19.8895 -12.8353 -40.9301 -27.1685 -61.28C-37.2223 -75.5473 -47.6175 -90.3031 -52.5192 -105.884C-64.339 -143.434 -65.8426 -190.636 -67.1697 -232.281C-67.5904 -245.451 -67.9872 -257.891 -68.6671 -269.821L-68.7068 -270.466L-68.0602 -270.48C-52.4095 -270.846 -34.9682 -272.661 -16.502 -274.582C23.3252 -278.729 64.5004 -283.015 96.9947 -274.135C114.757 -269.281 130.304 -257.788 145.338 -246.672C164.29 -232.661 183.891 -218.172 207.774 -217.384C234.915 -216.518 259.234 -234.045 282.74 -251.018C301.111 -264.283 320.108 -278.002 340.344 -282.801C390.069 -294.595 464.202 -270.544 485.743 -262.894L486.274 -262.705L486.139 -262.159C481.851 -244.463 472.243 -226.593 462.073 -207.677C445.538 -176.916 428.438 -145.108 436.591 -114.726C441.597 -96.0787 453.426 -78.7732 464.867 -62.0365C480.899 -38.5831 497.48 -14.3288 496.669 14.8086C496.041 37.3865 484.081 55.9961 472.511 73.9909C461.991 90.3603 451.114 107.286 449.048 126.986C445.465 161.147 465.453 198.127 484.782 233.888C495.888 254.436 506.378 273.845 512.167 292.128L512.503 293.183L511.426 292.924C476.803 284.606 440.911 285.294 406.186 285.955C371.85 286.609 336.339 287.286 303.003 279.005C288.483 275.396 275.12 267.888 262.199 260.628C244.734 250.814 226.676 240.667 205.901 240.439C205.633 240.435 205.367 240.434 205.102 240.434C180.395 240.434 161.599 253.146 141.709 266.596C130.456 274.206 118.819 282.077 106.057 287.374C56.3014 308.025 -5.54826 308.895 -60.1173 309.664C-71.9217 309.83 -83.0737 309.987 -94.0667 310.323L-95 310.352ZM-67.3862 -269.247C-66.7243 -257.5 -66.3339 -245.263 -65.922 -232.321C-64.5983 -190.755 -63.0946 -143.646 -51.3298 -106.259C-46.4828 -90.8629 -36.1454 -76.1895 -26.1469 -61.9981C-11.6947 -41.4839 3.24855 -20.2693 2.57138 4.04428C1.89734 28.1808 -14.1013 46.2078 -29.5752 63.6401C-40.9193 76.4222 -52.6504 89.6404 -58.6046 105.337C-70.6165 137.015 -73.1908 172.008 -75.6799 205.849C-78.2115 240.266 -80.8286 275.843 -93.1728 309.046C-82.4728 308.73 -71.6107 308.576 -60.1326 308.415C-5.67949 307.648 56.0422 306.778 105.575 286.221C118.225 280.972 129.809 273.137 141.01 265.562C160.385 252.456 180.361 238.959 205.913 239.188C227.012 239.421 245.21 249.649 262.81 259.538C275.66 266.759 288.947 274.225 303.301 277.79C336.479 286.034 371.893 285.364 406.165 284.704C440.599 284.049 476.196 283.369 510.639 291.454C504.819 273.589 494.546 254.581 483.684 234.483C464.263 198.554 444.183 161.402 447.804 126.855C449.903 106.861 460.862 89.8065 471.462 73.3169C482.937 55.4638 494.802 37.0036 495.418 14.7749C496.218 -13.9599 479.755 -38.0415 463.836 -61.3318C452.337 -78.1538 440.444 -95.5493 435.383 -114.403C427.102 -145.264 444.321 -177.293 460.972 -208.267C470.998 -226.917 480.475 -244.542 484.791 -261.905C462.674 -269.725 389.633 -293.212 340.631 -281.584C320.639 -276.844 301.743 -263.199 283.472 -250.005C259.793 -232.907 235.269 -215.24 207.731 -216.137C183.46 -216.936 163.701 -231.543 144.594 -245.669C129.654 -256.716 114.201 -268.137 96.6655 -272.931C64.3967 -281.746 23.3406 -277.474 -16.3708 -273.339C-34.6111 -271.442 -51.8514 -269.647 -67.3862 -269.247Z" fill="url(#paint0_linear_138_1548)"/>
<path d="M-84.6652 278.7L-84.6958 277.449C-71.7778 277.135 -58.3538 277.204 -44.1427 277.277C3.99033 277.517 58.617 277.802 101.68 261.677C114.693 256.805 126.668 249.482 138.25 242.399C157.79 230.451 177.995 218.096 202.961 218.062H203.062C224.215 218.062 244.139 226.747 263.411 235.146C276.866 241.01 290.781 247.073 304.931 250.079C339.402 257.405 375.19 258.077 409.801 258.729C439.495 259.287 470.203 259.863 500.415 264.573L500.22 265.808C470.093 261.111 439.432 260.534 409.777 259.978C375.108 259.325 339.258 258.651 304.668 251.303C290.396 248.269 276.423 242.179 262.911 236.291C243.758 227.944 223.953 219.313 203.062 219.313H202.961C178.346 219.345 159.187 231.061 138.903 243.465C127.269 250.578 115.242 257.934 102.12 262.848C58.8428 279.052 4.12738 278.779 -44.1487 278.528C-58.363 278.453 -71.7719 278.386 -84.6652 278.7Z" fill="url(#paint1_linear_138_1548)"/>
<path d="M14.062 244.234C-2.48264 244.234 -19.1766 243.549 -35.6753 242.872C-50.8718 242.25 -65.2232 241.661 -79.2178 241.609L-79.2116 240.359C-65.1957 240.412 -50.8321 241.001 -35.6234 241.625C10.545 243.516 58.2967 245.475 99.6762 232.268C112.21 228.266 123.972 222.443 135.346 216.811C153.873 207.639 173.032 198.152 195.506 196.739C218.856 195.274 244.548 201.898 269.404 208.307C285.284 212.4 300.285 216.268 314.658 218.164C360.778 224.249 404.164 227.818 450.098 231.595C461.619 232.544 473.237 233.499 485.011 234.505L484.908 235.75C473.131 234.745 461.515 233.788 449.997 232.841C404.045 229.06 360.646 225.49 314.493 219.402C300.047 217.497 285.01 213.62 269.093 209.516C244.328 203.132 218.712 196.523 195.585 197.986C173.361 199.385 155.167 208.392 135.901 217.93C124.484 223.582 112.679 229.428 100.054 233.457C73.2945 242.001 43.9269 244.234 14.062 244.234Z" fill="url(#paint2_linear_138_1548)"/>
<path d="M41.9833 209.826C17.9171 209.826 -6.45146 207.368 -30.3593 204.955C-45.3482 203.442 -60.8495 201.879 -75.7378 201.003L-75.6647 199.756C-60.7489 200.633 -45.2385 202.197 -30.2344 203.712C11.6946 207.941 55.0507 212.32 95.5488 203.279C107.427 200.63 118.703 197.116 129.611 193.718C148.425 187.855 166.196 182.318 186.849 180.799C245.087 176.505 299.583 183.373 352.273 190.007C388.837 194.612 426.644 199.373 465.977 200.537L465.941 201.784C426.547 200.619 388.708 195.855 352.117 191.247C299.492 184.621 245.069 177.77 186.94 182.043C166.431 183.553 148.724 189.069 129.983 194.91C119.051 198.316 107.75 201.838 95.8233 204.499C78.2785 208.414 60.2178 209.826 41.9833 209.826Z" fill="url(#paint3_linear_138_1548)"/>
<path d="M66.4044 180.292C36.457 180.292 6.50376 174.19 -22.6262 168.256C-38.9116 164.939 -55.7551 161.509 -72.272 159.221L-72.1014 157.983C-55.5446 160.276 -38.6827 163.711 -22.3761 167.033C12.4301 174.123 48.4017 181.459 84.0685 178.282C100.271 176.841 116.813 174.057 132.814 171.367C147.282 168.934 162.24 166.418 176.954 164.89C196.482 162.86 216.309 158.519 235.48 154.322C258.427 149.297 282.155 144.101 305.565 142.827C332.996 141.324 357.075 148.589 380.354 155.603C402.896 162.396 426.209 169.413 452.929 168.779L452.96 170.028C426.063 170.73 402.63 163.621 379.994 156.8C356.819 149.817 332.88 142.583 305.632 144.075C282.326 145.344 258.646 150.528 235.745 155.542C216.541 159.747 196.684 164.095 177.083 166.131C162.408 167.656 147.468 170.17 133.022 172.599C116.999 175.294 100.43 178.081 84.1781 179.526C78.2576 180.053 72.3311 180.292 66.4044 180.292Z" fill="url(#paint4_linear_138_1548)"/>
<path d="M97.5624 157.276C89.8787 157.276 82.4789 157.084 75.4999 156.695C44.0854 154.943 17.2127 145.203 -11.2401 134.892C-27.7753 128.899 -44.8753 122.703 -62.9663 118.213L-62.6671 116.999C-44.512 121.506 -27.3789 127.714 -10.813 133.717C17.5482 143.997 44.3384 153.704 75.5671 155.447C102.8 156.974 136.511 155.463 168.066 151.323C191.318 148.273 212.908 138.526 233.789 129.101C254.156 119.906 275.218 110.398 297.662 107.23C322.805 102.099 345.758 107.911 365.85 124.525C390.091 144.59 417.674 150.238 447.829 141.305L448.182 142.504C417.604 151.565 389.633 145.835 365.051 125.489C345.27 109.129 322.68 103.396 297.875 108.461C275.569 111.609 254.589 121.08 234.302 130.238C213.341 139.702 191.666 149.487 168.231 152.562C144.686 155.652 119.936 157.276 97.5624 157.276Z" fill="url(#paint5_linear_138_1548)"/>
<path d="M108.463 130.305C94.4934 130.305 81.0113 129.701 68.908 128.49C43.7401 125.97 21.8943 117.45 0.768143 109.209C-15.8311 102.735 -32.9979 96.0399 -52.0132 92.0594L-51.7571 90.8363C-32.6412 94.8383 -15.4254 101.552 1.22263 108.046C23.2396 116.632 44.0362 124.744 69.0298 127.245C94.0693 129.751 125.014 129.652 153.937 126.972C180.031 124.555 204.333 115.005 227.835 105.77C247.601 98.0011 268.043 89.9686 289.526 86.1664C320.321 80.72 346.837 90.5633 374.909 100.986C398.527 109.754 422.95 118.816 450.342 118.082L450.378 119.33C422.664 120.082 398.2 110.965 374.476 102.157C346.566 91.7939 320.212 82.0072 289.746 87.3955C268.382 91.1764 248 99.1862 228.293 106.932C204.708 116.201 180.324 125.783 154.052 128.217C139.033 129.608 123.468 130.305 108.463 130.305Z" fill="url(#paint6_linear_138_1548)"/>
<path d="M77.4277 106.6C75.2375 106.6 73.0748 106.564 70.9459 106.486C49.8351 105.722 32.6408 97.4634 16.014 89.4765C-0.316956 81.6341 -17.2033 73.5234 -37.457 72.9409L-37.4202 71.6934C-16.9013 72.2821 0.106865 80.4506 16.5537 88.3507C33.0678 96.2815 50.1431 104.482 70.9887 105.238C86.7462 105.81 104.352 104.092 121.367 102.429C127.241 101.856 132.79 101.314 138.161 100.877C172.513 98.0781 206.346 90.5912 239.063 83.3498C251.35 80.6321 264.054 77.8197 276.664 75.2803C315.091 67.5479 347.323 75.1767 381.446 83.2583C405.604 88.9808 430.582 94.8966 458.416 95.1177L458.404 96.3684C430.433 96.1441 405.384 90.2114 381.156 84.4739C347.167 76.4242 315.06 68.8232 276.908 76.5066C264.313 79.0429 251.615 81.8521 239.335 84.5701C206.575 91.819 172.699 99.3163 138.265 102.121C132.9 102.559 127.357 103.1 121.488 103.674C106.725 105.115 91.526 106.6 77.4277 106.6Z" fill="url(#paint7_linear_138_1548)"/>
<path d="M63.961 89.4544C46.1964 89.4544 33.3852 80.6897 20.9616 72.1901C8.69053 63.7974 -3.99564 55.1179 -21.437 54.9821L-21.4245 53.7314C-3.60521 53.8717 9.24249 62.6611 21.6664 71.1591C34.8767 80.1955 48.5756 89.5369 68.0972 88.0467C77.9036 87.298 87.4569 84.0496 97.5716 80.6088C106.802 77.47 116.346 74.2244 126.085 73.0684C149.813 70.2561 173.971 69.4021 197.336 68.5769C224.386 67.6224 252.357 66.6357 279.888 62.6045C321.243 56.5544 357.05 61.1068 394.953 65.9295C419.486 69.0514 444.855 72.2801 472.21 72.4722L472.203 73.7228C444.772 73.5292 419.364 70.2958 394.794 67.1695C356.983 62.3559 321.262 57.8141 280.071 63.8399C252.469 67.8816 224.462 68.8699 197.379 69.826C174.041 70.6496 149.908 71.5024 126.232 74.31C116.623 75.4492 107.143 78.6735 97.9743 81.7923C88.2319 85.1047 78.1568 88.5317 68.1946 89.2914C66.7518 89.401 65.3397 89.4544 63.961 89.4544Z" fill="url(#paint8_linear_138_1548)"/>
<path d="M59.1688 74.474C44.5186 74.474 35.032 65.1707 25.8144 56.1299C16.3524 46.8495 6.56417 37.2517 -8.94629 37.0231L-8.92818 35.7725C7.08265 36.0105 17.0509 45.785 26.6899 55.2375C37.7194 66.0568 48.1664 76.2677 66.831 72.4015C75.1918 70.6674 81.9938 65.3463 89.1983 59.7137C97.3824 53.31 105.847 46.6892 117.563 44.4063C145.107 39.0333 177.186 42.5119 208.204 45.8765C234.229 48.6948 261.135 51.6078 284.835 49.1783C334.503 44.0768 379.335 45.6004 426.794 47.2155C446.035 47.8699 465.929 48.5471 486.451 48.771L486.438 50.0217C465.898 49.7961 445.999 49.119 426.751 48.4646C379.341 46.8495 334.548 45.3274 284.963 50.4199C261.126 52.8706 234.155 49.9439 208.07 47.1178C177.14 43.7673 145.158 40.3021 117.801 45.6323C106.38 47.859 98.038 54.3851 89.967 60.6976C82.6465 66.4229 75.7316 71.8324 67.0871 73.6247C64.2841 74.2056 61.6485 74.474 59.1688 74.474Z" fill="url(#paint9_linear_138_1548)"/>
<path d="M57.665 57.209C44.6162 57.209 37.8539 47.7121 30.7649 37.7589C23.49 27.5436 15.9653 16.9807 0.811523 16.7199L0.835925 15.4693C16.6178 15.7423 24.3259 26.566 31.7838 37.0346C40.1078 48.7247 47.9655 59.7621 66.5016 54.6483C74.1641 52.5344 79.2915 45.406 84.7238 37.8598C91.5045 28.4404 99.1882 17.7647 113.485 14.3208C140.123 7.8971 175.941 15.4143 210.577 22.677C239.305 28.7012 266.418 34.3809 288.575 32.7292C353.094 27.8763 419.812 22.8556 494.821 25.6892L494.772 26.9368C419.833 24.1138 353.152 29.1269 288.667 33.9736C266.36 35.6634 239.137 29.9427 210.321 23.9001C175.82 16.6618 140.147 9.18114 113.778 15.5349C99.9295 18.8704 92.3891 29.3465 85.7365 38.5903C80.173 46.3197 74.9206 53.622 66.8311 55.8531C63.4547 56.7848 60.4196 57.209 57.665 57.209Z" fill="url(#paint10_linear_138_1548)"/>
<path d="M58.5458 33.5826C45.7194 33.5826 38.7375 24.092 31.4198 14.1466C23.8979 3.92194 16.1199 -6.65158 1.19482 -7.09698L1.23162 -8.34451C16.7664 -7.88099 24.7275 2.93991 32.4265 13.4054C41.0801 25.1702 49.2576 36.2853 67.5316 30.9214C75.3465 28.6322 80.2666 20.9332 85.4734 12.7832C92.077 2.45048 99.5624 -9.26249 114.634 -13.0038C141.073 -19.5708 177.438 -10.2464 212.596 -1.22833C240.893 6.02964 267.595 12.8669 288.928 11.8236C312.128 10.6677 334.743 8.74142 356.61 6.87921C402.714 2.95053 446.266 -0.761703 494.753 2.17122L494.68 3.41875C446.272 0.496758 402.776 4.19959 356.717 8.1239C334.837 9.98736 312.214 11.9152 288.989 13.0711C267.473 14.1387 240.676 7.26371 212.284 -0.0173788C177.28 -8.99731 141.082 -18.2852 114.933 -11.7897C100.35 -8.16928 93.0044 3.31972 86.5257 13.4556C81.1878 21.8087 76.1455 29.6998 67.8856 32.1202C64.4479 33.1265 61.355 33.5826 58.5458 33.5826Z" fill="url(#paint11_linear_138_1548)"/>
<path d="M63.8016 3.95962C50.9905 3.95962 40.516 -4.02457 29.5532 -12.3792C18.7767 -20.5936 7.63435 -29.0869 -6.23535 -29.7428L-6.17416 -30.9903C8.07942 -30.3163 19.3839 -21.7024 30.3128 -13.3721C43.7859 -3.10346 56.5299 6.59956 73.672 1.10135C82.1428 -1.61169 87.438 -8.32839 93.0474 -15.4371C100.109 -24.3911 107.411 -33.6502 121.86 -36.7996C148.272 -42.5552 183.216 -31.5622 217.025 -20.9322C242.982 -12.7712 267.503 -5.06156 287.476 -4.8526C321.224 -4.52495 355.869 -9.40972 389.44 -14.1589C421.544 -18.7007 454.74 -23.3981 487.298 -23.5736L487.304 -22.323C454.831 -22.149 421.678 -17.4579 389.617 -12.922C356 -8.16532 321.233 -3.23746 287.464 -3.60197C267.305 -3.81406 242.699 -11.5496 216.649 -19.7409C182.993 -30.3206 148.178 -41.2621 122.128 -35.5793C108.116 -32.5245 100.954 -23.444 94.0264 -14.664C88.2982 -7.39977 82.8869 -0.539726 74.0534 2.29106C70.4571 3.44393 67.0531 3.95962 63.8016 3.95962Z" fill="url(#paint12_linear_138_1548)"/>
<path d="M480.463 287.773C475.092 271.57 465.487 253.415 455.32 234.193C436.939 199.445 417.93 163.513 419.791 132.233C421.054 110.951 432.776 92.6207 444.114 74.8957C456.19 56.0131 468.677 36.4868 468.406 13.4376C468.091 -13.5312 451.529 -35.287 435.512 -56.3276C422.972 -72.7991 410.009 -89.8316 405.159 -109.12C397.603 -139.183 418.565 -175.4 438.837 -210.425C450.952 -231.359 462.397 -251.132 467.128 -268.527L468.335 -268.198C463.559 -250.647 452.075 -230.805 439.916 -209.8C419.773 -174.99 398.94 -138.995 406.373 -109.425C411.156 -90.3836 424.043 -73.4547 436.506 -57.0841C452.648 -35.8833 469.336 -13.9598 469.656 13.4223C469.931 36.8454 457.339 56.5316 445.166 75.5681C433.913 93.1591 422.283 111.349 421.035 132.306C419.199 163.239 438.123 199.012 456.425 233.609C466.618 252.878 476.245 271.077 481.647 287.379L480.463 287.773Z" fill="url(#paint13_linear_138_1548)"/>
<path d="M440.88 285.109C436.93 267.619 428.548 247.229 419.672 225.641C405.177 190.388 390.188 153.936 392.262 124.884C393.687 104.915 404.18 87.4481 414.325 70.5558C425.446 52.0425 436.942 32.9007 436.027 10.7635C435.091 -11.9333 421.145 -29.2529 407.66 -46.0018C396.045 -60.4262 384.036 -75.3436 380.742 -93.4558C374.83 -125.989 393.995 -165.481 412.528 -203.675C424.995 -229.36 436.765 -253.62 441.008 -275.289L442.235 -275.048C437.961 -253.222 426.154 -228.89 413.654 -203.129C395.206 -165.117 376.132 -125.81 381.974 -93.6786C385.207 -75.8805 396.585 -61.7472 408.633 -46.7842C422.246 -29.8782 436.32 -12.3956 437.278 10.7117C438.208 33.2224 426.611 52.5288 415.395 71.1981C405.323 87.9654 394.91 105.301 393.507 124.972C391.457 153.732 406.388 190.046 420.828 225.167C429.722 246.804 438.126 267.24 442.1 284.835L440.88 285.109Z" fill="url(#paint14_linear_138_1548)"/>
<path d="M397.139 285.543C395.086 260.776 388.315 233.211 381.769 206.553C373.802 174.105 365.563 140.551 365.511 111.154C365.48 92.2213 374.845 76.2164 383.901 60.7409C393.275 44.7166 402.971 28.1476 401.818 8.57855C400.708 -10.2003 390.325 -23.8179 380.283 -36.9858C371.987 -47.866 363.406 -59.117 359.868 -73.3219C359.188 -103.242 367.067 -131.397 383.267 -157.143C403.658 -195.091 413.907 -237.936 412.884 -281.01L414.135 -281.041C415.16 -237.75 404.859 -194.69 384.343 -156.514C368.256 -130.943 360.444 -103.021 361.1 -73.4868C364.556 -59.6692 373.057 -48.5235 381.275 -37.7438C391.432 -24.4267 401.931 -10.6548 403.063 8.50546C404.24 28.4525 394.449 45.1877 384.978 61.3709C376.007 76.7046 366.731 92.5583 366.762 111.151C366.81 140.398 375.031 173.878 382.983 206.256C389.541 232.961 396.322 260.575 398.384 285.439L397.139 285.543Z" fill="url(#paint15_linear_138_1548)"/>
<path d="M357.782 285.511L356.532 285.474C357.447 253.154 352.698 219.096 348.104 186.16C343.949 156.384 339.658 125.597 339.844 97.1944C339.954 80.5767 347.518 66.8781 354.836 53.6325C362.742 39.3146 370.212 25.7913 369.309 8.71283C368.507 -6.51996 361.668 -16.5996 354.43 -27.2694C348.903 -35.4182 343.19 -43.8427 340.234 -54.8498L340.213 -55.0191C340.591 -86.3467 347.765 -116.718 361.534 -145.291C380.72 -190.089 388.7 -239.942 383.996 -285.645L385.241 -285.773C389.966 -239.863 381.949 -189.788 362.669 -144.774C348.982 -116.367 341.851 -86.2034 341.463 -55.0906C344.37 -44.3278 350.01 -36.0129 355.464 -27.9709C362.803 -17.1516 369.736 -6.9335 370.56 8.64569C371.478 26.0827 363.572 40.3943 355.928 54.2363C348.69 67.3463 341.201 80.9015 341.094 97.2038C340.905 125.514 345.002 154.888 349.339 185.987C353.942 218.974 358.698 253.085 357.782 285.511Z" fill="url(#paint16_linear_138_1548)"/>
<path d="M324.723 282.036L323.479 281.923C326.108 252.656 329.061 218.031 331.004 183.141C332.364 155.58 328.777 128.509 320.334 102.684C315.759 88.6847 317.21 72.9594 324.321 59.5398C325.809 56.729 327.408 53.9288 328.954 51.2217C335.451 39.8457 342.171 28.0825 342.043 12.9778C341.933 -0.487732 336.531 -9.09381 330.811 -18.2049C326.114 -25.6903 321.255 -33.4305 319.535 -44.1062C320.938 -76.2924 327.889 -107.708 340.188 -137.611C357.633 -184.66 362.656 -233.937 355.107 -284.054L356.345 -284.24C363.922 -233.913 358.88 -184.427 341.35 -137.157C329.1 -107.368 322.18 -76.0925 320.776 -44.178C322.448 -33.8803 327.24 -26.2484 331.87 -18.8683C337.431 -10.0105 343.177 -0.852264 343.293 12.9684C343.421 28.4105 336.619 40.3218 330.04 51.8408C328.499 54.5404 326.904 57.3315 325.425 60.1254C318.473 73.2461 317.049 88.6179 321.524 102.296C330.009 128.266 333.621 155.488 332.251 183.206C330.305 218.119 327.356 252.756 324.723 282.036Z" fill="url(#paint17_linear_138_1548)"/>
<path d="M301.298 277.733L300.053 277.632C300.45 272.758 300.852 267.918 301.252 263.104C303.54 235.522 305.702 209.471 306.709 181.885C307.648 160.243 301.908 137.287 296.356 115.086C294.117 106.138 292.003 97.6858 290.326 89.3799C290.009 87.7953 289.819 86.3676 289.75 85.0133C289.033 71.2201 292.995 61.8635 297.192 51.9578C300.837 43.3608 304.604 34.4692 305.29 22.1463C305.971 9.91324 303.094 -1.68854 300.312 -12.9102C297.585 -23.905 294.77 -35.2732 295.209 -47.3675C300.071 -78.5302 307.722 -109.406 317.949 -139.209C333.161 -184.714 337.492 -231.897 330.818 -279.44L332.056 -279.613C338.755 -231.877 334.408 -184.504 319.132 -138.808C308.926 -109.069 301.294 -78.2666 296.451 -47.2485C296.024 -35.4028 298.821 -24.1215 301.523 -13.2106C304.33 -1.9003 307.227 9.79581 306.535 22.2165C305.839 34.756 302.027 43.7496 298.342 52.446C294.203 62.2143 290.296 71.4413 291 84.9493C291.064 86.2411 291.244 87.6107 291.552 89.1328C293.224 97.4097 295.334 105.848 297.567 114.782C303.143 137.07 308.905 160.117 307.959 181.935C306.95 209.546 304.787 235.61 302.496 263.206C302.097 268.022 301.694 272.86 301.298 277.733Z" fill="url(#paint18_linear_138_1548)"/>
<path d="M280.863 270.448L279.613 270.414C280.726 228.057 274.522 188.007 268.519 149.277C262.168 108.282 255.598 65.8907 258.169 21.9274C260.79 -22.9342 270.88 -65.8848 280.638 -107.423C292.467 -157.775 304.698 -209.84 303.563 -265.396L304.814 -265.42C305.952 -209.709 293.702 -157.564 281.855 -107.138C272.106 -65.6515 262.028 -22.7527 259.414 22.0005C256.855 65.831 263.413 108.155 269.754 149.085C275.763 187.872 281.979 227.976 280.863 270.448Z" fill="url(#paint19_linear_138_1548)"/>
<path d="M258.789 258.612C255.843 198.439 243.395 157.043 221.461 101.704C211.291 76.06 206.6 43.8709 208.909 15.5981C211.425 -15.2536 221.095 -39.8339 234.833 -67.2513C267.797 -133.039 278.244 -177.913 276.234 -245.085L277.484 -245.122C279.501 -177.714 269.02 -132.69 235.949 -66.6916C222.275 -39.4041 212.654 -14.9515 210.153 15.6989C207.86 43.79 212.52 75.7689 222.62 101.243C244.606 156.707 257.081 198.204 260.04 258.55L258.789 258.612Z" fill="url(#paint20_linear_138_1548)"/>
<path d="M238.758 248.098C233.698 212.236 217.351 177.728 201.542 144.356C180.831 100.639 159.418 55.4337 163.222 6.74437C165.854 -26.9733 185.989 -59.0862 205.34 -86.0519C242.614 -138.008 249.864 -162.78 246.173 -225.546L247.418 -225.619C251.133 -162.488 243.84 -137.577 206.353 -85.3229C187.105 -58.4974 167.077 -26.5691 164.466 6.84184C160.69 55.2004 182.033 100.253 202.671 143.821C218.52 177.278 234.909 211.874 239.997 247.924L238.758 248.098Z" fill="url(#paint21_linear_138_1548)"/>
<path d="M215.732 241.121C208.21 207.437 190.698 175.894 173.766 145.39C149.27 101.268 123.941 55.6424 128.479 2.79536C131.99 -38.0413 152.134 -63.6833 175.459 -93.3758C178.94 -97.808 182.542 -102.391 186.135 -107.093C217.73 -148.415 223.546 -161.291 219.234 -216.162L220.478 -216.26C224.828 -160.951 218.965 -147.974 187.13 -106.333C183.527 -101.625 179.925 -97.0393 176.442 -92.6043C153.241 -63.0686 133.201 -37.5625 129.724 2.90216C125.219 55.3694 150.453 100.824 174.859 144.784C191.836 175.366 209.39 206.988 216.952 240.849L215.732 241.121Z" fill="url(#paint22_linear_138_1548)"/>
<path d="M195.042 240.737C187.133 207.663 169.215 176.488 151.89 146.341C126.466 102.103 100.176 56.3582 104.523 3.33728C107.838 -37.1027 127.86 -62.7585 151.042 -92.4663C155.145 -97.7249 159.391 -103.162 163.594 -108.767C194.709 -150.235 198.907 -164.554 195.682 -218.213L196.927 -218.289C200.145 -164.812 195.612 -149.353 164.594 -108.017C160.382 -102.403 156.136 -96.9609 152.027 -91.6976C128.968 -62.1485 109.056 -36.6286 105.767 3.43941C101.454 56.0731 127.644 101.645 152.973 145.717C170.344 175.943 188.304 207.198 196.256 240.447L195.042 240.737Z" fill="url(#paint23_linear_138_1548)"/>
<path d="M175.914 245.824C167.904 214.624 151.57 184.426 135.773 155.221C111.468 110.291 86.3374 63.8324 90.0312 11.7813C92.6483 -25.1158 110.392 -51.9519 129.181 -80.3619C134.559 -88.4969 140.123 -96.9096 145.375 -105.653C171.793 -149.618 175.191 -171.958 173.16 -225.95L174.41 -225.996C176.451 -171.717 173.029 -149.252 146.449 -105.01C141.181 -96.2431 135.611 -87.8198 130.221 -79.6725C111.53 -51.4031 93.8715 -24.701 91.2759 11.87C87.6095 63.5579 112.652 109.855 136.871 154.626C152.705 183.898 169.075 214.166 177.122 245.513L175.914 245.824Z" fill="url(#paint24_linear_138_1548)"/>
<path d="M157.954 255.194C150.511 226.291 135.816 197.019 121.601 168.71C98.456 122.607 74.5178 74.9331 78.2391 24.1828C80.9872 -13.3395 102.745 -53.4306 120.223 -85.6444C121.467 -87.9336 122.69 -90.1906 123.892 -92.4142C151.738 -143.973 152.162 -180.702 150.515 -241.184L151.765 -241.218C153.418 -180.524 152.988 -143.659 124.99 -91.8195C123.791 -89.5959 122.565 -87.3385 121.321 -85.0478C103.898 -52.9396 82.2133 -12.9797 79.4834 24.2744C75.7897 74.6813 99.6485 122.198 122.718 168.15C136.962 196.518 151.689 225.85 159.162 254.883L157.954 255.194Z" fill="url(#paint25_linear_138_1548)"/>
<path d="M140.675 266.472C133.461 237.675 121.26 209.802 109.464 182.845C89.464 137.145 68.7834 89.8904 72.0196 37.028C74.1548 2.06003 87.3379 -30.3505 100.085 -61.695C104.938 -73.6319 109.959 -85.9764 114.305 -98.2994C130.527 -144.308 129.291 -189.575 127.98 -237.502C127.799 -244.156 127.617 -250.849 127.479 -257.585L128.73 -257.609C128.864 -250.877 129.047 -244.188 129.23 -237.536C130.542 -189.491 131.783 -144.11 115.483 -97.8846C111.127 -85.5326 106.103 -73.1746 101.241 -61.2237C88.5339 -29.9738 75.3901 2.34052 73.2643 37.1042C70.0493 89.6645 90.6688 136.78 110.608 182.345C122.425 209.347 134.647 237.269 141.889 266.167L140.675 266.472Z" fill="url(#paint26_linear_138_1548)"/>
<path d="M120.744 279.034C114.213 250.827 104.154 223.959 94.4264 197.977C75.9752 148.691 58.5492 102.138 62.719 46.616C65.0372 15.7248 74.2552 -13.8644 83.1711 -42.4787C89.4636 -62.6837 95.9729 -83.5762 100.008 -104.773C107.82 -145.808 106.514 -189.713 105.252 -232.172C104.867 -245.057 104.471 -258.377 104.355 -271.205L105.606 -271.217C105.721 -258.401 106.118 -245.087 106.499 -232.21C107.765 -189.682 109.074 -145.707 101.235 -104.538C97.1869 -83.2729 90.6682 -62.3451 84.3635 -42.1067C75.4689 -13.5592 66.2726 15.9609 63.9634 46.7107C59.8151 101.958 77.1956 148.384 95.5977 197.538C105.337 223.559 115.412 250.466 121.964 278.754L120.744 279.034Z" fill="url(#paint27_linear_138_1548)"/>
<path d="M97.0404 290.198C91.202 261.907 82.9817 235.434 75.0329 209.834C58.4426 156.392 42.7672 105.915 49.3892 44.4887C52.1619 18.8011 58.3601 -6.57068 64.3568 -31.107C70.183 -54.9524 76.2072 -79.6105 79.0561 -104.47C83.9303 -147.055 83.8207 -192.174 83.7107 -235.808C83.6801 -248.79 83.6467 -262.214 83.7504 -275.173L85.001 -275.163C84.8942 -262.211 84.9279 -248.79 84.9613 -235.811C85.0681 -192.142 85.1809 -146.986 80.2945 -104.327C77.4394 -79.3894 71.4061 -54.6931 65.5709 -30.8112C59.5832 -6.31302 53.3944 19.0176 50.6339 44.623C44.039 105.791 59.6748 156.148 76.2285 209.463C84.1867 235.093 92.4129 261.595 98.2666 289.945L97.0404 290.198Z" fill="url(#paint28_linear_138_1548)"/>
<path d="M64.6231 299.227C61.6705 272.227 53.9562 245.571 46.4955 219.793C38.2383 191.255 29.6975 161.747 27.6326 131.752C25.9762 107.747 29.5726 83.2077 33.053 59.4754C34.2487 51.3372 35.481 42.9217 36.4692 34.7286C47.9351 -60.4484 53.5689 -162.837 53.6879 -278.291H54.9385C54.8163 -162.786 49.1794 -60.3475 37.7076 34.8782C36.7194 43.0863 35.4841 51.5112 34.2912 59.6569C30.8201 83.3236 27.23 107.796 28.877 131.667C30.936 161.527 39.4555 190.972 47.6971 219.446C55.1703 245.275 62.8996 271.983 65.8675 299.089L64.6231 299.227Z" fill="url(#paint29_linear_138_1548)"/>
<path d="M24.0939 305.822L22.8433 305.77C24.0971 276.083 19.2258 245.851 14.5131 216.612C9.49245 185.457 4.30093 153.242 6.57949 121.794C7.91852 103.315 13.531 86.3241 18.9574 69.8938C23.7766 55.3045 28.7607 40.2179 30.7466 24.1174C38.1982 -36.2899 32.9243 -104.645 27.8274 -170.749C24.9479 -208.1 22.2271 -243.379 21.672 -277.109L22.9226 -277.13C23.4749 -243.437 26.1926 -208.176 29.0718 -170.846C34.1749 -104.68 39.452 -36.2609 31.985 24.2698C29.9838 40.4924 24.9817 55.6387 20.1438 70.2858C14.7389 86.6443 9.15077 103.559 7.8239 121.885C5.55752 153.185 10.7368 185.329 15.7484 216.414C20.4673 245.712 25.3505 276.008 24.0939 305.822Z" fill="url(#paint30_linear_138_1548)"/>
<path d="M-21.5984 308.261L-22.8247 308.014C-16.3339 275.74 -17.4471 242.651 -18.5238 210.653C-19.5426 180.399 -20.598 149.114 -15.1626 118.81C-11.9354 100.822 -3.32747 84.8893 4.99967 69.481C14.7573 51.4159 23.9784 34.3543 25.354 14.1953C26.9738 -9.51584 18.979 -33.8248 11.2466 -57.3347C6.30215 -72.3754 1.18686 -87.9302 -1.23819 -102.969C-7.95174 -144.622 -9.00411 -190.124 -10.0199 -234.129C-10.3431 -248.078 -10.6451 -261.251 -11.124 -274.365L-9.87335 -274.41C-9.39765 -261.288 -9.09246 -248.109 -8.7723 -234.158C-7.75656 -190.196 -6.70426 -144.736 -0.00569725 -103.168C2.40405 -88.226 7.504 -72.7202 12.4331 -57.7251C20.2021 -34.1024 28.2366 -9.6745 26.5987 14.2805C25.2046 34.7098 15.4926 52.6878 6.09785 70.0757C-2.18055 85.3972 -10.7395 101.24 -13.9301 119.029C-19.3443 149.204 -18.292 180.422 -17.2762 210.61C-16.1964 242.68 -15.0801 275.842 -21.5984 308.261Z" fill="url(#paint31_linear_138_1548)"/>
<path d="M-62.6184 309.171L-63.8081 308.793C-53.3274 275.691 -51.7107 240.905 -50.149 207.264C-48.63 174.536 -47.0561 140.693 -37.2191 108.96C-32.1097 92.4889 -21.2511 78.2075 -10.7491 64.3947C3.14183 46.1281 16.261 28.8744 17.2371 7.00397C18.2863 -16.4416 5.58816 -38.8459 -6.69514 -60.5117C-14.9461 -75.0645 -23.4778 -90.1127 -27.5773 -105.167C-38.4635 -145.155 -40.1014 -191.01 -41.6878 -235.355C-42.1238 -247.571 -42.5355 -259.109 -43.1396 -270.45L-41.889 -270.517C-41.2881 -259.165 -40.8764 -247.622 -40.4372 -235.399C-38.8571 -191.125 -37.2191 -145.344 -26.3694 -105.497C-22.3124 -90.5931 -13.8207 -75.6133 -5.60944 -61.1277C6.76257 -39.3078 19.5522 -16.7452 18.4877 7.05893C17.4901 29.3198 3.64196 47.5358 -9.75454 65.1511C-20.1894 78.8772 -30.9844 93.0699 -36.0235 109.329C-45.8177 140.91 -47.3856 174.672 -48.9014 207.321C-50.4663 241.044 -52.0861 275.914 -62.6184 309.171Z" fill="url(#paint32_linear_138_1548)"/>
</g>
<defs>
<linearGradient id="paint0_linear_138_1548" x1="208.751" y1="-286" x2="208.751" y2="292.697" gradientUnits="userSpaceOnUse">
<stop stop-color="#0DC143"/>
<stop offset="1" stop-color="#0DC143" stop-opacity="0"/>
</linearGradient>
<linearGradient id="paint1_linear_138_1548" x1="207.86" y1="218.062" x2="207.86" y2="276.905" gradientUnits="userSpaceOnUse">
<stop stop-color="#0DC143"/>
<stop offset="1" stop-color="#0DC143" stop-opacity="0"/>
</linearGradient>
<linearGradient id="paint2_linear_138_1548" x1="202.897" y1="196.533" x2="202.897" y2="242.822" gradientUnits="userSpaceOnUse">
<stop stop-color="#0DC143"/>
<stop offset="1" stop-color="#0DC143" stop-opacity="0"/>
</linearGradient>
<linearGradient id="paint3_linear_138_1548" x1="195.12" y1="179.464" x2="195.12" y2="208.927" gradientUnits="userSpaceOnUse">
<stop stop-color="#0DC143"/>
<stop offset="1" stop-color="#0DC143" stop-opacity="0"/>
</linearGradient>
<linearGradient id="paint4_linear_138_1548" x1="190.344" y1="142.628" x2="190.344" y2="179.177" gradientUnits="userSpaceOnUse">
<stop stop-color="#0DC143"/>
<stop offset="1" stop-color="#0DC143" stop-opacity="0"/>
</linearGradient>
<linearGradient id="paint5_linear_138_1548" x1="192.608" y1="105.424" x2="192.608" y2="155.741" gradientUnits="userSpaceOnUse">
<stop stop-color="#0DC143"/>
<stop offset="1" stop-color="#0DC143" stop-opacity="0"/>
</linearGradient>
<linearGradient id="paint6_linear_138_1548" x1="199.182" y1="84.6152" x2="199.182" y2="128.952" gradientUnits="userSpaceOnUse">
<stop stop-color="#0DC143"/>
<stop offset="1" stop-color="#0DC143" stop-opacity="0"/>
</linearGradient>
<linearGradient id="paint7_linear_138_1548" x1="210.48" y1="71.6934" x2="210.48" y2="105.567" gradientUnits="userSpaceOnUse">
<stop stop-color="#0DC143"/>
<stop offset="1" stop-color="#0DC143" stop-opacity="0"/>
</linearGradient>
<linearGradient id="paint8_linear_138_1548" x1="225.386" y1="53.7314" x2="225.386" y2="88.3968" gradientUnits="userSpaceOnUse">
<stop stop-color="#0DC143"/>
<stop offset="1" stop-color="#0DC143" stop-opacity="0"/>
</linearGradient>
<linearGradient id="paint9_linear_138_1548" x1="238.752" y1="35.7725" x2="238.752" y2="73.3282" gradientUnits="userSpaceOnUse">
<stop stop-color="#0DC143"/>
<stop offset="1" stop-color="#0DC143" stop-opacity="0"/>
</linearGradient>
<linearGradient id="paint10_linear_138_1548" x1="247.816" y1="11.8867" x2="247.816" y2="55.8672" gradientUnits="userSpaceOnUse">
<stop stop-color="#0DC143"/>
<stop offset="1" stop-color="#0DC143" stop-opacity="0"/>
</linearGradient>
<linearGradient id="paint11_linear_138_1548" x1="247.974" y1="-15.2109" x2="247.974" y2="32.138" gradientUnits="userSpaceOnUse">
<stop stop-color="#0DC143"/>
<stop offset="1" stop-color="#0DC143" stop-opacity="0"/>
</linearGradient>
<linearGradient id="paint12_linear_138_1548" x1="240.535" y1="-38.3838" x2="240.535" y2="2.70603" gradientUnits="userSpaceOnUse">
<stop stop-color="#0DC143"/>
<stop offset="1" stop-color="#0DC143" stop-opacity="0"/>
</linearGradient>
<linearGradient id="paint13_linear_138_1548" x1="442.614" y1="-268.527" x2="442.614" y2="271.303" gradientUnits="userSpaceOnUse">
<stop stop-color="#0DC143"/>
<stop offset="1" stop-color="#0DC143" stop-opacity="0"/>
</linearGradient>
<linearGradient id="paint14_linear_138_1548" x1="410.942" y1="-275.289" x2="410.942" y2="268.518" gradientUnits="userSpaceOnUse">
<stop stop-color="#0DC143"/>
<stop offset="1" stop-color="#0DC143" stop-opacity="0"/>
</linearGradient>
<linearGradient id="paint15_linear_138_1548" x1="387.016" y1="-281.041" x2="387.016" y2="268.769" gradientUnits="userSpaceOnUse">
<stop stop-color="#0DC143"/>
<stop offset="1" stop-color="#0DC143" stop-opacity="0"/>
</linearGradient>
<linearGradient id="paint16_linear_138_1548" x1="363.201" y1="-285.773" x2="363.201" y2="268.598" gradientUnits="userSpaceOnUse">
<stop stop-color="#0DC143"/>
<stop offset="1" stop-color="#0DC143" stop-opacity="0"/>
</linearGradient>
<linearGradient id="paint17_linear_138_1548" x1="338.735" y1="-284.24" x2="338.735" y2="265.271" gradientUnits="userSpaceOnUse">
<stop stop-color="#0DC143"/>
<stop offset="1" stop-color="#0DC143" stop-opacity="0"/>
</linearGradient>
<linearGradient id="paint18_linear_138_1548" x1="312.386" y1="-279.613" x2="312.386" y2="261.232" gradientUnits="userSpaceOnUse">
<stop stop-color="#0DC143"/>
<stop offset="1" stop-color="#0DC143" stop-opacity="0"/>
</linearGradient>
<linearGradient id="paint19_linear_138_1548" x1="281.243" y1="-265.42" x2="281.243" y2="254.583" gradientUnits="userSpaceOnUse">
<stop stop-color="#0DC143"/>
<stop offset="1" stop-color="#0DC143" stop-opacity="0"/>
</linearGradient>
<linearGradient id="paint20_linear_138_1548" x1="243.027" y1="-245.122" x2="243.027" y2="243.698" gradientUnits="userSpaceOnUse">
<stop stop-color="#0DC143"/>
<stop offset="1" stop-color="#0DC143" stop-opacity="0"/>
</linearGradient>
<linearGradient id="paint21_linear_138_1548" x1="205.531" y1="-225.619" x2="205.531" y2="234.074" gradientUnits="userSpaceOnUse">
<stop stop-color="#0DC143"/>
<stop offset="1" stop-color="#0DC143" stop-opacity="0"/>
</linearGradient>
<linearGradient id="paint22_linear_138_1548" x1="174.846" y1="-216.26" x2="174.846" y2="227.58" gradientUnits="userSpaceOnUse">
<stop stop-color="#0DC143"/>
<stop offset="1" stop-color="#0DC143" stop-opacity="0"/>
</linearGradient>
<linearGradient id="paint23_linear_138_1548" x1="150.926" y1="-218.289" x2="150.926" y2="227.147" gradientUnits="userSpaceOnUse">
<stop stop-color="#0DC143"/>
<stop offset="1" stop-color="#0DC143" stop-opacity="0"/>
</linearGradient>
<linearGradient id="paint24_linear_138_1548" x1="133.395" y1="-225.996" x2="133.395" y2="231.856" gradientUnits="userSpaceOnUse">
<stop stop-color="#0DC143"/>
<stop offset="1" stop-color="#0DC143" stop-opacity="0"/>
</linearGradient>
<linearGradient id="paint25_linear_138_1548" x1="118.508" y1="-241.218" x2="118.508" y2="240.497" gradientUnits="userSpaceOnUse">
<stop stop-color="#0DC143"/>
<stop offset="1" stop-color="#0DC143" stop-opacity="0"/>
</linearGradient>
<linearGradient id="paint26_linear_138_1548" x1="106.786" y1="-257.609" x2="106.786" y2="250.957" gradientUnits="userSpaceOnUse">
<stop stop-color="#0DC143"/>
<stop offset="1" stop-color="#0DC143" stop-opacity="0"/>
</linearGradient>
<linearGradient id="paint27_linear_138_1548" x1="92.0296" y1="-271.217" x2="92.0296" y2="262.744" gradientUnits="userSpaceOnUse">
<stop stop-color="#0DC143"/>
<stop offset="1" stop-color="#0DC143" stop-opacity="0"/>
</linearGradient>
<linearGradient id="paint28_linear_138_1548" x1="73.051" y1="-275.173" x2="73.051" y2="273.46" gradientUnits="userSpaceOnUse">
<stop stop-color="#0DC143"/>
<stop offset="1" stop-color="#0DC143" stop-opacity="0"/>
</linearGradient>
<linearGradient id="paint29_linear_138_1548" x1="46.5422" y1="-278.291" x2="46.5422" y2="282.129" gradientUnits="userSpaceOnUse">
<stop stop-color="#0DC143"/>
<stop offset="1" stop-color="#0DC143" stop-opacity="0"/>
</linearGradient>
<linearGradient id="paint30_linear_138_1548" x1="20.8623" y1="-277.13" x2="20.8623" y2="288.563" gradientUnits="userSpaceOnUse">
<stop stop-color="#0DC143"/>
<stop offset="1" stop-color="#0DC143" stop-opacity="0"/>
</linearGradient>
<linearGradient id="paint31_linear_138_1548" x1="1.99423" y1="-274.41" x2="1.99423" y2="291.011" gradientUnits="userSpaceOnUse">
<stop stop-color="#0DC143"/>
<stop offset="1" stop-color="#0DC143" stop-opacity="0"/>
</linearGradient>
<linearGradient id="paint32_linear_138_1548" x1="-22.6291" y1="-270.517" x2="-22.6291" y2="292.009" gradientUnits="userSpaceOnUse">
<stop stop-color="#0DC143"/>
<stop offset="1" stop-color="#0DC143" stop-opacity="0"/>
</linearGradient>
</defs>
</svg>
