<svg width="844" height="857" viewBox="0 0 844 857" fill="none" xmlns="http://www.w3.org/2000/svg">
<g opacity="0.7" clip-path="url(#clip0_267_1641)">
<path d="M1048.84 342.362L1048.71 338.528L1049 335.904L1048.63 336.186L1048.02 317.585L1047 286.755L1047.83 287.971L1046.97 283.282L1046.87 282.736L1046.86 282.489L1046.79 280.285L1046.48 280.578L1038.02 234.482L1039.83 237.14L1037.22 229.614L1037.03 229.05L1036.62 226.822L1036.35 227.115L1019.66 178.97L1019.73 178.874L1019.42 178.299L1018.74 176.335L1018.53 176.616L994.806 131.916L994.872 131.811L994.452 131.247L993.556 129.558L993.432 129.754L988.209 122.069L988.205 122.061L981.97 112.881L976.893 105.417L977.007 105.413L975.736 103.71L975.437 103.146L975.318 103.15L947.087 65.3334L945.119 62.6976L945.532 62.6559L943.841 60.9859L943.503 60.5324L943.394 60.5435L907.342 24.9202L907.806 24.8413L905.674 23.2719L905.314 22.916L905.213 22.9331L863.984 -7.41014L864.498 -7.53403L862.088 -8.8391L861.913 -8.93456L861.544 -9.20607L861.535 -9.20394L856.478 -12.9337L857.628 -11.2547L815.765 -33.9234L816.326 -34.0999L813.294 -35.2614L809.1 -37.5325L809.726 -36.6283L763.481 -54.3446L764.082 -54.5819L760.986 -55.3478L760.636 -55.4343L760.28 -55.5709L757.182 -56.7574L757.577 -56.1912L728.343 -63.4213L707.923 -68.4714L708.548 -68.774L704.749 -69.2565L704.407 -69.3411L701.8 -69.9859L702.074 -69.5962L649.927 -76.2185L650.554 -76.587L646.502 -76.6532L646.169 -76.6956L643.933 -76.9793L644.138 -76.6919L614.987 -77.1682L590.289 -77.5721L590.887 -78L586.716 -77.6303L584.467 -77.6671L584.627 -77.4454L529.81 -72.5899L530.336 -73.0551L526.905 -72.3998L526.247 -72.2743L524.256 -72.0981L524.388 -71.919L497.439 -66.7702L469.295 -61.3935L469.703 -61.8587L466.648 -60.9613L465.927 -60.7501L465.595 -60.6864L464.17 -60.4138L464.28 -60.2662L409.49 -44.1741L409.746 -44.5904L407.311 -43.6164L406.539 -43.3075L404.988 -42.8519L405.084 -42.7249L388.589 -36.1244L351.184 -21.1568L351.284 -21.469L349.666 -20.6393L348.857 -20.2255L348.4 -20.0425L347.487 -19.6759L347.571 -19.5659L295.207 7.29194L295.193 7.10385L294.447 7.57913L293.615 8.10846L292.407 8.72826L292.485 8.82824L242.434 40.7027L242.371 40.616L241.467 41.3183L240.427 41.9805L240.499 42.0704L220.83 57.3474L194.013 78.1748L193.942 78.0868L193.077 78.9015L192.185 79.5948L191.566 80.0768L191.747 80.1547L149.965 119.522L149.885 119.424L149.027 120.406L148.277 121.113L147.044 122.275L147.385 122.287L110.785 164.206L110.692 164.093L110.087 164.945L109.859 165.267L109.244 165.971L107.637 167.813L108.124 167.713L76.9543 211.663L76.8425 211.531L76.232 212.618L76.0575 212.927L73.8716 216.009L74.4522 215.786L48.8909 261.3L48.754 261.14L48.0512 262.795L46.1282 266.22L46.7364 265.892L30.0047 305.295L26.9514 312.486L26.7786 312.288L26.202 314.251L24.6859 317.821L25.2704 317.422L12.3801 361.305L11.4242 364.559L11.1978 364.302L10.8728 366.278L10.8135 366.638L9.76925 370.193L10.3007 369.754L6.01849 395.788L2.55377 416.851L2.24543 416.506L2.14857 419.313L2.07119 419.786L1.58834 422.721L2.04691 422.273L1.06595 450.748L0.449247 468.649L0 468.152L0.347605 471.588L0.238607 474.756L0.623755 474.315L5.16487 519.19L4.45328 518.407L5.41449 522.31L5.52659 522.766L5.81715 525.636L6.13059 525.217L16.5973 567.711L15.3021 566.283L17.6988 572.184L18.3246 574.724L18.5728 574.335L27.7624 596.956L34.3453 613.16L31.272 609.813L36.4903 618.661L36.7785 619.15L37.6714 621.348L37.864 620.99L51.1513 643.517L62.2803 662.384L62.2348 662.486L62.6279 662.973L63.7229 664.829L63.8669 664.507L75.2697 678.623L94.5053 702.436L94.4666 702.544L94.9664 703.007L96.2066 704.542L96.2574 704.4L98.1464 706.445L102.322 710.969L105.428 714.337L109.654 718.925L112.821 722.355L115.556 725.32L115.353 725.36L116.962 726.849L117.35 727.329L117.458 727.308L131.315 740.132L153.844 760.979L153.466 761.084L155.429 762.446L155.843 762.829L155.942 762.802L197.664 791.754L197.263 791.9L199.569 793.076L199.994 793.371L199.999 793.369L208.054 798.964L205.358 796.028L246.652 817.079L246.24 817.27L248.843 818.197L249.279 818.419L249.288 818.415L254.461 821.06L253.292 819.781L300.179 836.476L299.77 836.711L302.615 837.343L303.05 837.498L306.892 838.866L306.242 838.15L325.418 842.412L357.568 849.559L357.182 849.834L359.797 850.099L360.171 850.137L363.635 850.907L363.221 850.447L417.996 856L417.653 856.307L420.674 856.271L423.558 856.564L423.272 856.241L480.619 855.565L480.344 855.884L483.243 855.534L483.708 855.529L485.698 855.505L485.487 855.263L532.485 849.593L544.481 848.145L544.291 848.455L546.31 847.992L546.929 847.85L549.025 847.597L548.862 847.407L608.59 833.713L608.49 833.985L610.725 833.224L612.525 832.811L612.394 832.656L671.875 812.394L671.856 812.607L672.863 812.146L673.616 811.801L674.27 811.578L675.15 811.278L675.042 811.147L733.247 784.466L733.285 784.614L733.757 784.336L734.563 783.863L735.87 783.264L735.776 783.149L781.052 756.537L791.578 750.35L791.645 750.44L791.675 750.417L792.528 749.792L793.586 749.17L793.624 749.148L793.543 749.046L827.259 724.274L845.573 710.82L845.648 710.917L845.925 710.665L846.526 710.12L847.86 709.14L847.707 709.045L894.658 666.364L894.745 666.477L895.631 665.478L897.188 664.063L896.942 664.001L918.213 640.027L938.043 617.678L938.147 617.816L938.712 617.014L939.023 616.574L940.67 614.717L940.335 614.714L974.986 565.584L975.113 565.756L975.946 564.224L977.528 561.98L977.126 562.05L994.401 530.252L1004.87 510.982L1005.03 511.205L1005.61 509.744L1005.78 509.306L1007.15 506.788L1006.72 506.932L1027.25 454.808L1027.46 455.111L1028.06 452.755L1029.11 450.083L1028.67 450.291L1041.8 398.041L1042.11 398.478L1042.38 395.996L1042.43 395.519L1042.54 395.076L1043.11 392.812L1042.7 393.067L1048.36 341.68L1048.84 342.362ZM1026.44 449.687L1022.28 443.855L1021.95 443.383L1021.89 443.307L1029.02 414.986L1035.53 389.122L1040.04 395.542L1026.44 449.687ZM792.096 747.235L786.859 740.678L838.964 702.377L844.145 708.996L792.096 747.235ZM790.147 748.505L734.295 781.334L729.017 774.856L784.925 741.965L784.992 742.05L790.147 748.505ZM671.222 810.169L610.788 830.756L605.498 824.5L665.986 803.86L671.222 810.169ZM298.979 833.589L249.963 816.137L246.046 811.849L295.08 829.292L298.979 833.589ZM244.147 813.202L200.871 791.14L198.083 788.102L241.347 810.137L241.401 810.197L244.147 813.202ZM192.268 785.192L156.919 760.661L156.837 760.573L192.127 785.038L192.268 785.192ZM152.673 120.153L194.067 81.1494L197.268 82.5218L211.261 88.5228L187.283 111.097L177.114 120.669L177.035 120.612L176.708 120.987L152.673 120.153ZM295.392 9.8008L347.39 -16.8694L340.046 6.18476L339.5 6.40239L339.535 6.49743L302.911 25.2342L296.766 28.3778L295.392 9.8008ZM404.097 -39.8344L399.231 -31.9388L387.391 -12.7258L386.786 -12.549L386.807 -12.4523L342.827 5.07609L350.273 -18.2958L404.097 -39.8344ZM462.701 -57.3878L436.004 -26.9642L435.391 -26.8482L435.397 -26.7526L424.777 -23.6495L390.707 -13.6947L407.673 -41.2261L462.701 -57.3878ZM902.04 23.4725L792.284 42.1361L791.957 41.8062L791.844 41.9005L774.74 29.0781L759.597 17.7255L861.04 -6.70122L902.04 23.4725ZM1043.61 277.761L1042.58 276.273L1040.59 273.383L1031.81 225.415L1034.81 229.8L1043.61 277.761ZM1046.27 334.602L1042.51 329.197L1042.46 329.121L1042.4 327.105L1040.78 277.741L1044.57 283.244L1046.27 334.602ZM39.1469 618.609L86.1688 531.31L86.7739 532.315L105.808 563.956L105.664 564.055L106.012 564.477L63.4378 659.792L39.1469 618.609ZM646.659 -74.2969L700.521 -67.4577L630.414 -33.4844L629.909 -33.6125L629.862 -33.5158L594.971 -38.1012L586.896 -39.1627L646.659 -74.2969ZM473.614 845.206L414.144 845.941L409.056 840.213L468.564 839.442L468.615 839.501L469.599 840.622L473.614 845.206ZM64.9264 662.134L107.657 566.47L132.249 596.269L132.111 596.385L132.52 596.755L113.088 650.778L95.4222 699.887L64.9264 662.134ZM997.018 500.134L968.409 552.763L963.549 546.169L963.491 546.088L992.139 493.407L992.301 493.631L997.018 500.134ZM931.616 605.267L926.58 598.569L962.142 548.163L967.13 554.929L931.616 605.267ZM783.465 740.137L727.537 773.039L722.246 766.539L724.891 764.981L778.228 733.573L780.149 735.98L783.465 740.137ZM291.794 825.664L242.718 808.206L238.785 803.901L287.86 821.323L287.913 821.381L291.794 825.664ZM790.024 43.4308L789.238 44.0917L708.68 111.81L684.5 93.2483L757.053 18.712L790.024 43.4308ZM184.973 777.26L149.624 752.754L149.492 752.612L184.832 777.107L184.963 777.25L184.973 777.26ZM215.113 88.2447L252.816 58.9908L298.612 117.911L301.152 121.178L301.146 121.182L301.217 121.274L272.809 143.21L272.737 143.133L272.691 143.175L215.113 88.2447ZM486.848 -34.11L533.472 -38.1148L529.973 -21.3372L515.483 48.1387L515.096 48.1278L515.113 48.2642L480.573 50.9855L486.848 -34.11ZM466.559 837.151L407.023 837.922L401.92 832.169L411.067 832.043L461.079 831.355L461.103 831.461L461.534 831.408L462.555 832.576L466.559 837.151ZM193.505 506.603L211.826 528.314L211.45 528.385L212.217 529.063L181.405 554.957L134.021 594.778L109.06 564.532L193.505 506.603ZM304.552 121.771L334.974 102.569L383.295 176.833L407.936 214.702L407.822 214.759L407.903 214.862L387.601 227.529L304.552 121.771ZM342.464 7.7147L387.295 -10.154L404.08 68.7032L403.865 68.7649L403.911 68.8747L380.355 78.1345L370.332 82.0745L342.464 7.7147ZM407.01 70.274L441.387 60.4387L481.356 186.142L480.767 186.244L480.889 186.402L458.383 192.615L407.01 70.274ZM443.649 59.9194L478.432 53.5853L496.232 133.777L506.852 181.622L506.037 181.677L506.186 181.871L483.658 185.746L443.649 59.9194ZM1013.8 431.967L1009.27 425.611L1009.45 425.146L1009.32 425.092L1022.92 371.198L1027.47 377.669L1013.8 431.967ZM960.694 546.199L925.12 596.624L920.071 589.901L955.684 539.417L960.694 546.199ZM530.485 829.609L469.549 837.052L464.311 831.067L492.35 827.623L524.949 823.619L524.982 823.721L525.338 823.639L530.485 829.609ZM480.737 53.2957L515.413 50.5648L521.756 99.1577L532.294 179.904L509.188 181.464L480.737 53.2957ZM697.066 139.5L663.419 224.256L647.79 211.954L683.382 95.3085L707.315 113.682L697.066 139.5ZM1031.14 259.665L1028.13 255.298L1028.12 254.7L1027.98 254.676L1022.22 223.058L1019.31 207.142L1022.37 211.602L1031.14 259.665ZM958.526 539.369L957.089 537.424L957.311 537.11L957.198 537.039L985.742 484.577L990.634 491.33L961.973 544.034L958.526 539.369ZM881.782 645.757L876.634 639.046L901.444 611.061L918.565 591.75L923.656 598.529L881.782 645.757ZM880.151 647.433L832.693 690.615L827.476 683.939L844.697 668.263L874.982 640.697L878.181 644.865L880.151 647.433ZM274.401 144.906L302.647 123.095L359.262 195.189L385.624 228.761L385.617 228.766L385.691 228.859L366.746 243.355L274.401 144.906ZM587.128 56.3195L581.446 184.307L559.594 180.962L554.143 51.6881L587.128 56.3195ZM616.652 197.929L626.138 201.895L629.144 205.901L629.127 205.891L630.015 207.071L612.857 199.886L608.952 194.711L616.652 197.929ZM590.298 806.118L536.355 678.008L584.982 660.887L650.99 785.339L590.298 806.118ZM177.71 769.354L177.26 769.042L177.567 769.198L177.639 769.276L177.71 769.354ZM195.992 505.961L313.484 492.537L325.836 506.861L298.425 512.019L214.439 527.822L195.992 505.961ZM290.873 437.976L294.381 442.135L298.566 457.438L295.056 453.282L290.873 437.976ZM290.699 367.06L296.219 347.488L301.435 353.79L295.934 373.336L295.028 372.251L290.699 367.06ZM316.849 303.939L322.242 310.53L311.641 329.58L308.566 325.853L306.227 323.017L308.18 319.51L316.849 303.939ZM984.999 480.79L855.136 413.101L872.527 369.548L1006.47 426.397L984.999 480.79ZM292.928 436.822L289.478 432.731L287.343 415.447L291.655 420.584L293.801 437.857L293.037 436.951L292.927 436.82L292.928 436.822ZM434.644 207.142L438.227 211.708L416.797 222.373L411.407 215.561L432.867 204.878L434.644 207.142ZM473.964 201.319L489.194 197.124L494.416 203.86L471.727 210.092L466.497 203.376L473.964 201.319ZM604.765 193.004L609.139 198.802L589.914 193.454L585.537 187.679L604.765 193.004ZM655.362 220.861L663.087 226.942L664.337 228.614L653.919 220.401L652.683 218.752L655.362 220.861ZM1025.55 254.242L889.266 229.937L882.206 188.908L1016.22 203.07L1025.55 254.242ZM955.235 535.803L830.97 457.582L854.145 415.195L984.023 482.894L955.235 535.803ZM333.653 692.573L364.767 601.925L399.398 604.65L386.698 665.541L380.211 696.638L333.653 692.573ZM564.971 192.412L569.446 198.29L547.619 197.401L542.741 191.026L564.584 191.904L564.971 192.412ZM879.893 189.106L882.725 205.562L886.936 230.034L780.677 252.807L780.287 252.891L775.356 222.666L879.893 189.106ZM584.04 658.763L535.668 675.793L517.011 588.174L552.782 575.371L580.766 650.03L584.04 658.763ZM297.214 378.485L302.239 384.512L299.367 403.723L294.332 397.712L297.214 378.485ZM485.367 208.748L495.95 205.841L501.15 212.564L478.486 218.772L473.269 212.071L485.367 208.748ZM669.708 235.798L670.92 237.417L660.529 229.218L659.322 227.609L669.708 235.798ZM658.757 511.49L686.584 485.921L762.676 540.039L724.915 574.611L658.757 511.49ZM482.105 557.789L505.108 554.488L489.372 577.306L476.575 595.863L441.834 600.745L482.105 557.789ZM508.267 553.983L531.501 548.165L514.837 586.436L479.925 595.082L508.267 553.983ZM582.71 527.266L588.682 555.894L574.332 562.708L554.933 571.918L560.016 538.085L582.71 527.266ZM557.531 539.05L552.424 573.04L535.587 579.065L517.798 585.432L534.362 547.391L557.531 539.05ZM384.315 545.16L403.897 551.467L364.269 573.079L328.659 592.499L298.983 582.733L384.315 545.16ZM332.139 593.239L407.011 552.408L427.819 556.396L363.717 599.47L335.581 593.918L332.139 593.239ZM367.37 599.806L431.113 556.972L452.89 558.581L428.299 579.12L400.419 602.406L380.309 600.824L367.37 599.806ZM773.973 394.104L754.472 389.614L767.306 357.739L870.252 369.005L852.967 412.292L773.973 394.104ZM723.106 576.085L681.597 606.926L626.368 535.864L656.973 512.988L670.8 526.18L723.106 576.085ZM608.487 511.737L628.668 496.632L654.953 511.606L624.968 534.019L608.487 511.737ZM648.688 478.327L684.016 485.137L656.903 510.05L630.533 495.029L648.688 478.327ZM734.034 422.414L724.617 424.623L683.035 434.378L693.762 414.869L750.342 392.684L739.765 411.967L734.034 422.414ZM703.083 391.935L764.292 359.027L758.613 373.133L752.007 389.542L725.318 400.007L695.029 411.884L703.083 391.935ZM709.308 368.698L773.694 324.822L765.57 355.709L703.969 388.829L709.308 368.698ZM681.459 437.127L732.093 425.249L711.921 453.793L668.147 455.981L681.459 437.127ZM666.373 458.39L709.855 456.217L686.062 483.172L650.544 476.325L666.373 458.39ZM809.58 360.035L768.02 355.486L776.493 323.277L882.317 323.033L871.021 366.759L809.58 360.035ZM774.517 321.458L709.775 365.576L712.346 345.477L778.355 290.634L777.082 300.861L774.517 321.458ZM778.699 287.337L754.227 307.67L712.386 342.433L712.169 322.661L778.227 257.017L778.412 268.89L778.699 287.337ZM764.337 538.379L688.211 484.237L712.809 456.368L797.695 500.651L796.039 502.524L764.337 538.379ZM799.181 498.814L714.251 454.508L735.234 424.815L827.614 458.552L820.955 467.981L799.181 498.814ZM828.895 456.553L736.463 422.798L753.486 391.764L851.924 414.43L840.591 435.162L828.895 456.553ZM888.106 274.885L819.814 282.345L781.001 286.585L780.513 255.211L887.139 232.36L887.981 269.372L888.106 274.885ZM778.103 253.876L711.798 319.765L708.779 300.584L773.316 224.526L778.103 253.876ZM706.424 300.505L709.851 322.28L710.056 340.908L710.099 344.807L708.073 360.645L707.163 367.758L704.902 376.283L701.067 390.745L692.363 412.311L691.904 413.447L679.784 435.487L673.462 444.442L664.922 456.536L660.415 461.643L647.505 476.27L631.966 490.565L627.844 494.357L606.226 510.537L586.887 522.214L582.989 524.568L580.729 525.645L558.514 536.234L543.939 541.481L533.17 545.359L515.505 549.782L507.34 551.826L481.435 555.543L455.844 556.475L430.958 554.638L407.105 550.067L396.988 546.808L384.676 542.842L363.979 533.117L345.264 521.034L332.475 509.952L324.732 497.698L322.817 493.364L316.224 478.435L311.574 461.496L310.621 458.021L307.96 436.742L308.194 421.414L308.294 414.902L311.576 392.797L317.772 370.74L321.25 362.375L326.8 349.028L338.508 327.971L352.751 307.853L369.336 288.955L388.011 271.541L402.929 260.148L408.561 255.847L420.883 248.182L430.682 242.086L454.075 230.485L478.404 221.197L503.378 214.356L515.418 212.308L528.584 210.068L553.731 208.427L578.404 209.471L583.64 210.282L602.289 213.172L613.063 216.188L624.996 219.529L638.516 225.201L646.235 228.44L665.637 239.799L682.942 253.45L691.315 262.301L699.903 279.786L706.424 300.505ZM373.405 255.212L375.207 257.458L378.835 261.982L361.726 277.936L356.276 271.188L373.405 255.212ZM470.904 212.801L473.98 216.752L476.173 219.57L453.991 228.037L448.704 221.301L470.42 212.986L470.904 212.801ZM428.402 240.777L408.169 253.362L402.778 246.605L423.04 234L426.763 238.705L428.402 240.777ZM406.264 254.687L387.464 269.044L382.055 262.296L400.863 247.917L406.264 254.687ZM394.005 239.302L399.42 246.106L380.606 260.49L375.171 253.715L394.005 239.302ZM368.621 286.456L363.185 279.742L366.31 276.828L380.287 263.794L385.693 270.537L368.621 286.456ZM430.44 239.622L425.1 232.873L426.595 232.129L446.496 222.237L451.819 229.018L430.44 239.622ZM423.631 231.016L418.265 224.229L439.688 213.569L445.035 220.376L423.631 231.016ZM361.571 281.427L366.988 288.119L351.877 305.34L346.449 298.669L357.337 286.254L361.571 281.427ZM350.39 307.182L337.461 325.445L332.048 318.835L344.997 300.552L347.031 303.053L350.39 307.182ZM324.42 348.722L316.346 368.141L313.812 365.086L311.044 361.748L319.127 342.311L324.42 348.722ZM309.224 392.894L306.373 412.088L303.924 409.164L301.351 406.093L303.694 390.429L304.223 386.892L309.224 392.894ZM305.975 415.22L305.693 433.685L300.957 428.054L301.239 409.565L305.975 415.22ZM307.852 454.516L303.568 449.441L303.496 448.858L301.424 432.206L305.697 437.284L307.852 454.516ZM312.627 474.071L309.159 469.969L304.969 454.69L308.434 458.797L312.627 474.071ZM314.141 479.448L319.42 491.398L317.669 489.332L314.643 482.469L312.406 477.395L314.141 479.448ZM599.488 205.476L618.069 210.652L621.309 214.954L622.395 216.395L603.219 211.026L598.884 205.307L599.488 205.476ZM626.113 217.485L622.257 212.364L639.407 219.555L643.258 224.679L626.113 217.485ZM647.535 226.518L644.522 222.509L658.909 230.918L661.924 234.942L647.535 226.518ZM677.494 246.202L667.125 238.023L665.931 236.43L676.305 244.615L677.494 246.202ZM652.301 222.1L655.331 226.143L640.926 217.723L637.89 213.688L652.301 222.1ZM576.105 207.054L554.302 206.132L549.451 199.795L571.267 200.684L576.105 207.054ZM579.155 207.242L574.514 201.132L587.481 203.14L595.249 204.344L599.88 210.453L579.155 207.242ZM546.49 199.734L547.422 200.952L551.48 206.252L528.992 207.719L523.993 201.212L534.215 200.54L546.49 199.734ZM521.263 201.457L522.443 202.993L526.361 208.095L503.615 211.966L498.487 205.337L508.491 203.632L521.263 201.457ZM330.777 320.937L336.134 327.479L325.569 346.479L320.193 339.965L328.385 325.236L330.777 320.937ZM310.224 364.386L315.401 370.628L309.925 390.12L304.739 383.896L305.861 379.905L310.224 364.386ZM294.391 423.84L298.688 428.953L300.833 446.198L296.535 441.099L294.391 423.84ZM615.776 207.607L596.573 202.259L592.217 196.499L611.435 201.846L615.776 207.607ZM588.589 195.539L590.844 198.52L592.896 201.234L592.891 201.232L593.235 201.687L572.495 198.474L567.831 192.349L582.263 194.566L588.589 195.539ZM539.78 190.966L544.61 197.279L544.797 197.523L522.294 199.001L517.261 192.467L539.78 190.966ZM416.207 225.358L419.159 229.092L421.594 232.172L401.324 244.782L395.917 237.988L397.761 236.84L416.207 225.358ZM354.662 272.874L357.06 275.843L360.094 279.601L344.967 296.847L339.516 290.151L354.662 272.874ZM298.967 406.852L298.685 425.351L293.925 419.686L294.116 407.573L294.218 401.182L298.967 406.852ZM301.415 450.479L305.608 465.771L304.296 464.218L303.818 463.65L303.821 463.657L302.114 461.639L297.932 446.349L301.415 450.479ZM268.375 568.484L363.35 535.38L381.454 543.888L324.496 568.968L295.774 581.615L288.438 578.099L268.375 568.484ZM296.251 584.272L327.157 594.444L314.379 620.956L284.732 682.466L243.333 668.382L296.251 584.272ZM404.124 602.329L456.265 558.78L478.77 557.959L454.43 583.924L438.228 601.206L423.226 601.701L404.124 602.329ZM590.8 554.717L584.842 526.156L606.568 513.036L620.389 531.719L623.042 535.306L614.087 540.698L590.8 554.717ZM882.785 320.715L776.911 320.959L780.899 288.927L887.965 277.232L883.576 314.079L882.785 320.715ZM772.755 221.61L727.505 274.937L708.028 297.891L702.259 279.56L763.721 193.658L772.755 221.61ZM645.668 213.258L646.249 214.032L648.722 217.331L634.292 208.906L631.239 204.836L645.668 213.258ZM635.129 213.869L636.645 215.885L619.492 208.692L615.622 203.555L632.773 210.738L635.129 213.869ZM519.663 199.378L496.88 203.261L491.731 196.617L514.53 192.715L519.663 199.378ZM469.311 210.756L469.416 210.89L447.207 219.393L441.896 212.632L464.133 204.109L468.929 210.265L469.311 210.756ZM323.82 312.454L329.2 319.011L318.612 338.046L314.731 333.331L313.222 331.498L319.65 319.948L323.82 312.454ZM312.156 333.846L317.462 340.292L309.375 359.736L305.801 355.429L304.049 353.318L308.114 343.553L312.156 333.846ZM303.229 355.954L308.429 362.222L302.942 381.74L297.731 375.49L297.793 375.271L303.229 355.954ZM291.654 416.982L286.879 411.294L287.172 392.774L291.947 398.471L291.654 416.982ZM305.349 469.047L307.121 471.143L312.403 483.127L310.624 481.029L308.474 476.148L305.349 469.047ZM329.426 595.066L362.438 601.58L331.32 692.244L331.316 692.256L287.016 683.06L329.426 595.066ZM433.057 695.283L439.828 603.366L476.165 598.26L482.061 688.745L457.394 692.036L433.057 695.283ZM484.351 688.302L478.456 597.832L514.787 588.836L533.444 676.461L484.351 688.302ZM554.922 574.488L589.52 558.06L597.149 571.702L633.05 635.899L586.18 657.882L554.922 574.488ZM683.024 608.752L724.761 577.74L732.511 585.997L824.165 683.646L772.001 722.05L683.024 608.752ZM875.04 637.355L766.143 539.83L799.701 501.877L872.473 556.633L916.941 590.093L875.04 637.355ZM801.136 500.059L829.744 459.547L954.013 537.77L918.382 588.279L801.136 500.059ZM561.133 183.542L581.906 186.723L586.579 192.886L565.811 189.695L561.133 183.542ZM387.134 230.671L392.562 237.49L373.721 251.909L368.264 245.11L374.67 240.208L387.134 230.671ZM366.497 246.608L367.93 248.393L371.951 253.402L354.818 269.381L349.355 262.619L366.497 246.608ZM353.185 271.046L338.034 288.329L332.559 281.607L347.741 264.304L353.185 271.046ZM338.065 292.035L343.481 298.689L330.526 316.978L325.091 310.354L331.578 301.194L338.065 292.035ZM327.691 508.87L342.16 521.408L238.271 549.002L216.531 529.786L327.691 508.87ZM240.766 550.736L344.375 523.217L360.794 533.818L320.251 547.95L265.499 567.033L250.542 557.177L240.766 550.736ZM265.674 569.76L294.082 583.373L256.853 642.547L241.149 667.507L203.192 648.816L265.674 569.76ZM202.243 650.93L239.909 669.478L239.813 669.63L240.318 669.802L226.557 791.502L179.58 767.623L202.243 650.93ZM228.772 792.504L242.56 670.565L283.719 684.568L283.643 684.725L284.143 684.829L281.078 781.955L280.171 810.715L228.772 792.504ZM382.565 696.686L401.745 604.726L437.496 603.549L430.722 695.487L414.429 695.893L382.565 696.686ZM635.096 634.816L591.559 556.964L624.447 537.164L679.662 608.208L660.252 619.797L635.096 634.816ZM825.966 682.182L726.544 576.258L764.523 541.487L873.406 639L825.966 682.182ZM1007.17 424.177L962.779 405.337L873.261 367.343L884.62 323.366L1021.03 369.226L1007.17 424.177ZM1021.42 366.914L953.99 344.243L885.071 321.072L890.279 277.37L1027.5 312.329L1021.42 366.914ZM1027.55 309.952L989.474 300.25L890.423 275.015L889.452 232.323L1025.86 256.652L1027.55 309.952ZM1015.51 200.665L924.683 191.068L881.798 186.536L881.721 186.086L881.541 186.143L868.742 147.809L998.822 152.442L1015.51 200.665ZM537.904 188.512L538.089 188.757L515.56 190.258L510.512 183.698L533.06 182.175L534.012 183.42L537.904 188.512ZM457.326 195.391L458.378 196.737L462.643 202.199L440.399 210.725L435.073 203.94L449.731 198.308L457.326 195.391ZM305.161 325.363L310.491 331.824L302.381 351.304L297.041 344.852L305.161 325.363ZM298.294 460.702L300.075 462.811L305.351 474.798L305.019 474.405L303.565 472.686L303.305 472.095L298.294 460.702ZM286.442 685.307L299.299 687.976L330.557 694.466L330.504 694.623L330.975 694.664L331.704 708.837L337.604 823.566L282.463 811.412L286.442 685.307ZM462.897 828.906L433.206 697.6L482.211 691.062L482.22 691.198L482.512 691.128L524.229 821.373L462.897 828.906ZM866.417 148.156L879.339 186.85L774.8 220.411L765.54 191.763L866.417 148.156ZM762.768 191.013L701.167 277.108L692.721 259.916L749.649 164.903L754.153 173.866L762.768 191.013ZM557.888 183.099L560.471 186.496L562.518 189.188L562.763 189.512L540.91 188.633L536.017 182.232L552.133 182.871L557.888 183.099ZM495.277 186.098L507.783 183.947L512.782 190.443L512.93 190.637L490.122 194.542L484.957 187.873L495.277 186.098ZM482.422 188.381L487.536 194.984L487.659 195.144L464.955 201.399L459.69 194.657L470.421 191.695L482.422 188.381ZM409.349 216.691L414.76 223.529L394.466 236.165L389.046 229.356L400.115 222.451L409.349 216.691ZM331.108 283.491L336.548 290.172L323.57 308.497L319.105 303.041L318.12 301.837L329.158 286.245L331.108 283.491ZM290.18 370.052L295.231 376.107L292.347 395.344L287.286 389.307L288.486 381.322L290.18 370.052ZM301.956 474.492L311.995 490.374L194.312 503.821L179.402 479.652L301.956 474.492ZM238.131 551.773L263.65 568.588L230.861 610.074L201.153 647.661L167.142 624.695L238.131 551.773ZM176.997 768.782L176.984 768.85L142.304 744.811L142.166 744.662L151.053 750.816L176.997 768.782ZM186.306 775.291L183.463 772.195L188.201 774.603L226.28 793.959L226.267 794.075L226.86 794.285L229.652 797.338L186.306 775.291ZM246.505 801.245L280.094 813.146L280.091 813.26L280.668 813.387L284.575 817.698L235.46 800.262L231.499 795.929L246.505 801.245ZM339.94 823.97L333.301 694.867L379.735 698.921L379.703 699.076L380.129 699.065L391.585 782.689L398.031 829.748L339.94 823.97ZM400.383 829.873L382.456 699.006L430.551 697.81L430.54 697.956L430.904 697.907L460.556 829.044L400.383 829.873ZM484.767 690.584L533.927 678.727L533.953 678.852L534.167 678.777L543.393 700.687L588.051 806.745L526.534 820.984L484.767 690.584ZM714.067 756.321L636.294 636.798L681.098 610.047L738.715 683.413L770.057 723.322L714.067 756.321ZM778.716 730.474L773.44 723.866L825.683 685.405L830.904 692.084L778.716 730.474ZM986.968 482.323L987.183 481.929L987.062 481.866L1008.25 428.178L1013 434.838L991.698 488.852L986.968 482.323ZM1029.96 311.149L1030.02 310.58L1029.89 310.546L1028.27 259.578L1032.1 265.146L1033.76 316.625L1029.96 311.149ZM645.773 210.637L628.184 200.37L654.544 78.7214L681.385 93.9248L645.773 210.637ZM604.477 190.52L583.74 184.777L589.423 56.8037L620.819 65.0725L604.477 190.52ZM433.189 138.595L456.133 193.236L455.73 193.347L455.835 193.482L433.736 201.971L371.292 84.1868L404.808 71.011L433.189 138.595ZM354.844 234.049L364.981 244.856L347.762 260.939L246.927 170.516L272.633 146.404L354.844 234.049ZM346.152 262.605L330.883 280.008L222.501 198.262L245.313 172.179L346.152 262.605ZM294.313 345.718L288.901 364.907L288.658 364.615L288.481 365.794L280.845 363.219L161.054 322.825L169.748 292.65L294.313 345.718ZM284.893 390.549L284.608 408.588L284.088 407.969L284.376 410.295L154.892 387.41L155.63 357.623L284.893 390.549ZM284.673 412.7L286.749 429.509L285.871 428.455L286.811 431.891L227.271 425.805L158.322 418.756L155.036 389.788L284.673 412.7ZM293.245 454.971L300.833 472.221L178.129 477.386L166.971 451.238L293.245 454.971ZM166.032 626.741L199.714 649.483L199.599 649.628L200.091 649.87L177.479 766.299L135.53 737.251L166.032 626.741ZM325.806 823.338L337.727 825.966L337.733 826.079L338.276 826.133L342.764 831.135L289.13 819.276L284.573 814.249L325.806 823.338ZM626.228 796.265L652.089 787.411L652.139 787.504L652.326 787.418L653.314 788.607L657.556 793.71L596.97 814.419L591.631 808.111L626.228 796.265ZM653.158 784.486L587.13 659.996L634.248 637.896L652.245 665.556L712 757.389L653.158 784.486ZM1027.91 374.272L1025.08 370.254L1023.66 368.237L1023.8 367.712L1023.67 367.668L1029.57 314.644L1033.85 320.801L1027.91 374.272ZM1018.29 201.558L1018.18 200.947L1018.05 200.933L1003.59 159.131L1004.87 161.019L1019.55 203.387L1018.29 201.558ZM997.695 150.084L867.959 145.463L867.814 145.029L867.648 145.1L849.333 109.634L974.071 105.51L997.695 150.084ZM865.518 146.021L826.998 162.673L764.659 189.621L751.272 162.98L846.981 110.125L865.518 146.021ZM748.357 162.56L691.331 257.731L680.326 241.938L731.339 138.686L732.204 139.899L748.357 162.56ZM729.759 136.658L678.683 240.036L665.269 225.865L709.128 115.386L711.391 117.719L729.759 136.658ZM626.038 199.343L606.713 191.263L623.051 65.8438L652.409 77.6487L626.038 199.343ZM551.819 51.4756L554.356 111.668L557.269 180.756L534.621 179.858L517.741 50.5193L525.034 50.724L551.819 51.4756ZM369.172 85.129L431.56 202.808L431.316 202.901L431.407 203.016L410.021 213.663L336.994 101.431L369.172 85.129ZM221.064 200.08L264.99 233.209L329.449 281.827L316.6 299.98L316.483 299.837L316.25 300.255L201.45 227.76L221.064 200.08ZM315.122 302.283L304.646 321.101L304.503 320.928L304.251 321.533L184.033 258.636L200.213 229.717L315.122 302.283ZM160.564 325.104L288.132 368.122L285.303 386.94L284.958 386.529L284.932 388.167L155.817 355.28L160.564 325.104ZM158.82 421.136L287.466 434.286L291.515 449.101L289.723 446.968L292.211 452.624L259.061 451.643L166.095 448.893L158.82 421.136ZM135.633 596.448L213.971 530.614L235.582 549.716L235.173 549.824L236.163 550.476L223.437 563.548L165.294 623.273L135.633 596.448ZM346.592 831.934L341.691 826.473L365.803 828.87L398.355 832.107L398.37 832.217L398.863 832.21L403.679 837.641L346.592 831.934ZM533.198 829.21L527.886 823.049L536.357 821.089L588.965 808.913L589.006 809.01L589.28 808.916L589.999 809.766L594.487 815.069L533.198 829.21ZM720.766 764.722L715.449 758.195L728.55 750.473L771.5 725.16L771.567 725.244L771.574 725.239L776.768 731.744L720.766 764.722ZM628.803 -31.318L587.703 53.9552L587.238 53.8329L587.231 53.9939L554.479 49.395L584.191 -37.1818L628.803 -31.318ZM243.5 170.737L220.648 196.864L220.556 196.794L220.451 196.943L146.934 158.599L177.399 123.714L243.5 170.737ZM303.356 323.68L295.373 342.837L295.189 342.614L294.947 343.47L174.493 292.153L170.513 290.457L183.02 260.72L303.356 323.68ZM190.799 780.174L234.09 802.195L236.906 805.277L193.601 783.221L190.799 780.174ZM659.842 792.84L654.503 786.416L677.001 776.056L713.277 759.352L713.335 759.441L713.432 759.384L718.193 765.229L718.656 765.797L659.842 792.84ZM780.162 732.285L832.331 693.91L832.406 694.006L837.536 700.553L785.413 738.866L780.162 732.285ZM883.284 647.714L883.217 647.626L906.792 621.038L925.075 600.418L925.178 600.556L926.632 602.488L930.152 607.171L888.341 654.311L883.284 647.714ZM1039.01 324.161L1036.19 320.115L1034.53 268.67L1038.35 274.214L1040.03 325.633L1039.01 324.161ZM1037.39 268.734L1036.89 268.009L1034.34 264.315L1028.98 234.954L1025.57 216.293L1028.6 220.72L1037.39 268.734ZM1024.5 210.626L1018.14 192.269L1009.85 168.314L1011.11 170.161L1025.77 212.482L1024.5 210.626ZM845.754 108.158L843.129 109.608L750.082 160.991L732.785 136.727L821.965 75.5686L843.49 105.056L845.754 108.158ZM820.438 73.808L746.728 124.357L731.308 134.932L710.41 113.381L791.815 44.9512L820.438 73.808ZM755.045 17.4563L682.556 91.9258L655.492 76.5968L718.264 -2.83108L755.045 17.4563ZM673.79 -20.123L621.634 62.7758L621.145 62.5789L621.122 62.7568L589.983 54.5558L631.171 -30.9039L673.79 -20.123ZM581.795 -37.3266L552.145 49.0672L551.715 49.0069L551.721 49.1545L517.833 48.2048L535.859 -38.2259L581.795 -37.3266ZM145.454 160.438L219.099 198.851L199.748 226.158L199.49 226.522L199.386 226.457L199.272 226.661L126.212 199.988L119.209 197.431L145.454 160.438ZM77.4745 282.224L167.507 292.074L162.739 308.619L158.858 322.086L158.706 322.034L158.646 322.413L65.6741 322.632L77.4745 282.224ZM152.707 389.778L155.966 418.515L155.736 418.491L155.881 419.046L61.2392 449.425L57.0968 410.262L152.707 389.778ZM61.6263 451.734L156.469 421.29L160.885 438.14L163.685 448.822L163.422 448.815L163.68 449.42L71.1397 489.415L61.6263 451.734ZM71.8578 491.628L164.589 451.55L175.657 477.49L175.358 477.503L175.757 478.151L144.974 495.149L86.6852 527.333L71.8578 491.628ZM87.7246 529.406L176.974 480.124L191.771 504.111L191.436 504.149L192.005 504.824L107.72 562.644L87.7246 529.406ZM134.376 598.433L143.265 606.472L163.678 624.932L163.55 625.064L164.009 625.374L133.587 735.595L97.1624 701.886L134.376 598.433ZM353.762 839.917L348.891 834.494L362.745 835.878L405.944 840.195L405.995 840.253L410.263 845.058L410.794 845.657L353.762 839.917ZM471.395 839.161L532.304 831.721L537.47 837.725L476.607 845.108L471.395 839.161ZM603.892 822.6L598.577 816.319L659.141 795.618L664.402 801.953L603.892 822.6ZM839.325 699.085L834.124 692.443L881.565 649.278L886.711 655.988L839.325 699.085ZM998.081 497.658L993.739 491.669L993.308 491.076L1014.6 437.081L1019.34 443.706L998.081 497.658ZM1029.92 377.129L1035.86 323.683L1040.12 329.807L1034.21 383.224L1029.92 377.129ZM716.087 -3.80866L703.61 11.9782L653.375 75.5411L623.816 63.6538L676.088 -19.4284L716.087 -3.80866ZM484.503 -33.7627L479.628 32.3412L478.24 51.1693L477.902 51.1959L477.93 51.321L443.218 57.6431L437.833 -24.9525L484.503 -33.7627ZM435.551 -24.3835L440.926 58.0607L440.647 58.1116L440.684 58.2289L406.311 68.0647L389.497 -10.9267L435.551 -24.3835ZM340.354 8.68082L344.24 19.0507L368.178 82.9209L368.032 82.9784L368.087 83.0824L343.354 95.6125L335.788 99.4455L297.337 30.6868L340.354 8.68082ZM295.329 31.8362L333.721 100.493L333.647 100.531L333.71 100.628L303.118 119.937L254.715 57.6614L295.329 31.8362ZM213.336 89.7493L271 144.761L245.197 168.964L245.115 168.891L245.033 168.985L179.039 122.037L213.336 89.7493ZM117.914 199.425L198.126 228.709L189.123 244.8L181.981 257.562L181.863 257.501L181.753 257.763L96.2334 238.071L117.914 199.425ZM95.1545 240.199L180.841 259.931L176.513 270.222L168.384 289.551L168.251 289.494L168.158 289.814L155.708 288.452L78.3086 279.985L95.1545 240.199ZM158.281 324.731L155.727 340.964L153.564 354.706L153.389 354.662L153.378 355.1L58.5442 365.454L65.1139 324.951L158.281 324.731ZM58.2838 367.814L153.321 357.438L152.589 387.002L152.388 386.967L152.444 387.464L57.0383 407.904L58.2838 367.814ZM296.35 827.246L291.818 822.244L345.42 834.094L345.472 834.152L348.012 836.979L349.928 839.112L296.35 827.246ZM540.183 837.328L534.904 831.193L596.17 817.058L596.225 817.122L600.728 822.444L601.408 823.247L540.183 837.328ZM666.689 801.083L661.375 794.686L701.77 776.11L720.166 767.651L725.426 774.113L666.689 801.083ZM1020.13 440.836L1016.74 436.095L1015.56 434.439L1029.23 380.168L1033.77 386.624L1020.13 440.836ZM942.435 62.9693L972.5 103.243L848.154 107.354L847.945 106.948L847.796 107.03L824.363 74.927L942.435 62.9693ZM1031.98 221.557L1030.74 219.745L1020.7 190.781L1016.1 177.498L1017.32 179.29L1031.98 221.557ZM940.406 60.8459L822.78 72.7584L822.51 72.3872L822.379 72.4766L794.279 44.1468L904.532 25.398L940.406 60.8459ZM837.061 -3.31065L757.191 15.9224L756.814 15.6395L756.72 15.7356L720.892 -4.02705L812.69 -32.9542L858.085 -8.37331L837.061 -3.31065ZM809.293 -34.3128L757.09 -17.8626L718.089 -5.5728L717.666 -5.80655L717.589 -5.70927L707.561 -9.62495L678.785 -20.8615L760.294 -53.0844L809.293 -34.3128ZM717.648 -38.7167L675.614 -22.0991L675.148 -22.2813L675.087 -22.1846L633.905 -32.6021L704.663 -66.8904L756.491 -54.0731L717.648 -38.7167ZM642.273 -74.4058L611.699 -56.431L583.162 -39.6534L582.619 -39.7247L582.586 -39.6274L538.438 -40.492L587.122 -75.3075L642.273 -74.4058ZM571.795 -67.1939L534.561 -40.5678L533.986 -40.5791L533.966 -40.4832L489.158 -36.6345L526.887 -70.0051L582.631 -74.9429L571.795 -67.1939ZM516.142 -63.5921L485.288 -36.3025L484.686 -36.2505L484.679 -36.1537L478.709 -35.027L439.697 -27.662L466.809 -58.5596L522.476 -69.1951L516.142 -63.5921ZM294.522 29.3976L294.531 29.5207L294.145 29.7183L294.197 29.812L259.597 51.8137L253.321 55.8049L243.79 42.5845L293.172 11.1357L294.522 29.3976ZM241.897 43.9171L246.669 50.5372L251.364 57.0492L251.326 57.0731L251.395 57.1621L213.419 86.6281L213.347 86.5589L213.1 86.7912L196.088 79.4953L241.897 43.9171ZM150.367 122.39L174.743 123.237L144.822 157.497L144.736 157.451L144.417 157.901L113.896 164.163L150.367 122.39ZM111.445 167.032L124.862 164.279L142.453 160.67L116.955 196.608L116.86 196.574L116.583 197.067L80.1994 211.088L111.445 167.032ZM77.8399 214.48L114.806 200.235L105.018 217.682L93.8835 237.53L93.7821 237.506L93.5624 238.025L52.0535 260.396L77.8399 214.48ZM49.9962 264.135L92.1189 241.434L87.8314 251.559L75.907 279.722L75.7983 279.71L75.6424 280.243L29.9017 311.459L49.9962 264.135ZM28.2868 315.364L74.62 283.744L71.7322 293.632L63.2615 322.638L63.1449 322.638L63.0574 323.178L14.1195 363.596L28.2868 315.364ZM13.0143 367.513L62.4949 326.645L60.043 341.762L56.1581 365.714L56.0339 365.728L56.017 366.269L53.9328 368.306L5.01639 416.132L13.0143 367.513ZM4.44204 419.931L55.9133 369.607L54.8615 403.493L54.709 408.403L54.5766 408.432L54.633 408.966L34.0325 432.55L2.77406 468.335L4.44204 419.931ZM2.70742 471.929L54.9651 412.104L58.9898 450.147L58.8511 450.191L58.9824 450.711L7.52045 519.495L2.70742 471.929ZM7.92313 522.821L59.7115 453.6L68.9886 490.345L68.8457 490.407L69.0518 490.903L32.4498 548.279L19.279 568.925L7.92313 522.821ZM20.0985 571.943L70.1342 493.51L80.7317 519.03L84.6473 528.459L84.5022 528.539L84.7818 529.004L37.9654 615.922L20.0985 571.943ZM303.545 835.177L299.044 830.215L323.556 835.644L352.59 842.076L354.939 844.69L357.083 847.076L303.545 835.177ZM360.921 847.884L356.062 842.477L413.064 848.214L416.916 852.559L417.892 853.661L360.921 847.884ZM421.239 853.948L416.176 848.233L441.761 847.916L475.622 847.498L480.649 853.247L421.239 853.948ZM483.641 853.153L478.453 847.219L539.288 839.838L539.34 839.899L540.657 841.427L544.437 845.817L483.641 853.153ZM547.153 845.422L541.89 839.313L573.48 832.048L603.091 825.239L607.122 830.004L608.303 831.402L547.153 845.422ZM668.221 802.929L691.615 792.187L726.936 775.968L726.997 776.044L732.183 782.406L673.51 809.302L668.221 802.929ZM840.758 700.913L888.124 657.832L888.98 658.95L893.245 664.518L845.935 707.527L840.758 700.913ZM894.876 662.841L889.842 656.269L889.776 656.182L931.571 609.06L932.799 610.695L936.624 615.789L894.876 662.841ZM938.088 613.884L933.139 607.293L933.077 607.21L968.577 556.892L973.538 563.62L938.088 613.884ZM974.817 561.455L972.899 558.855L969.925 554.82L998.523 502.213L1003.37 508.903L974.817 561.455ZM999.749 499.958L999.693 499.88L1020.94 445.951L1025.65 452.56L1004.43 506.424L999.749 499.958ZM1040.48 392.14L1039.08 390.154L1036.22 386.083L1042.13 332.697L1046.35 338.786L1040.48 392.14Z" fill="url(#paint0_linear_267_1641)"/>
</g>
<defs>
<linearGradient id="paint0_linear_267_1641" x1="524.5" y1="-78" x2="524.5" y2="828.896" gradientUnits="userSpaceOnUse">
<stop stop-color="#0DC143"/>
<stop offset="1" stop-color="#0DC143" stop-opacity="0"/>
</linearGradient>
<clipPath id="clip0_267_1641">
<rect width="1049" height="934.564" fill="white" transform="translate(0 -78)"/>
</clipPath>
</defs>
</svg>
