<svg width="275" height="168" viewBox="0 0 275 168" fill="none" xmlns="http://www.w3.org/2000/svg">
<path d="M0 166.272V1.30859L37.3962 29.5341V138.046L37.296 138.121L0 166.272ZM0.501125 2.31325V165.267L36.8951 137.797V29.7835L0.501125 2.31325Z" fill="url(#paint0_linear_47_580)"/>
<path d="M9.07786 8.28467H8.57666V159.295H9.07786V8.28467Z" fill="url(#paint1_linear_47_580)"/>
<path d="M16.4001 13.811H15.8989V153.769H16.4001V13.811Z" fill="url(#paint2_linear_47_580)"/>
<path d="M22.7229 18.5835H22.2217V148.997H22.7229V18.5835Z" fill="url(#paint3_linear_47_580)"/>
<path d="M28.2389 22.7461H27.7378V144.833H28.2389V22.7461Z" fill="url(#paint4_linear_47_580)"/>
<path d="M33.0929 26.4102H32.5918V141.17H33.0929V26.4102Z" fill="url(#paint5_linear_47_580)"/>
<path d="M37.0032 127.849L0.129395 150.668L0.393356 151.095L37.2672 128.276L37.0032 127.849Z" fill="url(#paint6_linear_47_580)"/>
<path d="M0.359575 136.184L0.14209 135.733L37.0371 118.011L37.2546 118.462L0.359575 136.184Z" fill="url(#paint7_linear_47_580)"/>
<path d="M0.33126 121.29L0.169922 120.816L37.065 108.158L37.2263 108.631L0.33126 121.29Z" fill="url(#paint8_linear_47_580)"/>
<path d="M0.300909 106.393L0.200684 105.903L37.0957 98.3081L37.196 98.7982L0.300909 106.393Z" fill="url(#paint9_linear_47_580)"/>
<path d="M37.1286 88.4612L0.233398 90.9917L0.267688 91.4917L37.1628 88.9612L37.1286 88.4612Z" fill="url(#paint10_linear_47_580)"/>
<path d="M0.267693 76.0875L0.233398 76.5874L37.1285 79.1186L37.1628 78.6187L0.267693 76.0875Z" fill="url(#paint11_linear_47_580)"/>
<path d="M37.0957 69.2717L0.200684 61.6771L0.300909 61.187L37.196 68.7815L37.0957 69.2717Z" fill="url(#paint12_linear_47_580)"/>
<path d="M37.065 59.4214L0.169922 46.7631L0.33126 46.29L37.2263 58.9484L37.065 59.4214Z" fill="url(#paint13_linear_47_580)"/>
<path d="M37.0371 49.5681L0.14209 31.8466L0.359575 31.3955L37.2546 49.117L37.0371 49.5681Z" fill="url(#paint14_linear_47_580)"/>
<path d="M0.382242 16.5024L0.118652 16.9292L37.0137 39.7138L37.2773 39.287L0.382242 16.5024Z" fill="url(#paint15_linear_47_580)"/>
<path d="M51.8101 166.379V1.20068L52.2391 1.63461L79.7864 29.5559V138.024L79.7143 138.097L51.8101 166.379ZM52.3112 2.42061V165.159L79.2853 137.818V29.7612L52.3112 2.42061Z" fill="url(#paint16_linear_47_580)"/>
<path d="M58.6989 8.28418H58.1978V159.295H58.6989V8.28418Z" fill="url(#paint17_linear_47_580)"/>
<path d="M64.151 13.8105H63.6499V153.768H64.151V13.8105Z" fill="url(#paint18_linear_47_580)"/>
<path d="M68.8595 18.583H68.3584V148.996H68.8595V18.583Z" fill="url(#paint19_linear_47_580)"/>
<path d="M72.9674 22.7461H72.4663V144.833H72.9674V22.7461Z" fill="url(#paint20_linear_47_580)"/>
<path d="M76.5817 26.4097H76.0806V141.169H76.5817V26.4097Z" fill="url(#paint21_linear_47_580)"/>
<path d="M52.2207 151.056L51.9004 150.671L79.3755 127.887L79.6957 128.272L52.2207 151.056Z" fill="url(#paint22_linear_47_580)"/>
<path d="M79.3985 118.024L51.9263 135.75L52.1976 136.171L79.6698 118.445L79.3985 118.024Z" fill="url(#paint23_linear_47_580)"/>
<path d="M52.1658 121.28L51.9556 120.825L79.4308 108.167L79.641 108.622L52.1658 121.28Z" fill="url(#paint24_linear_47_580)"/>
<path d="M52.1281 106.389L51.9937 105.906L79.4688 98.3115L79.6033 98.7943L52.1281 106.389Z" fill="url(#paint25_linear_47_580)"/>
<path d="M79.5112 88.4482L52.0386 91.0059L52.085 91.5046L79.5577 88.9469L79.5112 88.4482Z" fill="url(#paint26_linear_47_580)"/>
<path d="M52.0835 76.0876L52.0376 76.5864L79.5127 79.1176L79.5586 78.6189L52.0835 76.0876Z" fill="url(#paint27_linear_47_580)"/>
<path d="M79.4688 69.2677L51.9937 61.6733L52.1281 61.1904L79.6033 68.785L79.4688 69.2677Z" fill="url(#paint28_linear_47_580)"/>
<path d="M79.4308 59.4117L51.9556 46.7534L52.1658 46.2988L79.641 58.957L79.4308 59.4117Z" fill="url(#paint29_linear_47_580)"/>
<path d="M52.1961 31.4105L51.9248 31.8311L79.4 49.5526L79.6712 49.132L52.1961 31.4105Z" fill="url(#paint30_linear_47_580)"/>
<path d="M79.3755 39.6927L51.9004 16.9079L52.2207 16.5229L79.6957 39.3077L79.3755 39.6927Z" fill="url(#paint31_linear_47_580)"/>
<path d="M93.0234 166.665V0.914551L110.402 29.5888V137.991L110.365 138.051L93.0234 166.665ZM93.5246 2.70645V164.873L109.9 137.851V29.7281L93.5246 2.70645Z" fill="url(#paint32_linear_47_580)"/>
<path d="M97.4478 8.28418H96.9468V159.295H97.4478V8.28418Z" fill="url(#paint33_linear_47_580)"/>
<path d="M100.797 13.8105H100.296V153.768H100.797V13.8105Z" fill="url(#paint34_linear_47_580)"/>
<path d="M103.69 18.583H103.189V148.996H103.69V18.583Z" fill="url(#paint35_linear_47_580)"/>
<path d="M106.213 22.7461H105.712V144.833H106.213V22.7461Z" fill="url(#paint36_linear_47_580)"/>
<path d="M108.434 26.4097H107.933V141.169H108.434V26.4097Z" fill="url(#paint37_linear_47_580)"/>
<path d="M109.939 127.922L93.082 150.722L93.4854 151.02L110.343 128.221L109.939 127.922Z" fill="url(#paint38_linear_47_580)"/>
<path d="M109.971 118.065L93.0923 135.785L93.4541 136.129L110.333 118.41L109.971 118.065Z" fill="url(#paint39_linear_47_580)"/>
<path d="M110 108.193L93.1245 120.854L93.4252 121.254L110.301 108.594L110 108.193Z" fill="url(#paint40_linear_47_580)"/>
<path d="M110.05 98.3287L93.1694 105.914L93.3748 106.371L110.256 98.7858L110.05 98.3287Z" fill="url(#paint41_linear_47_580)"/>
<path d="M93.3106 91.4892L93.2373 90.9942L110.114 88.4629L110.188 88.9579L93.3106 91.4892Z" fill="url(#paint42_linear_47_580)"/>
<path d="M110.114 79.1157L93.2373 76.5844L93.3106 76.0894L110.188 78.6207L110.114 79.1157Z" fill="url(#paint43_linear_47_580)"/>
<path d="M93.3771 61.2031L93.1714 61.6602L110.048 69.2547L110.254 68.7976L93.3771 61.2031Z" fill="url(#paint44_linear_47_580)"/>
<path d="M93.4243 46.3256L93.1235 46.7266L110 59.3848L110.301 58.9838L93.4243 46.3256Z" fill="url(#paint45_linear_47_580)"/>
<path d="M93.4551 31.4484L93.0933 31.793L109.97 49.5145L110.332 49.1699L93.4551 31.4484Z" fill="url(#paint46_linear_47_580)"/>
<path d="M93.4754 16.5662L93.0723 16.8647L109.949 39.6494L110.352 39.3508L93.4754 16.5662Z" fill="url(#paint47_linear_47_580)"/>
<path d="M122.854 167.58V0L131.204 29.6586L131.195 137.989L122.854 167.58ZM123.355 3.62148V163.958L130.703 137.886V29.6935L123.355 3.62148Z" fill="url(#paint48_linear_47_580)"/>
<path d="M125.18 8.28418H124.679V159.295H125.18V8.28418Z" fill="url(#paint49_linear_47_580)"/>
<path d="M126.737 13.811H126.236V153.769H126.737V13.811Z" fill="url(#paint50_linear_47_580)"/>
<path d="M128.083 18.583H127.582V148.996H128.083V18.583Z" fill="url(#paint51_linear_47_580)"/>
<path d="M129.256 22.7461H128.755V144.833H129.256V22.7461Z" fill="url(#paint52_linear_47_580)"/>
<path d="M130.289 26.4097H129.788V141.169H130.289V26.4097Z" fill="url(#paint53_linear_47_580)"/>
<path d="M123.341 150.945L122.867 150.782L130.717 127.998L131.191 128.16L123.341 150.945Z" fill="url(#paint54_linear_47_580)"/>
<path d="M130.732 118.139L122.869 135.854L123.326 136.057L131.189 118.341L130.732 118.139Z" fill="url(#paint55_linear_47_580)"/>
<path d="M130.745 108.265L122.888 120.918L123.313 121.183L131.171 108.529L130.745 108.265Z" fill="url(#paint56_linear_47_580)"/>
<path d="M130.784 98.3766L122.928 105.964L123.275 106.324L131.131 98.736L130.784 98.3766Z" fill="url(#paint57_linear_47_580)"/>
<path d="M130.877 88.471L123.028 91.0054L123.182 91.482L131.031 88.9477L130.877 88.471Z" fill="url(#paint58_linear_47_580)"/>
<path d="M123.182 76.0989L123.028 76.5757L130.877 79.107L131.031 78.6302L123.182 76.0989Z" fill="url(#paint59_linear_47_580)"/>
<path d="M123.279 61.2523L122.931 61.6113L130.78 69.2059L131.128 68.8468L123.279 61.2523Z" fill="url(#paint60_linear_47_580)"/>
<path d="M123.317 46.3944L122.892 46.6582L130.741 59.3165L131.166 59.0526L123.317 46.3944Z" fill="url(#paint61_linear_47_580)"/>
<path d="M123.333 31.5196L122.876 31.7222L130.725 49.4436L131.183 49.2411L123.333 31.5196Z" fill="url(#paint62_linear_47_580)"/>
<path d="M130.717 39.5816L122.867 16.7969L123.341 16.6343L131.191 39.419L130.717 39.5816Z" fill="url(#paint63_linear_47_580)"/>
<path d="M274.6 166.272L237.204 138.046V29.5341L237.304 29.459L274.6 1.30859V166.272ZM237.705 137.797L274.099 165.267V2.31325L237.705 29.7835V137.797Z" fill="url(#paint64_linear_47_580)"/>
<path d="M266.022 8.28467H265.521V159.295H266.022V8.28467Z" fill="url(#paint65_linear_47_580)"/>
<path d="M258.701 13.811H258.2V153.769H258.701V13.811Z" fill="url(#paint66_linear_47_580)"/>
<path d="M252.378 18.5835H251.877V148.997H252.378V18.5835Z" fill="url(#paint67_linear_47_580)"/>
<path d="M246.862 22.7461H246.361V144.833H246.862V22.7461Z" fill="url(#paint68_linear_47_580)"/>
<path d="M242.008 26.4102H241.507V141.17H242.008V26.4102Z" fill="url(#paint69_linear_47_580)"/>
<path d="M274.205 16.4813L237.335 39.3081L237.6 39.7347L274.469 16.9079L274.205 16.4813Z" fill="url(#paint70_linear_47_580)"/>
<path d="M237.563 49.5681L237.345 49.117L274.24 31.3955L274.458 31.8466L237.563 49.5681Z" fill="url(#paint71_linear_47_580)"/>
<path d="M237.535 59.4214L237.374 58.9484L274.269 46.29L274.43 46.7631L237.535 59.4214Z" fill="url(#paint72_linear_47_580)"/>
<path d="M237.504 69.2717L237.404 68.7815L274.299 61.187L274.4 61.6771L237.504 69.2717Z" fill="url(#paint73_linear_47_580)"/>
<path d="M274.332 76.0883L237.437 78.6177L237.471 79.1176L274.366 76.5882L274.332 76.0883Z" fill="url(#paint74_linear_47_580)"/>
<path d="M237.471 88.461L237.437 88.9609L274.332 91.4923L274.366 90.9923L237.471 88.461Z" fill="url(#paint75_linear_47_580)"/>
<path d="M274.299 106.393L237.404 98.7982L237.504 98.3081L274.4 105.903L274.299 106.393Z" fill="url(#paint76_linear_47_580)"/>
<path d="M274.269 121.29L237.374 108.631L237.535 108.158L274.43 120.816L274.269 121.29Z" fill="url(#paint77_linear_47_580)"/>
<path d="M274.24 136.184L237.345 118.462L237.563 118.011L274.458 135.733L274.24 136.184Z" fill="url(#paint78_linear_47_580)"/>
<path d="M237.586 127.866L237.323 128.292L274.218 151.077L274.481 150.65L237.586 127.866Z" fill="url(#paint79_linear_47_580)"/>
<path d="M222.789 166.379L222.36 165.945L194.813 138.024V29.5559L194.885 29.4825L222.789 1.20068V166.379ZM195.314 137.818L222.288 165.159V2.42061L195.314 29.7612V137.818Z" fill="url(#paint80_linear_47_580)"/>
<path d="M216.402 8.28418H215.9V159.295H216.402V8.28418Z" fill="url(#paint81_linear_47_580)"/>
<path d="M210.949 13.8105H210.448V153.768H210.949V13.8105Z" fill="url(#paint82_linear_47_580)"/>
<path d="M206.241 18.583H205.74V148.996H206.241V18.583Z" fill="url(#paint83_linear_47_580)"/>
<path d="M202.133 22.7461H201.632V144.833H202.133V22.7461Z" fill="url(#paint84_linear_47_580)"/>
<path d="M198.519 26.4097H198.018V141.169H198.519V26.4097Z" fill="url(#paint85_linear_47_580)"/>
<path d="M195.224 39.6927L194.903 39.3077L222.379 16.5229L222.699 16.9079L195.224 39.6927Z" fill="url(#paint86_linear_47_580)"/>
<path d="M222.401 31.4082L194.93 49.1353L195.201 49.5557L222.672 31.8287L222.401 31.4082Z" fill="url(#paint87_linear_47_580)"/>
<path d="M195.169 59.4117L194.958 58.957L222.434 46.2988L222.644 46.7534L195.169 59.4117Z" fill="url(#paint88_linear_47_580)"/>
<path d="M195.131 69.2677L194.996 68.785L222.471 61.1904L222.606 61.6733L195.131 69.2677Z" fill="url(#paint89_linear_47_580)"/>
<path d="M222.514 76.0747L195.042 78.6318L195.088 79.1305L222.561 76.5734L222.514 76.0747Z" fill="url(#paint90_linear_47_580)"/>
<path d="M195.086 88.4613L195.041 88.96L222.516 91.4913L222.562 90.9926L195.086 88.4613Z" fill="url(#paint91_linear_47_580)"/>
<path d="M222.471 106.389L194.996 98.7943L195.131 98.3115L222.606 105.906L222.471 106.389Z" fill="url(#paint92_linear_47_580)"/>
<path d="M222.434 121.28L194.958 108.622L195.169 108.167L222.644 120.825L222.434 121.28Z" fill="url(#paint93_linear_47_580)"/>
<path d="M195.199 118.027L194.928 118.447L222.403 136.169L222.674 135.748L195.199 118.027Z" fill="url(#paint94_linear_47_580)"/>
<path d="M222.379 151.056L194.903 128.272L195.224 127.887L222.699 150.671L222.379 151.056Z" fill="url(#paint95_linear_47_580)"/>
<path d="M181.576 166.665L164.197 137.991V29.5888L164.233 29.5288L181.576 0.914551V166.665ZM164.698 137.851L181.075 164.873V2.70645L164.698 29.7281V137.851Z" fill="url(#paint96_linear_47_580)"/>
<path d="M177.652 8.28418H177.151V159.295H177.652V8.28418Z" fill="url(#paint97_linear_47_580)"/>
<path d="M174.304 13.8105H173.803V153.768H174.304V13.8105Z" fill="url(#paint98_linear_47_580)"/>
<path d="M171.411 18.583H170.91V148.996H171.411V18.583Z" fill="url(#paint99_linear_47_580)"/>
<path d="M168.888 22.7461H168.387V144.833H168.888V22.7461Z" fill="url(#paint100_linear_47_580)"/>
<path d="M166.667 26.4097H166.166V141.169H166.667V26.4097Z" fill="url(#paint101_linear_47_580)"/>
<path d="M181.114 16.5585L164.256 39.3584L164.659 39.6566L181.517 16.8567L181.114 16.5585Z" fill="url(#paint102_linear_47_580)"/>
<path d="M181.146 31.4493L164.266 49.1689L164.627 49.5136L181.507 31.7939L181.146 31.4493Z" fill="url(#paint103_linear_47_580)"/>
<path d="M181.174 46.3243L164.298 58.9854L164.599 59.3862L181.475 46.7252L181.174 46.3243Z" fill="url(#paint104_linear_47_580)"/>
<path d="M181.225 61.2084L164.342 68.7925L164.548 69.2496L181.431 61.6655L181.225 61.2084Z" fill="url(#paint105_linear_47_580)"/>
<path d="M164.484 79.1157L164.411 78.6207L181.289 76.0894L181.362 76.5844L164.484 79.1157Z" fill="url(#paint106_linear_47_580)"/>
<path d="M181.289 91.4892L164.411 88.9579L164.484 88.4629L181.362 90.9942L181.289 91.4892Z" fill="url(#paint107_linear_47_580)"/>
<path d="M164.55 98.3243L164.344 98.7812L181.222 106.376L181.428 105.919L164.55 98.3243Z" fill="url(#paint108_linear_47_580)"/>
<path d="M164.598 108.194L164.297 108.595L181.175 121.253L181.476 120.852L164.598 108.194Z" fill="url(#paint109_linear_47_580)"/>
<path d="M164.628 118.064L164.267 118.409L181.145 136.13L181.507 135.786L164.628 118.064Z" fill="url(#paint110_linear_47_580)"/>
<path d="M164.649 127.929L164.246 128.228L181.124 151.013L181.527 150.714L164.649 127.929Z" fill="url(#paint111_linear_47_580)"/>
<path d="M151.746 167.58L143.394 137.921L143.404 29.5909L151.746 0V167.58ZM143.895 137.886L151.245 163.958V3.62148L143.895 29.6935V137.886Z" fill="url(#paint112_linear_47_580)"/>
<path d="M149.921 8.28418H149.42V159.295H149.921V8.28418Z" fill="url(#paint113_linear_47_580)"/>
<path d="M148.363 13.811H147.861V153.769H148.363V13.811Z" fill="url(#paint114_linear_47_580)"/>
<path d="M147.018 18.583H146.517V148.996H147.018V18.583Z" fill="url(#paint115_linear_47_580)"/>
<path d="M145.844 22.7461H145.343V144.833H145.844V22.7461Z" fill="url(#paint116_linear_47_580)"/>
<path d="M144.812 26.4097H144.311V141.169H144.812V26.4097Z" fill="url(#paint117_linear_47_580)"/>
<path d="M143.882 39.5816L143.407 39.419L151.258 16.6343L151.732 16.7969L143.882 39.5816Z" fill="url(#paint118_linear_47_580)"/>
<path d="M151.274 31.5231L143.408 49.2378L143.865 49.4408L151.731 31.726L151.274 31.5231Z" fill="url(#paint119_linear_47_580)"/>
<path d="M151.283 46.3951L143.43 59.0518L143.856 59.3157L151.709 46.659L151.283 46.3951Z" fill="url(#paint120_linear_47_580)"/>
<path d="M151.324 61.2549L143.468 68.8433L143.815 69.2026L151.671 61.6143L151.324 61.2549Z" fill="url(#paint121_linear_47_580)"/>
<path d="M151.417 76.0965L143.568 78.6328L143.722 79.1095L151.571 76.5732L151.417 76.0965Z" fill="url(#paint122_linear_47_580)"/>
<path d="M143.721 88.4725L143.567 88.9492L151.418 91.4805L151.572 91.0038L143.721 88.4725Z" fill="url(#paint123_linear_47_580)"/>
<path d="M143.818 98.3733L143.471 98.7324L151.321 106.327L151.669 105.968L143.818 98.3733Z" fill="url(#paint124_linear_47_580)"/>
<path d="M143.857 108.263L143.432 108.526L151.282 121.185L151.708 120.921L143.857 108.263Z" fill="url(#paint125_linear_47_580)"/>
<path d="M143.873 118.135L143.416 118.338L151.267 136.059L151.724 135.857L143.873 118.135Z" fill="url(#paint126_linear_47_580)"/>
<path d="M151.258 150.945L143.407 128.16L143.882 127.998L151.732 150.782L151.258 150.945Z" fill="url(#paint127_linear_47_580)"/>
<defs>
<linearGradient id="paint0_linear_47_580" x1="18.6981" y1="1.30859" x2="18.6981" y2="161.388" gradientUnits="userSpaceOnUse">
<stop stop-color="#0DC143"/>
<stop offset="1" stop-color="#0DC143" stop-opacity="0"/>
</linearGradient>
<linearGradient id="paint1_linear_47_580" x1="8.82726" y1="8.28467" x2="8.82726" y2="154.824" gradientUnits="userSpaceOnUse">
<stop stop-color="#0DC143"/>
<stop offset="1" stop-color="#0DC143" stop-opacity="0"/>
</linearGradient>
<linearGradient id="paint2_linear_47_580" x1="16.1495" y1="13.811" x2="16.1495" y2="149.625" gradientUnits="userSpaceOnUse">
<stop stop-color="#0DC143"/>
<stop offset="1" stop-color="#0DC143" stop-opacity="0"/>
</linearGradient>
<linearGradient id="paint3_linear_47_580" x1="22.4723" y1="18.5835" x2="22.4723" y2="145.136" gradientUnits="userSpaceOnUse">
<stop stop-color="#0DC143"/>
<stop offset="1" stop-color="#0DC143" stop-opacity="0"/>
</linearGradient>
<linearGradient id="paint4_linear_47_580" x1="27.9884" y1="22.7461" x2="27.9884" y2="141.219" gradientUnits="userSpaceOnUse">
<stop stop-color="#0DC143"/>
<stop offset="1" stop-color="#0DC143" stop-opacity="0"/>
</linearGradient>
<linearGradient id="paint5_linear_47_580" x1="32.8424" y1="26.4102" x2="32.8424" y2="137.772" gradientUnits="userSpaceOnUse">
<stop stop-color="#0DC143"/>
<stop offset="1" stop-color="#0DC143" stop-opacity="0"/>
</linearGradient>
<linearGradient id="paint6_linear_47_580" x1="18.5663" y1="139.259" x2="18.8225" y2="139.672" gradientUnits="userSpaceOnUse">
<stop stop-color="#0DC143"/>
<stop offset="1" stop-color="#0DC143" stop-opacity="0"/>
</linearGradient>
<linearGradient id="paint7_linear_47_580" x1="18.6984" y1="118.011" x2="18.6984" y2="135.646" gradientUnits="userSpaceOnUse">
<stop stop-color="#0DC143"/>
<stop offset="1" stop-color="#0DC143" stop-opacity="0"/>
</linearGradient>
<linearGradient id="paint8_linear_47_580" x1="18.6981" y1="108.158" x2="18.6981" y2="120.901" gradientUnits="userSpaceOnUse">
<stop stop-color="#0DC143"/>
<stop offset="1" stop-color="#0DC143" stop-opacity="0"/>
</linearGradient>
<linearGradient id="paint9_linear_47_580" x1="18.6983" y1="98.3081" x2="18.6983" y2="106.153" gradientUnits="userSpaceOnUse">
<stop stop-color="#0DC143"/>
<stop offset="1" stop-color="#0DC143" stop-opacity="0"/>
</linearGradient>
<linearGradient id="paint10_linear_47_580" x1="18.681" y1="89.7265" x2="18.7143" y2="90.2116" gradientUnits="userSpaceOnUse">
<stop stop-color="#0DC143"/>
<stop offset="1" stop-color="#0DC143" stop-opacity="0"/>
</linearGradient>
<linearGradient id="paint11_linear_47_580" x1="0.250546" y1="76.3375" x2="36.0534" y2="78.7937" gradientUnits="userSpaceOnUse">
<stop stop-color="#0DC143"/>
<stop offset="1" stop-color="#0DC143" stop-opacity="0"/>
</linearGradient>
<linearGradient id="paint12_linear_47_580" x1="18.6983" y1="61.187" x2="18.6983" y2="69.0323" gradientUnits="userSpaceOnUse">
<stop stop-color="#0DC143"/>
<stop offset="1" stop-color="#0DC143" stop-opacity="0"/>
</linearGradient>
<linearGradient id="paint13_linear_47_580" x1="18.6981" y1="46.29" x2="18.6981" y2="59.0326" gradientUnits="userSpaceOnUse">
<stop stop-color="#0DC143"/>
<stop offset="1" stop-color="#0DC143" stop-opacity="0"/>
</linearGradient>
<linearGradient id="paint14_linear_47_580" x1="18.6984" y1="31.3955" x2="18.6984" y2="49.0301" gradientUnits="userSpaceOnUse">
<stop stop-color="#0DC143"/>
<stop offset="1" stop-color="#0DC143" stop-opacity="0"/>
</linearGradient>
<linearGradient id="paint15_linear_47_580" x1="0.250447" y1="16.7158" x2="36.0532" y2="38.8259" gradientUnits="userSpaceOnUse">
<stop stop-color="#0DC143"/>
<stop offset="1" stop-color="#0DC143" stop-opacity="0"/>
</linearGradient>
<linearGradient id="paint16_linear_47_580" x1="65.7982" y1="1.20068" x2="65.7982" y2="161.489" gradientUnits="userSpaceOnUse">
<stop stop-color="#0DC143"/>
<stop offset="1" stop-color="#0DC143" stop-opacity="0"/>
</linearGradient>
<linearGradient id="paint17_linear_47_580" x1="58.4483" y1="8.28418" x2="58.4483" y2="154.824" gradientUnits="userSpaceOnUse">
<stop stop-color="#0DC143"/>
<stop offset="1" stop-color="#0DC143" stop-opacity="0"/>
</linearGradient>
<linearGradient id="paint18_linear_47_580" x1="63.9005" y1="13.8105" x2="63.9005" y2="149.625" gradientUnits="userSpaceOnUse">
<stop stop-color="#0DC143"/>
<stop offset="1" stop-color="#0DC143" stop-opacity="0"/>
</linearGradient>
<linearGradient id="paint19_linear_47_580" x1="68.609" y1="18.583" x2="68.609" y2="145.135" gradientUnits="userSpaceOnUse">
<stop stop-color="#0DC143"/>
<stop offset="1" stop-color="#0DC143" stop-opacity="0"/>
</linearGradient>
<linearGradient id="paint20_linear_47_580" x1="72.7169" y1="22.7461" x2="72.7169" y2="141.219" gradientUnits="userSpaceOnUse">
<stop stop-color="#0DC143"/>
<stop offset="1" stop-color="#0DC143" stop-opacity="0"/>
</linearGradient>
<linearGradient id="paint21_linear_47_580" x1="76.3311" y1="26.4097" x2="76.3311" y2="137.772" gradientUnits="userSpaceOnUse">
<stop stop-color="#0DC143"/>
<stop offset="1" stop-color="#0DC143" stop-opacity="0"/>
</linearGradient>
<linearGradient id="paint22_linear_47_580" x1="65.7981" y1="127.887" x2="65.7981" y2="150.37" gradientUnits="userSpaceOnUse">
<stop stop-color="#0DC143"/>
<stop offset="1" stop-color="#0DC143" stop-opacity="0"/>
</linearGradient>
<linearGradient id="paint23_linear_47_580" x1="65.6624" y1="126.887" x2="65.9257" y2="127.296" gradientUnits="userSpaceOnUse">
<stop stop-color="#0DC143"/>
<stop offset="1" stop-color="#0DC143" stop-opacity="0"/>
</linearGradient>
<linearGradient id="paint24_linear_47_580" x1="65.7983" y1="108.167" x2="65.7983" y2="120.892" gradientUnits="userSpaceOnUse">
<stop stop-color="#0DC143"/>
<stop offset="1" stop-color="#0DC143" stop-opacity="0"/>
</linearGradient>
<linearGradient id="paint25_linear_47_580" x1="65.7985" y1="98.3115" x2="65.7985" y2="106.15" gradientUnits="userSpaceOnUse">
<stop stop-color="#0DC143"/>
<stop offset="1" stop-color="#0DC143" stop-opacity="0"/>
</linearGradient>
<linearGradient id="paint26_linear_47_580" x1="65.7749" y1="89.727" x2="65.82" y2="90.2109" gradientUnits="userSpaceOnUse">
<stop stop-color="#0DC143"/>
<stop offset="1" stop-color="#0DC143" stop-opacity="0"/>
</linearGradient>
<linearGradient id="paint27_linear_47_580" x1="52.0606" y1="76.337" x2="78.7222" y2="78.7933" gradientUnits="userSpaceOnUse">
<stop stop-color="#0DC143"/>
<stop offset="1" stop-color="#0DC143" stop-opacity="0"/>
</linearGradient>
<linearGradient id="paint28_linear_47_580" x1="65.7985" y1="61.1904" x2="65.7985" y2="69.0286" gradientUnits="userSpaceOnUse">
<stop stop-color="#0DC143"/>
<stop offset="1" stop-color="#0DC143" stop-opacity="0"/>
</linearGradient>
<linearGradient id="paint29_linear_47_580" x1="65.7983" y1="46.2988" x2="65.7983" y2="59.0235" gradientUnits="userSpaceOnUse">
<stop stop-color="#0DC143"/>
<stop offset="1" stop-color="#0DC143" stop-opacity="0"/>
</linearGradient>
<linearGradient id="paint30_linear_47_580" x1="52.0604" y1="31.6208" x2="78.7222" y2="48.8176" gradientUnits="userSpaceOnUse">
<stop stop-color="#0DC143"/>
<stop offset="1" stop-color="#0DC143" stop-opacity="0"/>
</linearGradient>
<linearGradient id="paint31_linear_47_580" x1="65.7981" y1="16.5229" x2="65.7981" y2="39.0067" gradientUnits="userSpaceOnUse">
<stop stop-color="#0DC143"/>
<stop offset="1" stop-color="#0DC143" stop-opacity="0"/>
</linearGradient>
<linearGradient id="paint32_linear_47_580" x1="101.713" y1="0.914551" x2="101.713" y2="161.758" gradientUnits="userSpaceOnUse">
<stop stop-color="#0DC143"/>
<stop offset="1" stop-color="#0DC143" stop-opacity="0"/>
</linearGradient>
<linearGradient id="paint33_linear_47_580" x1="97.1973" y1="8.28418" x2="97.1973" y2="154.824" gradientUnits="userSpaceOnUse">
<stop stop-color="#0DC143"/>
<stop offset="1" stop-color="#0DC143" stop-opacity="0"/>
</linearGradient>
<linearGradient id="paint34_linear_47_580" x1="100.546" y1="13.8105" x2="100.546" y2="149.625" gradientUnits="userSpaceOnUse">
<stop stop-color="#0DC143"/>
<stop offset="1" stop-color="#0DC143" stop-opacity="0"/>
</linearGradient>
<linearGradient id="paint35_linear_47_580" x1="103.44" y1="18.583" x2="103.44" y2="145.135" gradientUnits="userSpaceOnUse">
<stop stop-color="#0DC143"/>
<stop offset="1" stop-color="#0DC143" stop-opacity="0"/>
</linearGradient>
<linearGradient id="paint36_linear_47_580" x1="105.962" y1="22.7461" x2="105.962" y2="141.219" gradientUnits="userSpaceOnUse">
<stop stop-color="#0DC143"/>
<stop offset="1" stop-color="#0DC143" stop-opacity="0"/>
</linearGradient>
<linearGradient id="paint37_linear_47_580" x1="108.183" y1="26.4097" x2="108.183" y2="137.772" gradientUnits="userSpaceOnUse">
<stop stop-color="#0DC143"/>
<stop offset="1" stop-color="#0DC143" stop-opacity="0"/>
</linearGradient>
<linearGradient id="paint38_linear_47_580" x1="101.511" y1="139.322" x2="101.902" y2="139.611" gradientUnits="userSpaceOnUse">
<stop stop-color="#0DC143"/>
<stop offset="1" stop-color="#0DC143" stop-opacity="0"/>
</linearGradient>
<linearGradient id="paint39_linear_47_580" x1="101.532" y1="126.925" x2="101.883" y2="127.259" gradientUnits="userSpaceOnUse">
<stop stop-color="#0DC143"/>
<stop offset="1" stop-color="#0DC143" stop-opacity="0"/>
</linearGradient>
<linearGradient id="paint40_linear_47_580" x1="101.562" y1="114.523" x2="101.854" y2="114.912" gradientUnits="userSpaceOnUse">
<stop stop-color="#0DC143"/>
<stop offset="1" stop-color="#0DC143" stop-opacity="0"/>
</linearGradient>
<linearGradient id="paint41_linear_47_580" x1="101.61" y1="102.121" x2="101.809" y2="102.565" gradientUnits="userSpaceOnUse">
<stop stop-color="#0DC143"/>
<stop offset="1" stop-color="#0DC143" stop-opacity="0"/>
</linearGradient>
<linearGradient id="paint42_linear_47_580" x1="101.712" y1="88.4629" x2="101.712" y2="91.3996" gradientUnits="userSpaceOnUse">
<stop stop-color="#0DC143"/>
<stop offset="1" stop-color="#0DC143" stop-opacity="0"/>
</linearGradient>
<linearGradient id="paint43_linear_47_580" x1="101.712" y1="76.0894" x2="101.712" y2="79.0261" gradientUnits="userSpaceOnUse">
<stop stop-color="#0DC143"/>
<stop offset="1" stop-color="#0DC143" stop-opacity="0"/>
</linearGradient>
<linearGradient id="paint44_linear_47_580" x1="93.2742" y1="61.4316" x2="109.651" y2="68.8013" gradientUnits="userSpaceOnUse">
<stop stop-color="#0DC143"/>
<stop offset="1" stop-color="#0DC143" stop-opacity="0"/>
</linearGradient>
<linearGradient id="paint45_linear_47_580" x1="93.2739" y1="46.5261" x2="109.651" y2="58.8095" gradientUnits="userSpaceOnUse">
<stop stop-color="#0DC143"/>
<stop offset="1" stop-color="#0DC143" stop-opacity="0"/>
</linearGradient>
<linearGradient id="paint46_linear_47_580" x1="93.2742" y1="31.6207" x2="109.651" y2="48.8175" gradientUnits="userSpaceOnUse">
<stop stop-color="#0DC143"/>
<stop offset="1" stop-color="#0DC143" stop-opacity="0"/>
</linearGradient>
<linearGradient id="paint47_linear_47_580" x1="93.2738" y1="16.7154" x2="109.651" y2="38.8256" gradientUnits="userSpaceOnUse">
<stop stop-color="#0DC143"/>
<stop offset="1" stop-color="#0DC143" stop-opacity="0"/>
</linearGradient>
<linearGradient id="paint48_linear_47_580" x1="127.029" y1="0" x2="127.029" y2="162.619" gradientUnits="userSpaceOnUse">
<stop stop-color="#0DC143"/>
<stop offset="1" stop-color="#0DC143" stop-opacity="0"/>
</linearGradient>
<linearGradient id="paint49_linear_47_580" x1="124.929" y1="8.28418" x2="124.929" y2="154.824" gradientUnits="userSpaceOnUse">
<stop stop-color="#0DC143"/>
<stop offset="1" stop-color="#0DC143" stop-opacity="0"/>
</linearGradient>
<linearGradient id="paint50_linear_47_580" x1="126.486" y1="13.811" x2="126.486" y2="149.625" gradientUnits="userSpaceOnUse">
<stop stop-color="#0DC143"/>
<stop offset="1" stop-color="#0DC143" stop-opacity="0"/>
</linearGradient>
<linearGradient id="paint51_linear_47_580" x1="127.832" y1="18.583" x2="127.832" y2="145.135" gradientUnits="userSpaceOnUse">
<stop stop-color="#0DC143"/>
<stop offset="1" stop-color="#0DC143" stop-opacity="0"/>
</linearGradient>
<linearGradient id="paint52_linear_47_580" x1="129.005" y1="22.7461" x2="129.005" y2="141.219" gradientUnits="userSpaceOnUse">
<stop stop-color="#0DC143"/>
<stop offset="1" stop-color="#0DC143" stop-opacity="0"/>
</linearGradient>
<linearGradient id="paint53_linear_47_580" x1="130.038" y1="26.4097" x2="130.038" y2="137.772" gradientUnits="userSpaceOnUse">
<stop stop-color="#0DC143"/>
<stop offset="1" stop-color="#0DC143" stop-opacity="0"/>
</linearGradient>
<linearGradient id="paint54_linear_47_580" x1="127.029" y1="127.998" x2="127.029" y2="150.266" gradientUnits="userSpaceOnUse">
<stop stop-color="#0DC143"/>
<stop offset="1" stop-color="#0DC143" stop-opacity="0"/>
</linearGradient>
<linearGradient id="paint55_linear_47_580" x1="126.801" y1="126.996" x2="127.244" y2="127.193" gradientUnits="userSpaceOnUse">
<stop stop-color="#0DC143"/>
<stop offset="1" stop-color="#0DC143" stop-opacity="0"/>
</linearGradient>
<linearGradient id="paint56_linear_47_580" x1="126.817" y1="114.592" x2="127.229" y2="114.848" gradientUnits="userSpaceOnUse">
<stop stop-color="#0DC143"/>
<stop offset="1" stop-color="#0DC143" stop-opacity="0"/>
</linearGradient>
<linearGradient id="paint57_linear_47_580" x1="126.856" y1="102.17" x2="127.193" y2="102.519" gradientUnits="userSpaceOnUse">
<stop stop-color="#0DC143"/>
<stop offset="1" stop-color="#0DC143" stop-opacity="0"/>
</linearGradient>
<linearGradient id="paint58_linear_47_580" x1="126.952" y1="89.7382" x2="127.102" y2="90.2007" gradientUnits="userSpaceOnUse">
<stop stop-color="#0DC143"/>
<stop offset="1" stop-color="#0DC143" stop-opacity="0"/>
</linearGradient>
<linearGradient id="paint59_linear_47_580" x1="123.105" y1="76.3373" x2="130.722" y2="78.7937" gradientUnits="userSpaceOnUse">
<stop stop-color="#0DC143"/>
<stop offset="1" stop-color="#0DC143" stop-opacity="0"/>
</linearGradient>
<linearGradient id="paint60_linear_47_580" x1="123.105" y1="61.4318" x2="130.722" y2="68.8015" gradientUnits="userSpaceOnUse">
<stop stop-color="#0DC143"/>
<stop offset="1" stop-color="#0DC143" stop-opacity="0"/>
</linearGradient>
<linearGradient id="paint61_linear_47_580" x1="123.104" y1="46.5263" x2="130.721" y2="58.8098" gradientUnits="userSpaceOnUse">
<stop stop-color="#0DC143"/>
<stop offset="1" stop-color="#0DC143" stop-opacity="0"/>
</linearGradient>
<linearGradient id="paint62_linear_47_580" x1="123.105" y1="31.6209" x2="130.722" y2="48.8177" gradientUnits="userSpaceOnUse">
<stop stop-color="#0DC143"/>
<stop offset="1" stop-color="#0DC143" stop-opacity="0"/>
</linearGradient>
<linearGradient id="paint63_linear_47_580" x1="127.029" y1="16.6343" x2="127.029" y2="38.9022" gradientUnits="userSpaceOnUse">
<stop stop-color="#0DC143"/>
<stop offset="1" stop-color="#0DC143" stop-opacity="0"/>
</linearGradient>
<linearGradient id="paint64_linear_47_580" x1="255.902" y1="1.30859" x2="255.902" y2="161.388" gradientUnits="userSpaceOnUse">
<stop stop-color="#0DC143"/>
<stop offset="1" stop-color="#0DC143" stop-opacity="0"/>
</linearGradient>
<linearGradient id="paint65_linear_47_580" x1="265.772" y1="8.28467" x2="265.772" y2="154.824" gradientUnits="userSpaceOnUse">
<stop stop-color="#0DC143"/>
<stop offset="1" stop-color="#0DC143" stop-opacity="0"/>
</linearGradient>
<linearGradient id="paint66_linear_47_580" x1="258.45" y1="13.811" x2="258.45" y2="149.625" gradientUnits="userSpaceOnUse">
<stop stop-color="#0DC143"/>
<stop offset="1" stop-color="#0DC143" stop-opacity="0"/>
</linearGradient>
<linearGradient id="paint67_linear_47_580" x1="252.128" y1="18.5835" x2="252.128" y2="145.136" gradientUnits="userSpaceOnUse">
<stop stop-color="#0DC143"/>
<stop offset="1" stop-color="#0DC143" stop-opacity="0"/>
</linearGradient>
<linearGradient id="paint68_linear_47_580" x1="246.611" y1="22.7461" x2="246.611" y2="141.219" gradientUnits="userSpaceOnUse">
<stop stop-color="#0DC143"/>
<stop offset="1" stop-color="#0DC143" stop-opacity="0"/>
</linearGradient>
<linearGradient id="paint69_linear_47_580" x1="241.758" y1="26.4102" x2="241.758" y2="137.772" gradientUnits="userSpaceOnUse">
<stop stop-color="#0DC143"/>
<stop offset="1" stop-color="#0DC143" stop-opacity="0"/>
</linearGradient>
<linearGradient id="paint70_linear_47_580" x1="255.77" y1="27.8947" x2="256.026" y2="28.3086" gradientUnits="userSpaceOnUse">
<stop stop-color="#0DC143"/>
<stop offset="1" stop-color="#0DC143" stop-opacity="0"/>
</linearGradient>
<linearGradient id="paint71_linear_47_580" x1="255.901" y1="31.3955" x2="255.901" y2="49.0301" gradientUnits="userSpaceOnUse">
<stop stop-color="#0DC143"/>
<stop offset="1" stop-color="#0DC143" stop-opacity="0"/>
</linearGradient>
<linearGradient id="paint72_linear_47_580" x1="255.902" y1="46.29" x2="255.902" y2="59.0326" gradientUnits="userSpaceOnUse">
<stop stop-color="#0DC143"/>
<stop offset="1" stop-color="#0DC143" stop-opacity="0"/>
</linearGradient>
<linearGradient id="paint73_linear_47_580" x1="255.902" y1="61.187" x2="255.902" y2="69.0323" gradientUnits="userSpaceOnUse">
<stop stop-color="#0DC143"/>
<stop offset="1" stop-color="#0DC143" stop-opacity="0"/>
</linearGradient>
<linearGradient id="paint74_linear_47_580" x1="255.885" y1="77.353" x2="255.918" y2="77.8381" gradientUnits="userSpaceOnUse">
<stop stop-color="#0DC143"/>
<stop offset="1" stop-color="#0DC143" stop-opacity="0"/>
</linearGradient>
<linearGradient id="paint75_linear_47_580" x1="237.454" y1="88.711" x2="273.257" y2="91.1674" gradientUnits="userSpaceOnUse">
<stop stop-color="#0DC143"/>
<stop offset="1" stop-color="#0DC143" stop-opacity="0"/>
</linearGradient>
<linearGradient id="paint76_linear_47_580" x1="255.902" y1="98.3081" x2="255.902" y2="106.153" gradientUnits="userSpaceOnUse">
<stop stop-color="#0DC143"/>
<stop offset="1" stop-color="#0DC143" stop-opacity="0"/>
</linearGradient>
<linearGradient id="paint77_linear_47_580" x1="255.902" y1="108.158" x2="255.902" y2="120.901" gradientUnits="userSpaceOnUse">
<stop stop-color="#0DC143"/>
<stop offset="1" stop-color="#0DC143" stop-opacity="0"/>
</linearGradient>
<linearGradient id="paint78_linear_47_580" x1="255.901" y1="118.011" x2="255.901" y2="135.646" gradientUnits="userSpaceOnUse">
<stop stop-color="#0DC143"/>
<stop offset="1" stop-color="#0DC143" stop-opacity="0"/>
</linearGradient>
<linearGradient id="paint79_linear_47_580" x1="237.455" y1="128.079" x2="273.257" y2="150.189" gradientUnits="userSpaceOnUse">
<stop stop-color="#0DC143"/>
<stop offset="1" stop-color="#0DC143" stop-opacity="0"/>
</linearGradient>
<linearGradient id="paint80_linear_47_580" x1="208.801" y1="1.20068" x2="208.801" y2="161.489" gradientUnits="userSpaceOnUse">
<stop stop-color="#0DC143"/>
<stop offset="1" stop-color="#0DC143" stop-opacity="0"/>
</linearGradient>
<linearGradient id="paint81_linear_47_580" x1="216.151" y1="8.28418" x2="216.151" y2="154.824" gradientUnits="userSpaceOnUse">
<stop stop-color="#0DC143"/>
<stop offset="1" stop-color="#0DC143" stop-opacity="0"/>
</linearGradient>
<linearGradient id="paint82_linear_47_580" x1="210.699" y1="13.8105" x2="210.699" y2="149.625" gradientUnits="userSpaceOnUse">
<stop stop-color="#0DC143"/>
<stop offset="1" stop-color="#0DC143" stop-opacity="0"/>
</linearGradient>
<linearGradient id="paint83_linear_47_580" x1="205.99" y1="18.583" x2="205.99" y2="145.135" gradientUnits="userSpaceOnUse">
<stop stop-color="#0DC143"/>
<stop offset="1" stop-color="#0DC143" stop-opacity="0"/>
</linearGradient>
<linearGradient id="paint84_linear_47_580" x1="201.882" y1="22.7461" x2="201.882" y2="141.219" gradientUnits="userSpaceOnUse">
<stop stop-color="#0DC143"/>
<stop offset="1" stop-color="#0DC143" stop-opacity="0"/>
</linearGradient>
<linearGradient id="paint85_linear_47_580" x1="198.268" y1="26.4097" x2="198.268" y2="137.772" gradientUnits="userSpaceOnUse">
<stop stop-color="#0DC143"/>
<stop offset="1" stop-color="#0DC143" stop-opacity="0"/>
</linearGradient>
<linearGradient id="paint86_linear_47_580" x1="208.801" y1="16.5229" x2="208.801" y2="39.0067" gradientUnits="userSpaceOnUse">
<stop stop-color="#0DC143"/>
<stop offset="1" stop-color="#0DC143" stop-opacity="0"/>
</linearGradient>
<linearGradient id="paint87_linear_47_580" x1="208.665" y1="40.2717" x2="208.929" y2="40.6798" gradientUnits="userSpaceOnUse">
<stop stop-color="#0DC143"/>
<stop offset="1" stop-color="#0DC143" stop-opacity="0"/>
</linearGradient>
<linearGradient id="paint88_linear_47_580" x1="208.801" y1="46.2988" x2="208.801" y2="59.0235" gradientUnits="userSpaceOnUse">
<stop stop-color="#0DC143"/>
<stop offset="1" stop-color="#0DC143" stop-opacity="0"/>
</linearGradient>
<linearGradient id="paint89_linear_47_580" x1="208.801" y1="61.1904" x2="208.801" y2="69.0286" gradientUnits="userSpaceOnUse">
<stop stop-color="#0DC143"/>
<stop offset="1" stop-color="#0DC143" stop-opacity="0"/>
</linearGradient>
<linearGradient id="paint90_linear_47_580" x1="208.778" y1="77.3533" x2="208.823" y2="77.8372" gradientUnits="userSpaceOnUse">
<stop stop-color="#0DC143"/>
<stop offset="1" stop-color="#0DC143" stop-opacity="0"/>
</linearGradient>
<linearGradient id="paint91_linear_47_580" x1="195.064" y1="88.7106" x2="221.725" y2="91.167" gradientUnits="userSpaceOnUse">
<stop stop-color="#0DC143"/>
<stop offset="1" stop-color="#0DC143" stop-opacity="0"/>
</linearGradient>
<linearGradient id="paint92_linear_47_580" x1="208.801" y1="98.3115" x2="208.801" y2="106.15" gradientUnits="userSpaceOnUse">
<stop stop-color="#0DC143"/>
<stop offset="1" stop-color="#0DC143" stop-opacity="0"/>
</linearGradient>
<linearGradient id="paint93_linear_47_580" x1="208.801" y1="108.167" x2="208.801" y2="120.892" gradientUnits="userSpaceOnUse">
<stop stop-color="#0DC143"/>
<stop offset="1" stop-color="#0DC143" stop-opacity="0"/>
</linearGradient>
<linearGradient id="paint94_linear_47_580" x1="195.063" y1="118.237" x2="221.725" y2="135.434" gradientUnits="userSpaceOnUse">
<stop stop-color="#0DC143"/>
<stop offset="1" stop-color="#0DC143" stop-opacity="0"/>
</linearGradient>
<linearGradient id="paint95_linear_47_580" x1="208.801" y1="127.887" x2="208.801" y2="150.37" gradientUnits="userSpaceOnUse">
<stop stop-color="#0DC143"/>
<stop offset="1" stop-color="#0DC143" stop-opacity="0"/>
</linearGradient>
<linearGradient id="paint96_linear_47_580" x1="172.886" y1="0.914551" x2="172.886" y2="161.758" gradientUnits="userSpaceOnUse">
<stop stop-color="#0DC143"/>
<stop offset="1" stop-color="#0DC143" stop-opacity="0"/>
</linearGradient>
<linearGradient id="paint97_linear_47_580" x1="177.402" y1="8.28418" x2="177.402" y2="154.824" gradientUnits="userSpaceOnUse">
<stop stop-color="#0DC143"/>
<stop offset="1" stop-color="#0DC143" stop-opacity="0"/>
</linearGradient>
<linearGradient id="paint98_linear_47_580" x1="174.053" y1="13.8105" x2="174.053" y2="149.625" gradientUnits="userSpaceOnUse">
<stop stop-color="#0DC143"/>
<stop offset="1" stop-color="#0DC143" stop-opacity="0"/>
</linearGradient>
<linearGradient id="paint99_linear_47_580" x1="171.16" y1="18.583" x2="171.16" y2="145.135" gradientUnits="userSpaceOnUse">
<stop stop-color="#0DC143"/>
<stop offset="1" stop-color="#0DC143" stop-opacity="0"/>
</linearGradient>
<linearGradient id="paint100_linear_47_580" x1="168.637" y1="22.7461" x2="168.637" y2="141.219" gradientUnits="userSpaceOnUse">
<stop stop-color="#0DC143"/>
<stop offset="1" stop-color="#0DC143" stop-opacity="0"/>
</linearGradient>
<linearGradient id="paint101_linear_47_580" x1="166.417" y1="26.4097" x2="166.417" y2="137.772" gradientUnits="userSpaceOnUse">
<stop stop-color="#0DC143"/>
<stop offset="1" stop-color="#0DC143" stop-opacity="0"/>
</linearGradient>
<linearGradient id="paint102_linear_47_580" x1="172.685" y1="27.9584" x2="173.076" y2="28.2478" gradientUnits="userSpaceOnUse">
<stop stop-color="#0DC143"/>
<stop offset="1" stop-color="#0DC143" stop-opacity="0"/>
</linearGradient>
<linearGradient id="paint103_linear_47_580" x1="172.706" y1="40.3091" x2="173.057" y2="40.6435" gradientUnits="userSpaceOnUse">
<stop stop-color="#0DC143"/>
<stop offset="1" stop-color="#0DC143" stop-opacity="0"/>
</linearGradient>
<linearGradient id="paint104_linear_47_580" x1="172.736" y1="52.6549" x2="173.028" y2="53.0439" gradientUnits="userSpaceOnUse">
<stop stop-color="#0DC143"/>
<stop offset="1" stop-color="#0DC143" stop-opacity="0"/>
</linearGradient>
<linearGradient id="paint105_linear_47_580" x1="172.784" y1="65.0004" x2="172.983" y2="65.444" gradientUnits="userSpaceOnUse">
<stop stop-color="#0DC143"/>
<stop offset="1" stop-color="#0DC143" stop-opacity="0"/>
</linearGradient>
<linearGradient id="paint106_linear_47_580" x1="172.886" y1="76.0894" x2="172.886" y2="79.0261" gradientUnits="userSpaceOnUse">
<stop stop-color="#0DC143"/>
<stop offset="1" stop-color="#0DC143" stop-opacity="0"/>
</linearGradient>
<linearGradient id="paint107_linear_47_580" x1="172.886" y1="88.4629" x2="172.886" y2="91.3996" gradientUnits="userSpaceOnUse">
<stop stop-color="#0DC143"/>
<stop offset="1" stop-color="#0DC143" stop-opacity="0"/>
</linearGradient>
<linearGradient id="paint108_linear_47_580" x1="164.447" y1="98.5528" x2="180.826" y2="105.922" gradientUnits="userSpaceOnUse">
<stop stop-color="#0DC143"/>
<stop offset="1" stop-color="#0DC143" stop-opacity="0"/>
</linearGradient>
<linearGradient id="paint109_linear_47_580" x1="164.447" y1="108.394" x2="180.826" y2="120.678" gradientUnits="userSpaceOnUse">
<stop stop-color="#0DC143"/>
<stop offset="1" stop-color="#0DC143" stop-opacity="0"/>
</linearGradient>
<linearGradient id="paint110_linear_47_580" x1="164.448" y1="118.236" x2="180.826" y2="135.433" gradientUnits="userSpaceOnUse">
<stop stop-color="#0DC143"/>
<stop offset="1" stop-color="#0DC143" stop-opacity="0"/>
</linearGradient>
<linearGradient id="paint111_linear_47_580" x1="164.447" y1="128.079" x2="180.826" y2="150.189" gradientUnits="userSpaceOnUse">
<stop stop-color="#0DC143"/>
<stop offset="1" stop-color="#0DC143" stop-opacity="0"/>
</linearGradient>
<linearGradient id="paint112_linear_47_580" x1="147.57" y1="0" x2="147.57" y2="162.619" gradientUnits="userSpaceOnUse">
<stop stop-color="#0DC143"/>
<stop offset="1" stop-color="#0DC143" stop-opacity="0"/>
</linearGradient>
<linearGradient id="paint113_linear_47_580" x1="149.67" y1="8.28418" x2="149.67" y2="154.824" gradientUnits="userSpaceOnUse">
<stop stop-color="#0DC143"/>
<stop offset="1" stop-color="#0DC143" stop-opacity="0"/>
</linearGradient>
<linearGradient id="paint114_linear_47_580" x1="148.112" y1="13.811" x2="148.112" y2="149.625" gradientUnits="userSpaceOnUse">
<stop stop-color="#0DC143"/>
<stop offset="1" stop-color="#0DC143" stop-opacity="0"/>
</linearGradient>
<linearGradient id="paint115_linear_47_580" x1="146.767" y1="18.583" x2="146.767" y2="145.135" gradientUnits="userSpaceOnUse">
<stop stop-color="#0DC143"/>
<stop offset="1" stop-color="#0DC143" stop-opacity="0"/>
</linearGradient>
<linearGradient id="paint116_linear_47_580" x1="145.594" y1="22.7461" x2="145.594" y2="141.219" gradientUnits="userSpaceOnUse">
<stop stop-color="#0DC143"/>
<stop offset="1" stop-color="#0DC143" stop-opacity="0"/>
</linearGradient>
<linearGradient id="paint117_linear_47_580" x1="144.561" y1="26.4097" x2="144.561" y2="137.772" gradientUnits="userSpaceOnUse">
<stop stop-color="#0DC143"/>
<stop offset="1" stop-color="#0DC143" stop-opacity="0"/>
</linearGradient>
<linearGradient id="paint118_linear_47_580" x1="147.57" y1="16.6343" x2="147.57" y2="38.9022" gradientUnits="userSpaceOnUse">
<stop stop-color="#0DC143"/>
<stop offset="1" stop-color="#0DC143" stop-opacity="0"/>
</linearGradient>
<linearGradient id="paint119_linear_47_580" x1="147.341" y1="40.3804" x2="147.785" y2="40.5774" gradientUnits="userSpaceOnUse">
<stop stop-color="#0DC143"/>
<stop offset="1" stop-color="#0DC143" stop-opacity="0"/>
</linearGradient>
<linearGradient id="paint120_linear_47_580" x1="147.357" y1="52.7234" x2="147.77" y2="52.9795" gradientUnits="userSpaceOnUse">
<stop stop-color="#0DC143"/>
<stop offset="1" stop-color="#0DC143" stop-opacity="0"/>
</linearGradient>
<linearGradient id="paint121_linear_47_580" x1="147.396" y1="65.0491" x2="147.733" y2="65.3978" gradientUnits="userSpaceOnUse">
<stop stop-color="#0DC143"/>
<stop offset="1" stop-color="#0DC143" stop-opacity="0"/>
</linearGradient>
<linearGradient id="paint122_linear_47_580" x1="147.493" y1="77.3647" x2="147.642" y2="77.8273" gradientUnits="userSpaceOnUse">
<stop stop-color="#0DC143"/>
<stop offset="1" stop-color="#0DC143" stop-opacity="0"/>
</linearGradient>
<linearGradient id="paint123_linear_47_580" x1="143.644" y1="88.7109" x2="151.262" y2="91.1672" gradientUnits="userSpaceOnUse">
<stop stop-color="#0DC143"/>
<stop offset="1" stop-color="#0DC143" stop-opacity="0"/>
</linearGradient>
<linearGradient id="paint124_linear_47_580" x1="143.644" y1="98.5529" x2="151.262" y2="105.923" gradientUnits="userSpaceOnUse">
<stop stop-color="#0DC143"/>
<stop offset="1" stop-color="#0DC143" stop-opacity="0"/>
</linearGradient>
<linearGradient id="paint125_linear_47_580" x1="143.644" y1="108.394" x2="151.262" y2="120.678" gradientUnits="userSpaceOnUse">
<stop stop-color="#0DC143"/>
<stop offset="1" stop-color="#0DC143" stop-opacity="0"/>
</linearGradient>
<linearGradient id="paint126_linear_47_580" x1="143.645" y1="118.237" x2="151.263" y2="135.433" gradientUnits="userSpaceOnUse">
<stop stop-color="#0DC143"/>
<stop offset="1" stop-color="#0DC143" stop-opacity="0"/>
</linearGradient>
<linearGradient id="paint127_linear_47_580" x1="147.57" y1="127.998" x2="147.57" y2="150.266" gradientUnits="userSpaceOnUse">
<stop stop-color="#0DC143"/>
<stop offset="1" stop-color="#0DC143" stop-opacity="0"/>
</linearGradient>
</defs>
</svg>
