<svg width="158" height="158" viewBox="0 0 158 158" fill="none" xmlns="http://www.w3.org/2000/svg">
<g opacity="0.5">
<path d="M117.774 46.5469C125.874 56.2365 130.055 68.6071 129.494 81.2245C128.932 93.8418 123.669 105.792 114.739 114.724C105.81 123.655 93.8604 128.922 81.2432 129.486C68.626 130.05 56.2544 125.872 46.563 117.773C51.0652 123.158 56.6393 127.547 62.9306 130.66C69.2218 133.773 76.0923 135.542 83.1046 135.854C90.1169 136.166 97.1173 135.014 103.66 132.473C110.203 129.931 116.145 126.055 121.108 121.091C126.071 116.127 129.946 110.184 132.486 103.641C135.026 97.0974 136.176 90.0967 135.862 83.0845C135.549 76.0722 133.778 69.2022 130.664 62.9116C127.55 56.621 123.16 51.0479 117.774 46.5469Z" fill="url(#paint0_linear_47_1040)"/>
<path d="M79.0003 110.6C76.7177 110.601 74.4572 110.152 72.3481 109.279C70.2389 108.406 68.3224 107.126 66.7079 105.512C66.2444 104.9 66.0197 104.14 66.0758 103.374C66.1319 102.608 66.4651 101.889 67.0129 101.351C67.5608 100.813 68.2858 100.492 69.0526 100.45C69.8194 100.407 70.5754 100.646 71.1793 101.12C72.4703 102.384 74.0516 103.313 75.7847 103.825C77.5178 104.338 79.35 104.417 81.121 104.057C82.892 103.697 84.5478 102.909 85.9436 101.761C87.3394 100.613 88.4327 99.1407 89.1277 97.4726C89.8228 95.8044 90.0985 93.9913 89.9307 92.192C89.763 90.3926 89.1568 88.6617 88.1653 87.1508C87.1739 85.6399 85.8272 84.395 84.2433 83.5249C82.6593 82.6548 80.8863 82.1862 79.0793 82.1599C76.2216 82.159 73.4082 81.4533 70.8882 80.1056C68.3683 78.7578 66.2195 76.8094 64.6323 74.433C63.0451 72.0565 62.0683 69.3254 61.7886 66.4814C61.5088 63.6374 61.9346 60.7682 63.0284 58.1281C64.1221 55.4879 65.85 53.1582 68.059 51.3452C70.2681 49.5322 72.89 48.292 75.6928 47.7342C78.4956 47.1764 81.3927 47.3183 84.1275 48.1475C86.8623 48.9766 89.3505 50.4672 91.3717 52.4875C91.6653 52.7811 91.8982 53.1297 92.0571 53.5133C92.216 53.8969 92.2978 54.308 92.2978 54.7232C92.2978 55.1384 92.216 55.5496 92.0571 55.9332C91.8982 56.3168 91.6653 56.6653 91.3717 56.9589C91.0781 57.2525 90.7296 57.4854 90.346 57.6443C89.9624 57.8032 89.5512 57.885 89.136 57.885C88.7208 57.885 88.3097 57.8032 87.9261 57.6443C87.5425 57.4854 87.1939 57.2525 86.9003 56.9589C85.6093 55.6943 84.028 54.7654 82.2949 54.2533C80.5618 53.7413 78.7296 53.6617 76.9586 54.0216C75.1876 54.3815 73.5318 55.1698 72.136 56.3177C70.7402 57.4656 69.647 58.9381 68.9519 60.6062C68.2568 62.2744 67.9811 64.0875 68.1489 65.8868C68.3167 67.6862 68.9228 69.4171 69.9143 70.928C70.9058 72.4389 72.2524 73.6838 73.8363 74.5539C75.4203 75.424 77.1933 75.8926 79.0003 75.9189C83.6098 75.9189 88.0304 77.75 91.2898 81.0094C94.5492 84.2688 96.3803 88.6894 96.3803 93.2989C96.3803 97.9084 94.5492 102.329 91.2898 105.588C88.0304 108.848 83.6098 110.679 79.0003 110.679V110.6Z" fill="#0DC143"/>
<path d="M78.9998 120.08C78.1618 120.08 77.358 119.747 76.7654 119.154C76.1728 118.562 75.8398 117.758 75.8398 116.92V41.0799C75.8398 40.2418 76.1728 39.4381 76.7654 38.8455C77.358 38.2529 78.1618 37.9199 78.9998 37.9199C79.8379 37.9199 80.6417 38.2529 81.2343 38.8455C81.8269 39.4381 82.1598 40.2418 82.1598 41.0799V116.92C82.1598 117.758 81.8269 118.562 81.2343 119.154C80.6417 119.747 79.8379 120.08 78.9998 120.08Z" fill="#0DC143"/>
<path d="M78.9998 132.72C68.375 132.72 57.9888 129.569 49.1546 123.666C40.3204 117.764 33.4349 109.374 29.369 99.5576C25.3031 89.7415 24.2392 78.9402 26.312 68.5196C28.3848 58.0989 33.5012 48.5269 41.014 41.014C48.5269 33.5012 58.0989 28.3848 68.5196 26.312C78.9402 24.2392 89.7415 25.3031 99.5576 29.369C109.374 33.4349 117.764 40.3204 123.666 49.1546C129.569 57.9888 132.72 68.375 132.72 78.9998C132.72 86.0544 131.33 93.04 128.631 99.5576C125.931 106.075 121.974 111.997 116.986 116.986C111.997 121.974 106.075 125.931 99.5576 128.631C93.04 131.33 86.0544 132.72 78.9998 132.72ZM78.9998 31.5998C69.625 31.5998 60.4607 34.3798 52.6658 39.5881C44.8709 44.7965 38.7955 52.1994 35.2079 60.8606C31.6203 69.5218 30.6816 79.0524 32.5106 88.2471C34.3395 97.4418 38.8539 105.888 45.4829 112.517C52.112 119.146 60.5578 123.66 69.7525 125.489C78.9472 127.318 88.4778 126.379 97.139 122.792C105.8 119.204 113.203 113.129 118.411 105.334C123.62 97.5389 126.4 88.3746 126.4 78.9998C126.4 66.4285 121.406 54.3722 112.517 45.4829C103.627 36.5937 91.5711 31.5998 78.9998 31.5998Z" fill="url(#paint1_linear_47_1040)"/>
<path d="M29.8461 131.314C29.4302 131.316 29.0179 131.236 28.6329 131.079C28.2479 130.922 27.8977 130.69 27.6025 130.397C17.436 120.233 10.5123 107.282 7.70715 93.1817C4.90197 79.0818 6.34129 64.4668 11.8431 51.1851C17.3449 37.9033 26.6619 26.5516 38.6159 18.5655C50.5699 10.5795 64.6237 6.31789 78.9999 6.31982C79.8379 6.31982 80.6417 6.65275 81.2343 7.24537C81.8269 7.83798 82.1599 8.64174 82.1599 9.47983C82.1599 10.3179 81.8269 11.1217 81.2343 11.7143C80.6417 12.3069 79.8379 12.6398 78.9999 12.6398C65.8744 12.6389 53.0434 16.5303 42.1297 23.822C31.216 31.1136 22.7097 41.478 17.6867 53.6043C12.6637 65.7306 11.3495 79.0741 13.9104 91.9473C16.4713 104.821 22.7923 116.645 32.0738 125.926C32.3677 126.219 32.6007 126.568 32.7598 126.951C32.9188 127.335 33.0006 127.746 33.0006 128.162C33.0006 128.577 32.9188 128.988 32.7598 129.372C32.6007 129.755 32.3677 130.104 32.0738 130.397C31.4814 130.985 30.6805 131.314 29.8461 131.314ZM78.9999 151.68C78.1618 151.68 77.358 151.347 76.7654 150.754C76.1728 150.162 75.8399 149.358 75.8399 148.52C75.8399 147.682 76.1728 146.878 76.7654 146.285C77.358 145.693 78.1618 145.36 78.9999 145.36C92.1253 145.361 104.956 141.469 115.87 134.178C126.784 126.886 135.29 116.522 140.313 104.395C145.336 92.2691 146.65 78.9255 144.089 66.0523C141.528 53.1791 135.207 41.3545 125.926 32.0738C125.333 31.4809 125 30.6767 125 29.8381C125 28.9996 125.333 28.1954 125.926 27.6024C126.519 27.0095 127.323 26.6764 128.162 26.6764C129 26.6764 129.804 27.0095 130.397 27.6024C140.564 37.7669 147.487 50.7182 150.293 64.818C153.098 78.9178 151.658 93.5328 146.157 106.815C140.655 120.096 131.338 131.448 119.384 139.434C107.43 147.42 93.376 151.682 78.9999 151.68Z" fill="#0DC143"/>
</g>
<defs>
<linearGradient id="paint0_linear_47_1040" x1="91.2378" y1="46.5469" x2="91.2378" y2="133.258" gradientUnits="userSpaceOnUse">
<stop stop-color="#0DC143"/>
<stop offset="1" stop-color="#0DC143" stop-opacity="0"/>
</linearGradient>
<linearGradient id="paint1_linear_47_1040" x1="78.9998" y1="25.2798" x2="78.9998" y2="129.539" gradientUnits="userSpaceOnUse">
<stop stop-color="#0DC143"/>
<stop offset="1" stop-color="#0DC143" stop-opacity="0"/>
</linearGradient>
</defs>
</svg>
