<svg width="275" height="275" viewBox="0 0 275 275" fill="none" xmlns="http://www.w3.org/2000/svg">
<path d="M73.8243 190.413C73.4579 189.626 72.7938 189.016 71.978 188.719C71.1622 188.421 70.2616 188.46 69.4743 188.826C68.687 189.192 68.0774 189.857 67.7798 190.672C67.4822 191.488 67.5209 192.389 67.8873 193.176C68.3391 194.158 79.3931 217.173 116.605 223.56C116.789 223.592 116.976 223.608 117.163 223.608C117.984 223.609 118.776 223.301 119.381 222.746C119.986 222.191 120.36 221.428 120.429 220.61C120.499 219.792 120.258 218.977 119.755 218.328C119.251 217.679 118.523 217.243 117.713 217.106C84.1025 211.336 74.2368 191.285 73.8243 190.413ZM158.357 119.821C155.941 118.263 153.929 116.153 152.487 113.665C151.044 111.178 150.213 108.383 150.062 105.512C150.05 105.055 148.403 59.77 104.983 57.7451C104.587 57.7451 65.4319 58.2362 62.8849 95.1566L61.9748 122.344C61.5934 133.684 56.7743 152.875 41.1288 152.875C40.2605 152.875 39.4278 153.22 38.8139 153.834C38.1999 154.448 37.855 155.281 37.855 156.149C37.855 157.018 38.1999 157.85 38.8139 158.464C39.4278 159.078 40.2605 159.423 41.1288 159.423C59.1937 159.423 67.902 140.91 68.5191 122.563L69.4227 95.4905C71.5114 65.2503 102.74 64.3206 104.926 64.2927C141.97 66.0835 143.471 104.07 143.52 105.777C144.074 115.662 149.795 122.177 156.249 126.194C156.728 124.002 157.434 121.866 158.357 119.821Z" fill="url(#paint0_linear_47_560)"/>
<path d="M38.764 124.862C39.6322 124.862 40.4649 124.517 41.0789 123.903C41.6929 123.289 42.0378 122.456 42.0378 121.588V106.952C42.4561 98.5425 43.9058 90.216 46.3543 82.1597C59.1222 41.1814 101.027 39.3432 102.711 39.2859H103.103C122.988 39.2859 138.88 45.1051 150.337 56.5847C167.641 73.9228 169.901 99.3767 170.194 105.823C172.189 104.467 174.32 103.324 176.554 102.413C175.735 92.302 171.97 69.0203 155.014 51.9965C142.279 39.2171 124.819 32.7383 103.027 32.7383H102.6C102.119 32.753 54.2786 34.7108 40.1013 80.2085C37.4531 88.8944 35.9034 97.8778 35.4885 106.949V121.585C35.4881 122.015 35.5725 122.441 35.7369 122.839C35.9014 123.236 36.1426 123.598 36.4468 123.902C36.751 124.207 37.1123 124.448 37.5099 124.613C37.9075 124.777 38.3336 124.862 38.764 124.862ZM181.605 219.858C181.444 220.592 181.451 221.353 181.626 222.083C181.801 222.814 182.139 223.496 182.616 224.077C183.092 224.658 183.694 225.123 184.377 225.438C185.059 225.752 185.804 225.908 186.555 225.893H199.754C200.504 225.908 201.248 225.752 201.93 225.438C202.611 225.124 203.213 224.66 203.69 224.08C204.166 223.5 204.506 222.82 204.682 222.091C204.858 221.361 204.866 220.601 204.707 219.868C204.695 219.812 204.684 219.76 204.671 219.704L202.017 209.228C203.355 208.014 204.423 206.533 205.152 204.881C205.881 203.229 206.255 201.442 206.25 199.635C206.25 196.162 204.871 192.832 202.415 190.376C199.959 187.92 196.628 186.54 193.155 186.54C189.682 186.54 186.351 187.92 183.895 190.376C181.44 192.832 180.06 196.162 180.06 199.635C180.055 201.442 180.429 203.229 181.158 204.881C181.887 206.533 182.955 208.014 184.293 209.228L181.605 219.858ZM193.155 193.155C194.883 193.148 196.542 193.827 197.77 195.043C198.997 196.258 199.692 197.911 199.703 199.639C199.703 200.747 199.416 201.836 198.871 202.801C198.326 203.766 197.542 204.574 196.593 205.147C195.998 205.512 195.536 206.058 195.273 206.704C195.011 207.35 194.961 208.064 195.133 208.74L197.825 219.345H188.485L191.173 208.74C191.344 208.064 191.295 207.35 191.032 206.704C190.77 206.058 190.307 205.512 189.713 205.147C188.764 204.574 187.979 203.766 187.434 202.801C186.889 201.836 186.603 200.747 186.603 199.639C186.613 197.91 187.309 196.257 188.537 195.041C189.766 193.826 191.427 193.147 193.155 193.155Z" fill="url(#paint1_linear_47_560)"/>
<path d="M105.356 88.9788C106.788 88.9697 108.207 89.2451 109.531 89.7891C110.855 90.3332 112.058 91.1349 113.069 92.1478C115.86 95.0288 116.616 103.115 117.161 109.008C117.304 110.535 117.44 111.989 117.599 113.305C120.203 134.928 132.2 146.423 143.763 152.533C145.816 151.265 148.182 150.594 150.595 150.595H155.506V150.576C143.684 146.889 127.096 137.328 124.109 112.524C123.956 111.262 123.827 109.866 123.689 108.399C122.976 100.773 122.166 92.1282 117.772 87.5923C116.162 85.9573 114.243 84.6591 112.126 83.7733C110.009 82.8874 107.738 82.4318 105.443 82.4328C102.907 82.3881 100.387 82.8442 98.0274 83.7751C95.6679 84.7059 93.5153 86.0932 91.6929 87.8575C85.9932 93.4328 87.3273 104.948 89.0247 115.303C91.9041 132.81 97.3959 166.18 137.5 180.765V173.766C103.035 160.107 98.2782 131.206 95.4938 114.243C94.6099 108.841 92.5359 96.1992 96.2811 92.5374C98.718 90.2001 101.98 88.921 105.356 88.9788ZM137.5 197.384C120.697 192.559 97.2895 181.603 86.4826 157.007C86.229 156.432 85.815 155.941 85.2901 155.595C84.7653 155.249 84.1519 155.061 83.5231 155.054C82.8946 155.05 82.2781 155.226 81.7458 155.56C81.2135 155.895 80.7875 156.374 80.5178 156.941C76.6995 164.136 70.8704 170.064 63.7411 174.003C60.1336 175.934 56.2324 177.258 52.1944 177.92C51.7658 177.985 51.3545 178.135 50.9843 178.36C50.6141 178.586 50.2923 178.883 50.0376 179.233C49.783 179.584 49.6006 179.982 49.5009 180.404C49.4013 180.826 49.3864 181.263 49.4572 181.691C49.528 182.119 49.683 182.528 49.9132 182.895C50.1434 183.263 50.4443 183.581 50.7984 183.831C51.1525 184.081 51.5527 184.258 51.9758 184.352C52.399 184.446 52.8366 184.456 53.2633 184.379C58.01 183.599 62.5958 182.042 66.8365 179.771C73.3404 176.218 78.936 171.211 83.1875 165.141C96.4121 189.367 120.584 199.835 137.5 204.322V197.384ZM137.5 225.893V219.345C136.632 219.345 135.799 219.69 135.185 220.304C134.571 220.918 134.226 221.751 134.226 222.619C134.226 223.487 134.571 224.32 135.185 224.934C135.799 225.548 136.632 225.893 137.5 225.893ZM173.512 52.3809C174.483 52.3809 175.433 52.0929 176.24 51.5533C177.048 51.0137 177.677 50.2467 178.049 49.3494C178.421 48.4521 178.518 47.4647 178.328 46.5121C178.139 45.5595 177.671 44.6845 176.984 43.9977C176.298 43.311 175.423 42.8433 174.47 42.6538C173.517 42.4643 172.53 42.5616 171.633 42.9332C170.735 43.3049 169.968 43.9343 169.429 44.7419C168.889 45.5495 168.601 46.4989 168.601 47.4701C168.601 48.7726 169.119 50.0216 170.04 50.9425C170.96 51.8635 172.21 52.3809 173.512 52.3809ZM173.512 45.0148C173.998 45.0148 174.472 45.1588 174.876 45.4286C175.28 45.6984 175.595 46.0819 175.78 46.5305C175.966 46.9792 176.015 47.4729 175.92 47.9492C175.825 48.4255 175.592 48.863 175.248 49.2063C174.905 49.5497 174.467 49.7836 173.991 49.8783C173.515 49.9731 173.021 49.9244 172.572 49.7386C172.124 49.5528 171.74 49.2381 171.47 48.8343C171.201 48.4305 171.057 47.9558 171.057 47.4701C171.057 46.8189 171.315 46.1944 171.776 45.7339C172.236 45.2735 172.861 45.0148 173.512 45.0148ZM14.7322 85.1189C14.7322 84.4715 14.5402 83.8385 14.1805 83.3001C13.8207 82.7617 13.3094 82.3421 12.7112 82.0943C12.113 81.8466 11.4547 81.7817 10.8197 81.908C10.1846 82.0344 9.6013 82.3462 9.14345 82.804C8.6856 83.2619 8.3738 83.8452 8.24748 84.4803C8.12116 85.1153 8.18599 85.7736 8.43378 86.3718C8.68156 86.97 9.10118 87.4813 9.63955 87.841C10.1779 88.2008 10.8109 88.3928 11.4584 88.3928C12.3267 88.3928 13.1594 88.0478 13.7733 87.4339C14.3873 86.8199 14.7322 85.9872 14.7322 85.1189ZM9.82148 85.1189C9.82148 84.7952 9.91748 84.4787 10.0973 84.2095C10.2772 83.9404 10.5329 83.7305 10.832 83.6067C11.1311 83.4828 11.4602 83.4503 11.7777 83.5135C12.0953 83.5767 12.3869 83.7326 12.6158 83.9615C12.8448 84.1904 13.0007 84.4821 13.0638 84.7996C13.127 85.1171 13.0946 85.4463 12.9707 85.7454C12.8468 86.0445 12.637 86.3001 12.3678 86.48C12.0986 86.6599 11.7821 86.7559 11.4584 86.7559C11.0242 86.7559 10.6079 86.5834 10.3009 86.2764C9.99394 85.9694 9.82148 85.5531 9.82148 85.1189ZM230.804 24.5535C231.451 24.5535 232.084 24.3615 232.622 24.0017C233.161 23.642 233.58 23.1307 233.828 22.5325C234.076 21.9343 234.141 21.276 234.015 20.641C233.888 20.0059 233.576 19.4226 233.119 18.9647C232.661 18.5069 232.077 18.1951 231.442 18.0688C230.807 17.9424 230.149 18.0073 229.551 18.2551C228.953 18.5029 228.441 18.9225 228.082 19.4608C227.722 19.9992 227.53 20.6322 227.53 21.2797C227.53 22.1479 227.875 22.9806 228.489 23.5946C229.103 24.2086 229.935 24.5535 230.804 24.5535ZM230.804 19.6428C231.127 19.6428 231.444 19.7388 231.713 19.9186C231.982 20.0985 232.192 20.3541 232.316 20.6533C232.44 20.9524 232.472 21.2815 232.409 21.599C232.346 21.9165 232.19 22.2082 231.961 22.4371C231.732 22.6661 231.44 22.822 231.123 22.8851C230.805 22.9483 230.476 22.9159 230.177 22.792C229.878 22.6681 229.622 22.4583 229.443 22.1891C229.263 21.9199 229.167 21.6034 229.167 21.2797C229.167 20.8455 229.339 20.4292 229.646 20.1222C229.953 19.8152 230.369 19.6428 230.804 19.6428ZM65.4762 32.738C66.1237 32.738 66.7567 32.546 67.2951 32.1863C67.8334 31.8265 68.2531 31.3152 68.5008 30.717C68.7486 30.1188 68.8135 29.4606 68.6871 28.8255C68.5608 28.1904 68.249 27.6071 67.7912 27.1493C67.3333 26.6914 66.75 26.3796 66.1149 26.2533C65.4799 26.127 64.8216 26.1918 64.2234 26.4396C63.6252 26.6874 63.1139 27.107 62.7542 27.6454C62.3944 28.1837 62.2024 28.8167 62.2024 29.4642C62.2024 30.3325 62.5473 31.1652 63.1613 31.7791C63.7753 32.3931 64.608 32.738 65.4762 32.738ZM65.4762 27.8273C65.8 27.8273 66.1165 27.9233 66.3856 28.1032C66.6548 28.283 66.8646 28.5387 66.9885 28.8378C67.1124 29.1369 67.1448 29.466 67.0817 29.7835C67.0185 30.1011 66.8626 30.3927 66.6337 30.6217C66.4048 30.8506 66.1131 31.0065 65.7956 31.0696C65.4781 31.1328 65.1489 31.1004 64.8498 30.9765C64.5507 30.8526 64.2951 30.6428 64.1152 30.3736C63.9353 30.1044 63.8393 29.7879 63.8393 29.4642C63.8393 29.0301 64.0118 28.6137 64.3188 28.3067C64.6257 27.9997 65.0421 27.8273 65.4762 27.8273Z" fill="url(#paint2_linear_47_560)"/>
<path d="M3.27381 242.262C5.08188 242.262 6.54762 240.796 6.54762 238.988C6.54762 237.18 5.08188 235.714 3.27381 235.714C1.46573 235.714 0 237.18 0 238.988C0 240.796 1.46573 242.262 3.27381 242.262Z" fill="url(#paint3_linear_47_560)"/>
<path d="M18.0058 235.714H13.0951C12.2268 235.714 11.3941 236.059 10.7802 236.673C10.1662 237.287 9.82129 238.12 9.82129 238.988C9.82129 239.856 10.1662 240.689 10.7802 241.303C11.3941 241.917 12.2268 242.262 13.0951 242.262H18.0058C18.8741 242.262 19.7068 241.917 20.3207 241.303C20.9347 240.689 21.2796 239.856 21.2796 238.988C21.2796 238.12 20.9347 237.287 20.3207 236.673C19.7068 236.059 18.8741 235.714 18.0058 235.714ZM261.905 235.714H256.994C256.126 235.714 255.293 236.059 254.679 236.673C254.065 237.287 253.72 238.12 253.72 238.988C253.72 239.856 254.065 240.689 254.679 241.303C255.293 241.917 256.126 242.262 256.994 242.262H261.905C262.773 242.262 263.606 241.917 264.22 241.303C264.834 240.689 265.178 239.856 265.178 238.988C265.178 238.12 264.834 237.287 264.22 236.673C263.606 236.059 262.773 235.714 261.905 235.714Z" fill="url(#paint4_linear_47_560)"/>
<path d="M271.726 242.262C273.534 242.262 275 240.796 275 238.988C275 237.18 273.534 235.714 271.726 235.714C269.918 235.714 268.452 237.18 268.452 238.988C268.452 240.796 269.918 242.262 271.726 242.262Z" fill="url(#paint5_linear_47_560)"/>
<path d="M246.716 235.714H242.262V163.691C242.257 161.956 241.566 160.293 240.339 159.066C239.112 157.839 237.449 157.148 235.714 157.143H224.256V133.056C224.256 118.335 211.881 106.399 196.61 106.399H189.697C174.428 106.399 162.053 118.335 162.053 133.056V157.143H150.595C148.86 157.148 147.197 157.839 145.97 159.066C144.743 160.293 144.052 161.956 144.047 163.691V235.714H114.5C113.856 235.291 113.082 235.11 112.318 235.204C87.1944 238.425 66.0571 226.656 49.4932 200.225C49.2649 199.86 48.9671 199.544 48.6168 199.295C48.2664 199.046 47.8704 198.868 47.4513 198.772C46.605 198.578 45.7161 198.727 44.9803 199.189C44.2444 199.65 43.7218 200.384 43.5275 201.23C43.3332 202.077 43.4831 202.966 43.9441 203.701C54.2959 220.218 65.7264 230.097 76.9196 235.714H28.2838C27.8181 235.654 27.3447 235.693 26.8954 235.829C26.446 235.966 26.0309 236.197 25.6779 236.507C25.325 236.817 25.0422 237.198 24.8484 237.626C24.6547 238.054 24.5544 238.519 24.5544 238.988C24.5544 239.458 24.6547 239.922 24.8484 240.35C25.0422 240.778 25.325 241.16 25.6779 241.469C26.0309 241.779 26.446 242.01 26.8954 242.147C27.3447 242.284 27.8181 242.323 28.2838 242.262H246.716C247.181 242.323 247.655 242.284 248.104 242.147C248.554 242.01 248.969 241.779 249.322 241.469C249.675 241.16 249.957 240.778 250.151 240.35C250.345 239.922 250.445 239.458 250.445 238.988C250.445 238.519 250.345 238.054 250.151 237.626C249.957 237.198 249.675 236.817 249.322 236.507C248.969 236.197 248.554 235.966 248.104 235.829C247.655 235.693 247.181 235.654 246.716 235.714ZM168.601 133.056C168.601 121.968 178.066 112.947 189.699 112.947H196.612C208.243 112.947 217.708 121.968 217.708 133.056V157.143H168.601V133.056ZM235.714 235.714H150.595V163.691H235.714V235.714Z" fill="url(#paint6_linear_47_560)"/>
<path d="M36.0121 189.881C37.8202 189.881 39.2859 188.415 39.2859 186.607C39.2859 184.799 37.8202 183.333 36.0121 183.333C34.204 183.333 32.7383 184.799 32.7383 186.607C32.7383 188.415 34.204 189.881 36.0121 189.881Z" fill="#0BCEB2"/>
<path d="M39.2855 142.411C41.0936 142.411 42.5593 140.945 42.5593 139.137C42.5593 137.329 41.0936 135.863 39.2855 135.863C37.4775 135.863 36.0117 137.329 36.0117 139.137C36.0117 140.945 37.4775 142.411 39.2855 142.411Z" fill="#0BCEB2"/>
<path d="M10.776 18.0241L13.2101 14.824L11.673 13.9531L10.1114 17.5379H10.0591L8.47126 13.9777L6.90802 14.8747L9.31591 17.9996V18.0503L5.55103 17.5641V19.3058L9.3421 18.8196V18.8704L6.90802 21.9936L8.36814 22.9168L10.0345 19.3058H10.0836L11.6207 22.8906L13.2347 21.969L10.776 18.8949V18.8442L14.6424 19.3058V17.5641L10.776 18.0749V18.0241Z" fill="#0BCEB2"/>
<path d="M133.861 8.29425L132.458 10.0932L133.3 10.6236L134.259 8.54469H134.288L135.172 10.6088L136.102 10.0785L134.686 8.30734V8.27788L136.912 8.54469V7.54127L134.686 7.83591V7.80645L136.087 5.9633L135.203 5.4624L134.303 7.52654H134.274L133.36 5.4755L132.458 5.99276L133.846 7.79172V7.82118L131.677 7.54127V8.54469L133.861 8.26478V8.29425Z" fill="#0BCEB2"/>
<path d="M268.452 53.5479V51.8406L264.659 52.3431V52.2924L267.048 49.1528L265.54 48.2983L264.008 51.8144H263.955L262.399 48.3229L260.865 49.2035L263.227 52.2678V52.3186L259.534 51.8406V53.5479L263.252 53.0716V53.1223L260.865 56.1866L262.297 57.0918L263.931 53.5479H263.98L265.488 57.0656L267.07 56.162L264.659 53.1468V53.0961L268.452 53.5479Z" fill="#0BCEB2"/>
<path d="M233.166 94.2631L235.225 91.554L233.925 90.8174L232.603 93.8506H232.56L231.216 90.8387L229.894 91.5982L231.932 94.2418V94.2843L228.745 93.8735V95.3467L231.953 94.9342V94.9784L229.894 97.622L231.128 98.4028L232.539 95.3467H232.58L233.881 98.3799L235.246 97.6007L233.166 94.9997V94.9555L236.438 95.3467V93.8735L233.166 94.3056V94.2631Z" fill="#0BCEB2"/>
<path d="M193.407 250.446H179.808C178.983 250.51 178.213 250.883 177.651 251.49C177.09 252.097 176.778 252.893 176.778 253.72C176.778 254.547 177.09 255.344 177.651 255.95C178.213 256.557 178.983 256.93 179.808 256.994H193.407C194.231 256.93 195.001 256.557 195.563 255.95C196.125 255.344 196.437 254.547 196.437 253.72C196.437 252.893 196.125 252.097 195.563 251.49C195.001 250.883 194.231 250.51 193.407 250.446ZM95.1927 250.446H81.5933C80.7689 250.51 79.9989 250.883 79.4372 251.49C78.8755 252.097 78.5635 252.893 78.5635 253.72C78.5635 254.547 78.8755 255.344 79.4372 255.95C79.9989 256.557 80.7689 256.93 81.5933 256.994H95.1927C96.0172 256.93 96.7872 256.557 97.3489 255.95C97.9106 255.344 98.2226 254.547 98.2226 253.72C98.2226 252.893 97.9106 252.097 97.3489 251.49C96.7872 250.883 96.0172 250.51 95.1927 250.446ZM170.238 250.446H104.762C103.894 250.446 103.061 250.791 102.447 251.405C101.833 252.019 101.488 252.852 101.488 253.72C101.488 254.588 101.833 255.421 102.447 256.035C103.061 256.649 103.894 256.994 104.762 256.994H130.854V260.268H117.857C116.989 260.268 116.156 260.613 115.542 261.227C114.928 261.841 114.584 262.673 114.584 263.542C114.584 264.41 114.928 265.243 115.542 265.856C116.156 266.47 116.989 266.815 117.857 266.815H158.78C159.648 266.815 160.481 266.47 161.095 265.856C161.709 265.243 162.054 264.41 162.054 263.542C162.054 262.673 161.709 261.841 161.095 261.227C160.481 260.613 159.648 260.268 158.78 260.268H144.146V256.994H170.238C171.107 256.994 171.939 256.649 172.553 256.035C173.167 255.421 173.512 254.588 173.512 253.72C173.512 252.852 173.167 252.019 172.553 251.405C171.939 250.791 171.107 250.446 170.238 250.446Z" fill="#0BCEB2"/>
<defs>
<linearGradient id="paint0_linear_47_560" x1="98.1062" y1="57.7451" x2="98.1062" y2="218.697" gradientUnits="userSpaceOnUse">
<stop stop-color="#0DC143"/>
<stop offset="1" stop-color="#0DC143" stop-opacity="0"/>
</linearGradient>
<linearGradient id="paint1_linear_47_560" x1="120.869" y1="32.7383" x2="120.869" y2="220.176" gradientUnits="userSpaceOnUse">
<stop stop-color="#0DC143"/>
<stop offset="1" stop-color="#0DC143" stop-opacity="0"/>
</linearGradient>
<linearGradient id="paint2_linear_47_560" x1="121.131" y1="18.0059" x2="121.131" y2="219.738" gradientUnits="userSpaceOnUse">
<stop stop-color="#0DC143"/>
<stop offset="1" stop-color="#0DC143" stop-opacity="0"/>
</linearGradient>
<linearGradient id="paint3_linear_47_560" x1="3.27381" y1="235.714" x2="3.27381" y2="242.068" gradientUnits="userSpaceOnUse">
<stop stop-color="#0DC143"/>
<stop offset="1" stop-color="#0DC143" stop-opacity="0"/>
</linearGradient>
<linearGradient id="paint4_linear_47_560" x1="137.5" y1="235.714" x2="137.5" y2="242.068" gradientUnits="userSpaceOnUse">
<stop stop-color="#0DC143"/>
<stop offset="1" stop-color="#0DC143" stop-opacity="0"/>
</linearGradient>
<linearGradient id="paint5_linear_47_560" x1="271.726" y1="235.714" x2="271.726" y2="242.068" gradientUnits="userSpaceOnUse">
<stop stop-color="#0DC143"/>
<stop offset="1" stop-color="#0DC143" stop-opacity="0"/>
</linearGradient>
<linearGradient id="paint6_linear_47_560" x1="137.5" y1="106.399" x2="137.5" y2="238.267" gradientUnits="userSpaceOnUse">
<stop stop-color="#0DC143"/>
<stop offset="1" stop-color="#0DC143" stop-opacity="0"/>
</linearGradient>
</defs>
</svg>
