<svg width="393" height="317" viewBox="0 0 393 317" fill="none" xmlns="http://www.w3.org/2000/svg">
<g opacity="0.4">
<path d="M-130.503 463.713L-130.178 462.85C-117.782 430.005 -115.182 394.669 -112.668 360.495C-110.206 327.013 -107.656 292.389 -95.7365 260.961C-89.7827 245.259 -78.1306 232.129 -66.8607 219.431C-51.0428 201.61 -36.1037 184.776 -35.4506 161.406C-34.7915 137.82 -49.4202 117.057 -63.5647 96.9746C-73.4861 82.8952 -83.7444 68.3336 -88.5815 52.9584C-100.246 15.9027 -101.729 -30.6783 -103.039 -71.7749C-103.454 -84.7709 -103.846 -97.0475 -104.517 -108.82L-104.556 -109.457L-103.918 -109.47C-88.4733 -109.831 -71.2616 -111.623 -53.0387 -113.519C-13.7359 -117.611 26.8971 -121.84 58.9635 -113.078C76.4914 -108.287 91.8337 -96.9452 106.67 -85.9764C125.372 -72.1497 144.715 -57.8517 168.284 -57.0738C195.067 -56.219 219.067 -73.5149 242.263 -90.2645C260.392 -103.355 279.139 -116.893 299.108 -121.629C348.178 -133.268 421.335 -109.533 442.593 -101.984L443.116 -101.798L442.984 -101.259C438.752 -83.7957 429.27 -66.1611 419.234 -47.4942C402.917 -17.1389 386.042 14.2503 394.088 44.232C399.028 62.6341 410.701 79.7117 421.992 96.2281C437.812 119.373 454.175 143.307 453.375 172.061C452.755 194.342 440.952 212.706 429.535 230.464C419.153 246.618 408.419 263.321 406.381 282.761C402.844 316.473 422.569 352.966 441.644 388.256C452.604 408.533 462.956 427.686 468.669 445.729L469 446.77L467.937 446.514C433.77 438.306 398.35 438.985 364.084 439.637C330.199 440.282 295.156 440.95 262.258 432.778C247.931 429.217 234.743 421.808 221.993 414.644C204.757 404.959 186.937 394.946 166.435 394.72C166.171 394.717 165.909 394.715 165.647 394.715C141.265 394.715 122.717 407.26 103.088 420.533C91.9841 428.043 80.5006 435.81 67.9065 441.037C18.806 461.416 -42.2291 462.275 -96.0795 463.034C-107.729 463.198 -118.734 463.353 -129.582 463.684L-130.503 463.713ZM-103.253 -108.254C-102.6 -96.661 -102.214 -84.586 -101.808 -71.814C-100.502 -30.7957 -99.0177 15.6934 -87.4078 52.5879C-82.6246 67.7813 -72.4234 82.2614 -62.5565 96.266C-48.2946 116.51 -33.5482 137.445 -34.2164 161.439C-34.8816 185.257 -50.6695 203.047 -65.9397 220.25C-77.1344 232.863 -88.711 245.908 -94.5868 261.397C-106.441 292.659 -108.981 327.19 -111.437 360.586C-113.935 394.55 -116.518 429.658 -128.7 462.424C-118.141 462.112 -107.422 461.961 -96.0947 461.801C-42.3587 461.044 18.5502 460.186 67.4309 439.9C79.9137 434.719 91.3461 426.988 102.399 419.512C121.519 406.58 141.232 393.26 166.447 393.486C187.268 393.716 205.227 403.809 222.595 413.567C235.276 420.694 248.388 428.061 262.553 431.58C295.294 439.714 330.241 439.054 364.062 438.402C398.043 437.757 433.171 437.085 467.161 445.064C461.418 427.434 451.279 408.676 440.561 388.843C421.395 353.387 401.58 316.724 405.153 282.632C407.224 262.901 418.039 246.072 428.499 229.799C439.823 212.181 451.533 193.964 452.14 172.028C452.929 143.672 436.684 119.907 420.974 96.9234C409.626 80.323 397.89 63.1566 392.896 44.5511C384.724 14.0965 401.716 -17.5106 418.148 -48.0768C428.042 -66.4816 437.394 -83.8739 441.653 -101.009C419.827 -108.725 347.748 -131.903 299.391 -120.428C279.663 -115.751 261.015 -102.285 242.985 -89.2649C219.618 -72.392 195.417 -54.9577 168.242 -55.8427C144.29 -56.6311 124.791 -71.0465 105.936 -84.9864C91.1925 -95.8873 75.9434 -107.158 58.6386 -111.889C26.7948 -120.588 -13.7207 -116.372 -52.9091 -112.292C-70.9093 -110.42 -87.9225 -108.648 -103.253 -108.254Z" fill="url(#paint0_linear_47_5403)"/>
<path d="M28.7755 335.365C-0.77755 335.365 -30.3363 329.344 -59.0827 323.488C-75.1536 320.214 -91.7754 316.829 -108.075 314.572L-107.906 313.35C-91.5676 315.613 -74.9278 319.003 -58.8359 322.281C-24.488 329.277 11.0099 336.517 46.2069 333.382C62.1965 331.96 78.5202 329.213 94.311 326.558C108.588 324.157 123.349 321.674 137.87 320.166C157.14 318.163 176.706 313.879 195.624 309.738C218.269 304.778 241.685 299.651 264.787 298.394C291.857 296.91 315.618 304.08 338.591 311.002C360.836 317.705 383.842 324.63 410.21 324.004L410.24 325.237C383.697 325.929 360.574 318.914 338.236 312.183C315.365 305.292 291.742 298.153 264.853 299.625C241.853 300.878 218.486 305.993 195.886 310.942C176.935 315.091 157.339 319.382 137.996 321.391C123.515 322.896 108.771 325.376 94.5157 327.774C78.7036 330.433 62.3528 333.183 46.3151 334.61C40.4726 335.129 34.6242 335.365 28.7755 335.365Z" fill="url(#paint1_linear_47_5403)"/>
<path d="M59.5239 312.652C51.9414 312.652 44.639 312.462 37.7519 312.079C6.75111 310.349 -19.7677 300.738 -47.8458 290.562C-64.1633 284.649 -81.038 278.534 -98.8909 274.103L-98.5956 272.905C-80.6796 277.352 -63.7721 283.479 -47.4244 289.403C-19.4366 299.547 7.00082 309.127 37.8182 310.847C64.6921 312.354 97.9596 310.862 129.099 306.778C152.045 303.768 173.35 294.149 193.957 284.848C214.055 275.774 234.84 266.391 256.988 263.265C281.801 258.201 304.451 263.937 324.279 280.332C348.2 300.133 375.42 305.706 405.178 296.891L405.527 298.074C375.351 307.015 347.748 301.361 323.49 281.284C303.969 265.139 281.677 259.482 257.199 264.48C235.186 267.586 214.483 276.933 194.463 285.97C173.778 295.309 152.388 304.965 129.261 308C106.027 311.049 81.6029 312.652 59.5239 312.652Z" fill="url(#paint2_linear_47_5403)"/>
<path d="M70.2813 286.036C56.4953 286.036 43.1907 285.44 31.2467 284.245C6.41029 281.759 -15.1479 273.35 -35.9958 265.218C-52.3764 258.83 -69.3172 252.222 -88.082 248.294L-87.8293 247.087C-68.9652 251.037 -51.976 257.662 -35.5473 264.07C-13.8203 272.544 6.70254 280.549 31.367 283.017C56.0767 285.49 86.6139 285.392 115.156 282.748C140.907 280.362 164.888 270.938 188.081 261.825C207.586 254.158 227.76 246.231 248.96 242.479C279.349 237.104 305.516 246.818 333.218 257.103C356.525 265.756 380.627 274.699 407.657 273.975L407.693 275.206C380.344 275.948 356.203 266.951 332.79 258.259C305.248 248.032 279.241 238.375 249.177 243.692C228.094 247.423 207.98 255.327 188.532 262.971C165.258 272.118 141.196 281.574 115.27 283.976C100.448 285.349 85.0878 286.036 70.2813 286.036Z" fill="url(#paint3_linear_47_5403)"/>
<path d="M39.654 262.644C37.4927 262.644 35.3585 262.608 33.2576 262.531C12.4248 261.777 -4.54302 253.627 -20.9509 245.745C-37.0668 238.006 -53.7308 230.002 -73.7178 229.427L-73.6815 228.196C-53.4328 228.777 -36.6485 236.838 -20.4183 244.634C-4.1217 252.461 12.7288 260.553 33.2999 261.3C48.8499 261.864 66.224 260.168 83.0144 258.527C88.8116 257.961 94.287 257.427 99.5877 256.995C133.487 254.234 166.875 246.845 199.161 239.699C211.286 237.017 223.823 234.242 236.267 231.736C274.187 224.105 305.995 231.634 339.669 239.609C363.509 245.256 388.158 251.094 415.625 251.312L415.613 252.546C388.011 252.325 363.292 246.47 339.383 240.809C305.842 232.865 274.158 225.364 236.507 232.946C224.079 235.449 211.548 238.221 199.429 240.903C167.101 248.057 133.671 255.455 99.69 258.223C94.3955 258.655 88.926 259.19 83.1346 259.756C68.566 261.178 53.5667 262.644 39.654 262.644Z" fill="url(#paint4_linear_47_5403)"/>
<path d="M26.3643 245.724C8.83355 245.724 -3.80891 237.075 -16.0689 228.687C-28.1784 220.405 -40.6975 211.84 -57.9092 211.706L-57.8969 210.472C-40.3122 210.61 -27.6337 219.284 -15.3734 227.67C-2.33705 236.587 11.1814 245.806 30.4459 244.335C40.1232 243.596 49.5508 240.391 59.5323 236.995C68.6408 233.898 78.0595 230.695 87.6705 229.554C111.086 226.779 134.926 225.936 157.983 225.122C184.676 224.18 212.279 223.206 239.448 219.228C280.259 213.257 315.594 217.75 352.997 222.509C377.207 225.59 402.242 228.776 429.237 228.966L429.231 230.2C402.161 230.009 377.087 226.818 352.841 223.733C315.528 218.983 280.277 214.501 239.628 220.447C212.39 224.436 184.752 225.411 158.025 226.354C134.995 227.167 111.179 228.009 87.815 230.779C78.3331 231.903 68.9781 235.085 59.9296 238.163C50.3155 241.432 40.3731 244.814 30.5421 245.563C29.1183 245.671 27.7248 245.724 26.3643 245.724Z" fill="url(#paint5_linear_47_5403)"/>
<path d="M21.6356 230.941C7.17829 230.941 -2.18341 221.76 -11.2796 212.838C-20.6169 203.68 -30.2763 194.209 -45.5825 193.983L-45.5646 192.749C-29.7647 192.984 -19.9277 202.63 -10.4156 211.958C0.468662 222.635 10.7781 232.711 29.1968 228.896C37.4476 227.184 44.16 221.933 51.2697 216.375C59.346 210.056 67.6987 203.522 79.2605 201.269C106.442 195.967 138.099 199.4 168.708 202.72C194.39 205.501 220.942 208.376 244.33 205.978C293.344 200.944 337.586 202.448 384.42 204.041C403.407 204.687 423.039 205.355 443.291 205.576L443.279 206.811C423.009 206.588 403.371 205.92 384.378 205.274C337.592 203.68 293.389 202.178 244.457 207.204C220.933 209.622 194.318 206.734 168.576 203.945C138.053 200.639 106.493 197.219 79.4954 202.479C68.2255 204.676 59.993 211.117 52.0282 217.346C44.8042 222.996 37.9802 228.334 29.4496 230.103C26.6835 230.676 24.0827 230.941 21.6356 230.941Z" fill="url(#paint6_linear_47_5403)"/>
<path d="M20.1514 213.903C7.27443 213.903 0.601181 204.531 -6.39446 194.709C-13.5735 184.628 -20.9992 174.205 -35.9534 173.947L-35.9293 172.713C-20.3552 172.983 -12.7487 183.664 -5.389 193.994C2.82539 205.531 10.5796 216.423 28.8717 211.376C36.4332 209.29 41.4931 202.256 46.8539 194.809C53.5453 185.513 61.1278 174.978 75.2359 171.58C101.523 165.241 136.87 172.659 171.05 179.826C199.399 185.771 226.155 191.376 248.021 189.746C311.69 184.957 377.53 180.002 451.55 182.798L451.502 184.03C377.551 181.244 311.747 186.191 248.111 190.974C226.098 192.641 199.233 186.996 170.797 181.033C136.75 173.89 101.547 166.508 75.5251 172.778C61.8593 176.069 54.4183 186.408 47.8532 195.53C42.363 203.157 37.1797 210.363 29.1968 212.565C25.8648 213.485 22.8697 213.903 20.1514 213.903Z" fill="url(#paint7_linear_47_5403)"/>
<path d="M21.0215 190.587C8.36399 190.587 1.47404 181.222 -5.74722 171.407C-13.1701 161.317 -20.8456 150.883 -35.5742 150.444L-35.5379 149.213C-20.2077 149.67 -12.3514 160.348 -4.7538 170.676C3.78577 182.286 11.8556 193.255 29.889 187.961C37.601 185.702 42.4563 178.105 47.5945 170.062C54.1112 159.865 61.498 148.307 76.3708 144.615C102.462 138.134 138.348 147.336 173.043 156.235C200.967 163.397 227.318 170.145 248.37 169.115C271.265 167.974 293.581 166.073 315.161 164.236C360.658 160.359 403.636 156.695 451.484 159.59L451.412 160.821C403.642 157.937 360.718 161.591 315.266 165.464C293.675 167.303 271.349 169.205 248.43 170.346C227.197 171.4 200.753 164.615 172.736 157.43C138.192 148.568 102.471 139.403 76.6658 145.813C62.2747 149.385 55.0264 160.723 48.633 170.726C43.3653 178.969 38.3895 186.756 30.2383 189.144C26.8459 190.137 23.7938 190.587 21.0215 190.587Z" fill="url(#paint8_linear_47_5403)"/>
<path d="M26.2082 161.355C13.5657 161.355 3.22916 153.476 -7.58921 145.231C-18.2238 137.125 -29.2194 128.744 -42.9065 128.097L-42.8461 126.865C-28.7802 127.531 -17.6247 136.031 -6.8396 144.252C6.456 154.385 19.0322 163.96 35.9486 158.535C44.3079 155.857 49.5333 149.229 55.0688 142.214C62.037 133.378 69.2432 124.241 83.5021 121.133C109.566 115.453 144.05 126.301 177.414 136.791C203.029 144.845 227.227 152.453 246.937 152.659C280.241 152.982 314.429 148.162 347.558 143.475C379.24 138.993 411.998 134.358 444.128 134.184L444.134 135.419C412.089 135.59 379.372 140.22 347.733 144.696C314.559 149.39 280.25 154.253 246.925 153.893C227.032 153.684 202.749 146.05 177.043 137.967C143.83 127.526 109.473 116.729 83.7669 122.337C69.9386 125.351 62.8709 134.312 56.0349 142.977C50.3822 150.145 45.0421 156.915 36.325 159.709C32.776 160.846 29.4169 161.355 26.2082 161.355Z" fill="url(#paint9_linear_47_5403)"/>
<path d="M260.221 141.951C255.113 141.951 250.02 141.716 244.933 141.207C225.452 139.257 203.972 130.067 181.233 120.338C152.207 107.919 122.221 95.0625 96.3463 98.3104C82.7495 100.014 74.7669 106.991 67.0491 113.737C60.9806 119.039 54.7077 124.522 45.8371 127.252C26.7382 133.136 5.51382 124.498 -15.012 116.145C-29.6438 110.19 -44.7755 104.033 -58.7002 103.437L-58.6459 102.205C-44.5076 102.811 -29.2767 109.008 -14.5453 115.004C5.77584 123.274 26.792 131.825 45.4758 126.074C54.0937 123.422 59.9934 118.267 66.2363 112.808C74.0956 105.941 82.2227 98.8387 96.1955 97.0882C122.35 93.8012 152.538 106.72 181.718 119.203C204.369 128.894 225.762 138.048 245.053 139.979C281.737 143.645 319.191 132.945 355.4 122.591C379.339 115.745 404.097 108.665 428.265 105.887L428.403 107.112C404.338 109.878 379.631 116.944 355.737 123.776C324.42 132.731 292.179 141.949 260.221 141.951Z" fill="url(#paint10_linear_47_5403)"/>
<path d="M263.67 131.04C257.12 131.04 250.483 130.384 243.747 128.922C224.699 124.791 205.78 113.575 187.485 102.728C163.811 88.694 139.333 74.1824 113.63 74.0801C113.56 74.0785 113.491 74.0785 113.422 74.0785C99.97 74.0785 90.2413 79.2423 79.9408 84.7073C72.7586 88.518 65.3327 92.4597 56.5857 94.4268C31.2345 100.126 0.558891 93.3372 -29.1085 86.7749C-45.8806 83.0635 -61.7228 79.5598 -76.0627 78.3919L-75.9604 77.1639C-61.5391 78.3377 -45.655 81.8506 -28.8406 85.571C0.697327 92.1058 31.2437 98.8619 56.3147 93.2225C64.8993 91.2918 72.2531 87.3908 79.3628 83.6189C89.3955 78.2958 99.8344 72.8083 113.636 72.8459C139.673 72.9513 164.298 87.5501 188.114 101.669C206.325 112.465 225.153 123.629 244.005 127.718C280.945 135.731 315.076 119.183 348.091 103.183C367.593 93.7299 387.761 83.9546 408.542 79.1039L408.825 80.3048C388.176 85.124 368.072 94.8691 348.63 104.292C321.419 117.483 293.446 131.04 263.67 131.04Z" fill="url(#paint11_linear_47_5403)"/>
<path d="M272.327 120.567C263.556 120.567 254.312 118.264 244.613 113.651C227.107 107.414 212.171 95.3453 197.728 83.6737C179.105 68.628 159.85 53.0672 134.86 49.9833C120.336 48.1832 106.396 52.6714 92.9353 57.0073C84.3325 59.7796 75.4379 62.6452 66.4437 63.8584C33.7149 68.271 -0.530571 64.3294 -33.6477 60.5202C-51.0668 58.5155 -69.0793 56.4429 -86.4414 55.6619L-86.3871 54.4308C-68.9797 55.2134 -50.9466 57.2887 -33.5062 59.295C-0.464333 63.0998 33.7001 67.0264 66.2812 62.6363C75.1638 61.4382 84.0046 58.5892 92.5562 55.8351C106.144 51.4554 120.186 46.9297 135.01 48.7584C160.349 51.8873 179.746 67.5593 198.502 82.7151C212.866 94.3219 227.718 106.323 245.086 112.513C271.533 125.089 294.527 120.172 313.49 97.9144C335.873 70.9034 361.814 56.4716 395.127 52.5074L395.271 53.7323C362.293 57.6561 336.608 71.9479 314.435 98.7075C302.031 113.267 287.935 120.565 272.327 120.567Z" fill="url(#paint12_linear_47_5403)"/>
<path d="M275.274 100.553C266.921 100.553 258.044 97.7008 248.677 91.9921C232.296 85.0525 220.334 73.2272 208.769 61.792C193.897 47.0906 179.852 33.2053 156.891 28.2807C140.588 24.786 121.823 28.8904 103.679 32.862C92.8121 35.24 82.5477 37.4855 72.774 38.2157C34.4074 41.0887 -5.09077 38.0622 -43.2888 35.1361C-59.7598 33.8751 -76.7881 32.5716 -93.3796 31.7739L-93.3192 30.5428C-76.7126 31.3405 -59.6725 32.6453 -43.1954 33.9066C-5.03959 36.8292 34.4135 39.8545 72.6837 36.9874C82.3702 36.2621 92.5924 34.0255 103.413 31.658C121.691 27.6606 140.582 23.5219 157.149 27.0768C180.463 32.0751 195.293 46.7355 209.633 60.9145C221.12 72.2686 232.995 84.0094 249.24 90.8981C272.905 105.31 293.29 101.077 309.923 78.3518C328.134 50.5222 356.005 33.8496 390.509 30.1606L390.642 31.3855C356.516 35.0338 328.956 51.5187 310.935 79.0534C300.45 93.3782 288.518 100.553 275.274 100.553Z" fill="url(#paint13_linear_47_5403)"/>
<path d="M276.279 63.4708C270.055 63.4708 263.712 62.5181 257.22 60.3629C241.763 55.2309 228.666 46.4413 215.999 37.9424C201.331 28.0978 186.163 17.9178 167.281 13.4312C149.148 9.12239 127.268 10.1217 106.092 11.0834C95.0756 11.5876 84.6727 12.0632 74.8688 11.8179C36.7188 10.8756 -3.16148 9.15999 -41.7269 7.49985C-60.034 6.71262 -78.9644 5.89704 -97.2266 5.18811L-97.1785 3.95703C-78.9133 4.66597 -59.9828 5.48001 -41.6757 6.26877C-3.11335 7.92737 36.7611 9.64453 74.899 10.5868C84.6577 10.8291 95.0423 10.355 106.038 9.85228C127.289 8.88443 149.266 7.88205 167.564 12.2303C186.666 16.7693 201.927 27.0128 216.689 36.9175C229.283 45.3711 242.31 54.1141 257.611 59.192C288.946 69.5905 315.829 52.1183 344.289 33.6139C360.122 23.3193 376.494 12.6741 393.682 7.31491L394.049 8.49174C377.024 13.8001 360.724 24.3984 344.963 34.6477C323.098 48.8659 300.634 63.4693 276.279 63.4708Z" fill="url(#paint14_linear_47_5403)"/>
<path d="M277.071 22.3302C256.807 22.3302 234.367 15.8241 212.655 9.52995C197.879 5.24675 183.921 1.2012 170.583 -0.963207C88.1913 -14.3294 1.99445 -21.4332 -100.682 -23.3205L-100.658 -24.5547C2.07589 -22.6658 88.3267 -15.5562 170.782 -2.17917C184.192 -0.00428581 198.186 4.05173 212.998 8.34541C234.626 14.6155 256.985 21.0964 277.071 21.0964C277.245 21.0964 277.423 21.0964 277.598 21.0948C305.227 20.9367 326.879 10.6393 349.804 -0.261669C366.512 -8.20852 383.79 -16.4244 403.934 -20.6882L404.187 -19.4812C384.191 -15.2488 366.979 -7.06466 350.333 0.850439C327.282 11.813 305.507 22.1678 277.604 22.329C277.426 22.329 277.248 22.3302 277.071 22.3302Z" fill="url(#paint15_linear_47_5403)"/>
<path d="M437.382 441.43C432.081 425.441 422.603 407.525 412.57 388.557C394.431 354.266 375.672 318.807 377.508 287.939C378.755 266.937 390.323 248.848 401.511 231.357C413.428 212.723 425.751 193.454 425.483 170.708C425.173 144.094 408.829 122.625 393.022 101.861C380.648 85.6068 367.855 68.7986 363.069 49.7643C355.613 20.0969 376.299 -15.6432 396.303 -50.2066C408.26 -70.8646 419.553 -90.3776 424.222 -107.544L425.414 -107.219C420.7 -89.8989 409.367 -70.3184 397.369 -49.5895C377.491 -15.2382 356.932 20.2822 364.267 49.4635C368.987 68.2539 381.705 84.9598 394.004 101.115C409.933 122.036 426.401 143.671 426.717 170.693C426.988 193.807 414.563 213.234 402.549 232.02C391.445 249.38 379.968 267.33 378.737 288.011C376.925 318.536 395.599 353.838 413.66 387.98C423.719 406.995 433.219 424.955 438.55 441.042L437.382 441.43Z" fill="url(#paint16_linear_47_5403)"/>
<path d="M398.32 438.802C394.422 421.543 386.151 401.422 377.391 380.118C363.087 345.329 348.296 309.357 350.343 280.688C351.748 260.982 362.103 243.745 372.114 227.075C383.089 208.805 394.434 189.916 393.531 168.07C392.607 145.672 378.845 128.58 365.538 112.052C354.075 97.8176 342.224 83.0967 338.973 65.2229C333.14 33.1186 352.052 -5.85426 370.341 -43.5449C382.644 -68.8915 394.26 -92.8322 398.447 -114.216L399.657 -113.978C395.439 -92.4392 383.788 -68.4279 371.452 -43.0061C353.247 -5.49455 334.425 33.295 340.189 65.0031C343.38 82.5668 354.608 96.514 366.498 111.28C379.932 127.963 393.82 145.216 394.765 168.019C395.683 190.233 384.239 209.285 373.171 227.709C363.232 244.255 352.955 261.363 351.571 280.775C349.548 309.155 364.282 344.992 378.532 379.65C387.309 401.002 395.602 421.169 399.524 438.532L398.32 438.802Z" fill="url(#paint17_linear_47_5403)"/>
<path d="M355.156 439.23C353.13 414.79 346.447 387.588 339.988 361.281C332.125 329.26 323.995 296.147 323.944 267.138C323.914 248.454 333.155 232.66 342.092 217.388C351.342 201.575 360.911 185.224 359.773 165.913C358.677 147.382 348.431 133.943 338.522 120.949C330.335 110.212 321.867 99.1089 318.375 85.0912C317.704 55.565 325.479 27.7806 341.466 2.37394C361.588 -35.0744 371.702 -77.3556 370.694 -119.862L371.928 -119.893C372.939 -77.1719 362.774 -34.6787 342.528 2.99411C326.653 28.2291 318.944 55.7835 319.591 84.9284C323.002 98.564 331.391 109.563 339.5 120.201C349.524 133.342 359.885 146.933 361.001 165.841C362.163 185.525 352.501 202.04 343.154 218.01C334.302 233.142 325.148 248.787 325.178 267.135C325.226 295.997 333.339 329.035 341.186 360.987C347.658 387.341 354.349 414.591 356.384 439.128L355.156 439.23Z" fill="url(#paint18_linear_47_5403)"/>
<path d="M316.316 439.198L315.082 439.161C315.985 407.267 311.299 373.658 306.765 341.155C302.666 311.772 298.43 281.39 298.614 253.361C298.722 236.962 306.187 223.444 313.408 210.373C321.211 196.244 328.582 182.898 327.691 166.045C326.9 151.013 320.151 141.066 313.008 130.536C307.554 122.495 301.916 114.181 298.999 103.319L298.978 103.152C299.351 72.237 306.431 42.2657 320.019 14.069C338.952 -30.1386 346.826 -79.3356 342.185 -124.437L343.413 -124.563C348.076 -79.2573 340.165 -29.8421 321.139 14.5791C307.632 42.6119 300.595 72.3785 300.212 103.082C303.081 113.703 308.647 121.908 314.029 129.844C321.271 140.521 328.113 150.604 328.926 165.979C329.832 183.186 322.029 197.309 314.486 210.969C307.343 223.906 299.953 237.283 299.848 253.37C299.662 281.308 303.704 310.295 307.984 340.985C312.527 373.537 317.219 407.199 316.316 439.198Z" fill="url(#paint19_linear_47_5403)"/>
<path d="M283.693 435.769L282.465 435.657C285.06 406.776 287.974 372.607 289.891 338.176C291.233 310.978 287.694 284.264 279.362 258.779C274.847 244.964 276.279 229.446 283.296 216.203C284.765 213.429 286.342 210.666 287.868 207.995C294.28 196.768 300.911 185.16 300.784 170.254C300.676 156.966 295.345 148.473 289.701 139.482C285.066 132.095 280.271 124.457 278.573 113.922C279.958 82.1596 286.818 51.1573 298.954 21.6481C316.169 -24.781 321.127 -73.409 313.677 -122.866L314.899 -123.05C322.376 -73.3849 317.4 -24.5507 300.101 22.0965C288.013 51.493 281.183 82.3569 279.798 113.851C281.448 124.013 286.177 131.545 290.746 138.828C296.233 147.569 301.904 156.606 302.018 170.245C302.145 185.484 295.432 197.238 288.94 208.605C287.42 211.27 285.845 214.024 284.385 216.781C277.525 229.729 276.12 244.898 280.536 258.397C288.91 284.025 292.474 310.888 291.122 338.241C289.202 372.694 286.291 406.875 283.693 435.769Z" fill="url(#paint20_linear_47_5403)"/>
<path d="M260.576 431.523L259.348 431.424C259.739 426.613 260.136 421.838 260.531 417.087C262.789 389.868 264.923 364.16 265.916 336.937C266.843 315.581 261.178 292.927 255.7 271.018C253.49 262.188 251.404 253.847 249.749 245.651C249.436 244.087 249.249 242.678 249.18 241.342C248.473 227.73 252.383 218.497 256.525 208.721C260.122 200.237 263.839 191.463 264.516 179.302C265.187 167.23 262.349 155.781 259.604 144.708C256.913 133.857 254.135 122.639 254.568 110.704C259.366 79.9517 266.915 49.482 277.008 20.072C292.019 -24.8338 296.294 -71.3954 289.708 -118.312L290.93 -118.483C297.54 -71.3756 293.25 -24.6263 278.176 20.4678C268.104 49.8146 260.573 80.2118 255.793 110.821C255.371 122.511 258.132 133.644 260.799 144.411C263.568 155.572 266.428 167.115 265.744 179.372C265.058 191.746 261.295 200.621 257.659 209.203C253.574 218.843 249.719 227.948 250.414 241.278C250.477 242.553 250.655 243.905 250.959 245.407C252.608 253.575 254.691 261.902 256.895 270.719C262.397 292.713 268.083 315.456 267.15 336.987C266.154 364.234 264.02 389.955 261.759 417.187C261.365 421.94 260.967 426.715 260.576 431.523Z" fill="url(#paint21_linear_47_5403)"/>
<path d="M240.411 424.334L239.177 424.301C240.276 382.501 234.154 342.979 228.23 304.758C221.963 264.303 215.479 222.47 218.016 179.086C220.602 134.815 230.559 92.4299 240.189 51.4387C251.862 1.74982 263.932 -49.6294 262.812 -104.453L264.047 -104.478C265.169 -49.5 253.081 1.95757 241.39 51.7201C231.769 92.6602 221.824 134.994 219.244 179.158C216.719 222.411 223.191 264.178 229.449 304.568C235.379 342.845 241.513 382.421 240.411 424.334Z" fill="url(#paint22_linear_47_5403)"/>
<path d="M218.627 412.654C215.72 353.274 203.435 312.423 181.79 257.812C171.754 232.506 167.125 200.741 169.404 172.841C171.887 142.395 181.429 118.139 194.986 91.0822C227.516 26.1607 237.826 -18.1221 235.842 -84.4099L237.076 -84.4463C239.066 -17.9264 228.723 26.5053 196.088 91.6345C182.594 118.563 173.1 142.693 170.632 172.94C168.368 200.661 172.968 232.219 182.934 257.358C204.63 312.092 216.942 353.042 219.861 412.594L218.627 412.654Z" fill="url(#paint23_linear_47_5403)"/>
<path d="M198.86 402.279C193.866 366.889 177.735 332.835 162.134 299.903C141.696 256.761 120.565 212.152 124.319 164.103C126.916 130.83 146.786 99.1397 165.882 72.5291C202.665 21.2568 209.82 -3.18816 206.178 -65.1281L207.406 -65.2002C211.072 -2.90058 203.875 21.6828 166.881 73.2485C147.887 99.7208 128.123 131.229 125.547 164.2C121.82 211.921 142.882 256.38 163.248 299.375C178.888 332.391 195.061 366.531 200.082 402.107L198.86 402.279Z" fill="url(#paint24_linear_47_5403)"/>
<path d="M176.137 395.392C168.714 362.152 151.433 331.025 134.724 300.922C110.55 257.382 85.5545 212.357 90.0334 160.206C93.4979 119.907 113.377 94.6024 136.395 65.3009C139.829 60.927 143.384 56.4044 146.93 51.7645C178.108 10.9869 183.849 -1.72026 179.592 -55.8687L180.82 -55.9648C185.113 -1.38459 179.327 11.4219 147.911 52.5138C144.356 57.1601 140.801 61.6856 137.364 66.0622C114.469 95.209 94.6929 120.379 91.2617 160.311C86.8157 212.087 111.718 256.944 135.802 300.325C152.556 330.504 169.879 361.709 177.341 395.124L176.137 395.392Z" fill="url(#paint25_linear_47_5403)"/>
<path d="M155.72 395.014C147.914 362.376 130.233 331.611 113.136 301.861C88.0471 258.206 62.1031 213.064 66.3925 160.741C69.6644 120.834 89.4227 95.5157 112.299 66.1991C116.348 61.0097 120.538 55.644 124.686 50.113C155.392 9.19087 159.534 -4.93974 156.352 -57.8916L157.58 -57.9668C160.756 -5.19434 156.283 10.061 125.673 50.8534C121.516 56.3936 117.326 61.7636 113.272 66.9576C90.5154 96.1176 70.8656 121.301 67.6205 160.842C63.3644 212.782 89.2088 257.754 114.205 301.246C131.347 331.074 149.07 361.917 156.918 394.728L155.72 395.014Z" fill="url(#paint26_linear_47_5403)"/>
<path d="M136.843 400.035C128.939 369.246 112.82 339.445 97.2305 310.625C73.246 266.286 48.446 220.44 52.0911 169.074C54.6738 132.663 72.1835 106.18 90.7255 78.1442C96.0323 70.1163 101.523 61.8143 106.706 53.186C132.776 9.80011 136.13 -12.2456 134.125 -65.5273L135.359 -65.5723C137.373 -12.008 133.996 10.1614 107.766 53.8209C102.567 62.4721 97.0708 70.7845 91.7519 78.8244C73.3064 106.722 55.8808 133.072 53.3194 169.161C49.7013 220.169 74.4139 265.856 98.3139 310.038C113.939 338.924 130.094 368.793 138.035 399.728L136.843 400.035Z" fill="url(#paint27_linear_47_5403)"/>
<path d="M119.12 409.281C111.776 380.759 97.2733 351.872 83.2463 323.936C60.4057 278.44 36.7827 231.394 40.455 181.312C43.1669 144.284 64.6379 104.72 81.8857 72.9309C83.1137 70.6719 84.3207 68.4446 85.5068 66.2503C112.986 15.3707 113.404 -20.8753 111.779 -80.5605L113.013 -80.5938C114.644 -20.699 114.22 15.6808 86.5903 66.8372C85.4073 69.0315 84.1974 71.2591 82.9691 73.5197C65.7756 105.205 44.3769 144.639 41.6829 181.402C38.0378 231.145 61.5824 278.036 84.3478 323.383C98.4048 351.377 112.938 380.324 120.312 408.974L119.12 409.281Z" fill="url(#paint28_linear_47_5403)"/>
<path d="M102.068 420.411C94.9492 391.992 82.909 364.486 71.2689 337.885C51.5319 292.786 31.1235 246.154 34.3171 193.988C36.4242 159.48 49.4337 127.497 62.013 96.5649C66.802 84.7852 71.7565 72.6032 76.0459 60.4426C92.0536 15.0399 90.8346 -29.6313 89.5404 -76.9271C89.3625 -83.4937 89.1822 -90.0978 89.0465 -96.7455L90.2807 -96.7695C90.4132 -90.1262 90.5939 -83.5251 90.7745 -76.9601C92.0688 -29.5484 93.2937 15.2356 77.208 60.8519C72.9097 73.0412 67.9521 85.2365 63.1538 97.03C50.614 127.868 37.6433 159.757 35.5454 194.063C32.3728 245.931 52.7207 292.427 72.3977 337.391C84.0587 364.038 96.1202 391.592 103.266 420.11L102.068 420.411Z" fill="url(#paint29_linear_47_5403)"/>
<path d="M82.4004 432.807C75.9556 404.971 66.0284 378.457 56.4294 352.817C38.2212 304.18 21.0246 258.24 25.1395 203.449C27.4272 172.965 36.5238 143.765 45.3223 115.528C51.5319 95.5888 57.9555 74.9714 61.9378 54.0542C69.6467 13.5595 68.3582 -29.7675 67.1121 -71.668C66.7326 -84.3825 66.3415 -97.5274 66.2272 -110.186L67.4613 -110.198C67.5757 -97.5515 67.9668 -84.4124 68.3432 -71.7056C69.5924 -29.7373 70.8836 13.6591 63.1479 54.286C59.1535 75.2707 52.7207 95.9229 46.499 115.895C37.7215 144.066 28.6463 173.198 26.3675 203.543C22.2739 258.063 39.4254 303.877 57.5852 352.383C67.1962 378.062 77.1386 404.614 83.6044 432.53L82.4004 432.807Z" fill="url(#paint30_linear_47_5403)"/>
<path d="M59.0089 443.825C53.2474 415.906 45.1354 389.782 37.2912 364.518C20.9194 311.78 5.45037 261.968 11.9852 201.351C14.7214 176.001 20.8379 150.964 26.7557 126.75C32.5051 103.219 38.4501 78.8855 41.2614 54.3533C46.0714 12.3295 45.9632 -32.1956 45.8547 -75.2547C45.8245 -88.0658 45.7915 -101.313 45.8939 -114.102L47.128 -114.092C47.0226 -101.31 47.0559 -88.0658 47.0889 -75.2578C47.1943 -32.1642 47.3055 12.3973 42.4835 54.4948C39.666 79.1037 33.7122 103.475 27.9538 127.042C22.045 151.218 15.9377 176.215 13.2135 201.483C6.70549 261.846 22.1353 311.539 38.471 364.152C46.3245 389.445 54.4424 415.598 60.2189 443.575L59.0089 443.825Z" fill="url(#paint31_linear_47_5403)"/>
<path d="M27.0175 452.734C24.1038 426.09 16.491 399.785 9.12857 374.347C0.980135 346.184 -7.44818 317.065 -9.48587 287.465C-11.1205 263.776 -7.5715 239.56 -4.13686 216.14C-2.95695 208.109 -1.74091 199.804 -0.765667 191.719C10.5493 97.7952 16.1088 -3.24554 16.2262 -117.179H17.4604C17.3399 -3.19438 11.7772 97.8947 0.456427 191.866C-0.518821 199.967 -1.73782 208.28 -2.91496 216.319C-6.34035 239.674 -9.88316 263.824 -8.25785 287.381C-6.22599 316.848 2.18133 345.904 10.3144 374.003C17.6891 399.493 25.3167 425.849 28.2455 452.598L27.0175 452.734Z" fill="url(#paint32_linear_47_5403)"/>
<path d="M-12.9775 459.242L-14.2116 459.19C-12.9744 429.895 -17.7815 400.06 -22.4321 371.207C-27.3867 340.462 -32.5098 308.671 -30.2613 277.637C-28.9399 259.402 -23.4013 242.635 -18.0464 226.421C-13.2906 212.023 -8.37214 197.135 -6.4124 181.247C0.941101 121.635 -4.2634 54.1807 -9.29314 -11.0536C-12.1347 -47.912 -14.8198 -82.7265 -15.3675 -116.012L-14.1334 -116.033C-13.5884 -82.7839 -10.9064 -47.9872 -8.06512 -11.1485C-3.02922 54.1462 2.1783 121.664 -5.19031 181.397C-7.16515 197.406 -12.1014 212.353 -16.8756 226.807C-22.2093 242.951 -27.7239 259.643 -29.0333 277.727C-31.2698 308.615 -26.1587 340.336 -21.2132 371.012C-16.5564 399.923 -11.7375 429.821 -12.9775 459.242Z" fill="url(#paint33_linear_47_5403)"/>
</g>
<defs>
<linearGradient id="paint0_linear_47_5403" x1="169.249" y1="-124.786" x2="169.249" y2="446.29" gradientUnits="userSpaceOnUse">
<stop stop-color="#0DC143"/>
<stop offset="1" stop-color="#0DC143" stop-opacity="0"/>
</linearGradient>
<linearGradient id="paint1_linear_47_5403" x1="151.083" y1="298.197" x2="151.083" y2="334.265" gradientUnits="userSpaceOnUse">
<stop stop-color="#0DC143"/>
<stop offset="1" stop-color="#0DC143" stop-opacity="0"/>
</linearGradient>
<linearGradient id="paint2_linear_47_5403" x1="153.318" y1="261.482" x2="153.318" y2="311.137" gradientUnits="userSpaceOnUse">
<stop stop-color="#0DC143"/>
<stop offset="1" stop-color="#0DC143" stop-opacity="0"/>
</linearGradient>
<linearGradient id="paint3_linear_47_5403" x1="159.806" y1="240.948" x2="159.806" y2="284.701" gradientUnits="userSpaceOnUse">
<stop stop-color="#0DC143"/>
<stop offset="1" stop-color="#0DC143" stop-opacity="0"/>
</linearGradient>
<linearGradient id="paint4_linear_47_5403" x1="170.954" y1="228.196" x2="170.954" y2="261.624" gradientUnits="userSpaceOnUse">
<stop stop-color="#0DC143"/>
<stop offset="1" stop-color="#0DC143" stop-opacity="0"/>
</linearGradient>
<linearGradient id="paint5_linear_47_5403" x1="185.664" y1="210.472" x2="185.664" y2="244.681" gradientUnits="userSpaceOnUse">
<stop stop-color="#0DC143"/>
<stop offset="1" stop-color="#0DC143" stop-opacity="0"/>
</linearGradient>
<linearGradient id="paint6_linear_47_5403" x1="198.854" y1="192.749" x2="198.854" y2="229.81" gradientUnits="userSpaceOnUse">
<stop stop-color="#0DC143"/>
<stop offset="1" stop-color="#0DC143" stop-opacity="0"/>
</linearGradient>
<linearGradient id="paint7_linear_47_5403" x1="207.798" y1="169.178" x2="207.798" y2="212.579" gradientUnits="userSpaceOnUse">
<stop stop-color="#0DC143"/>
<stop offset="1" stop-color="#0DC143" stop-opacity="0"/>
</linearGradient>
<linearGradient id="paint8_linear_47_5403" x1="207.955" y1="142.437" x2="207.955" y2="189.162" gradientUnits="userSpaceOnUse">
<stop stop-color="#0DC143"/>
<stop offset="1" stop-color="#0DC143" stop-opacity="0"/>
</linearGradient>
<linearGradient id="paint9_linear_47_5403" x1="200.614" y1="119.569" x2="200.614" y2="160.118" gradientUnits="userSpaceOnUse">
<stop stop-color="#0DC143"/>
<stop offset="1" stop-color="#0DC143" stop-opacity="0"/>
</linearGradient>
<linearGradient id="paint10_linear_47_5403" x1="184.852" y1="96.5693" x2="184.852" y2="140.607" gradientUnits="userSpaceOnUse">
<stop stop-color="#0DC143"/>
<stop offset="1" stop-color="#0DC143" stop-opacity="0"/>
</linearGradient>
<linearGradient id="paint11_linear_47_5403" x1="166.381" y1="72.8457" x2="166.381" y2="129.317" gradientUnits="userSpaceOnUse">
<stop stop-color="#0DC143"/>
<stop offset="1" stop-color="#0DC143" stop-opacity="0"/>
</linearGradient>
<linearGradient id="paint12_linear_47_5403" x1="154.415" y1="48.3418" x2="154.415" y2="118.428" gradientUnits="userSpaceOnUse">
<stop stop-color="#0DC143"/>
<stop offset="1" stop-color="#0DC143" stop-opacity="0"/>
</linearGradient>
<linearGradient id="paint13_linear_47_5403" x1="148.631" y1="25.7256" x2="148.631" y2="98.3376" gradientUnits="userSpaceOnUse">
<stop stop-color="#0DC143"/>
<stop offset="1" stop-color="#0DC143" stop-opacity="0"/>
</linearGradient>
<linearGradient id="paint14_linear_47_5403" x1="148.411" y1="3.95703" x2="148.411" y2="61.7089" gradientUnits="userSpaceOnUse">
<stop stop-color="#0DC143"/>
<stop offset="1" stop-color="#0DC143" stop-opacity="0"/>
</linearGradient>
<linearGradient id="paint15_linear_47_5403" x1="151.752" y1="-24.5547" x2="151.752" y2="20.9422" gradientUnits="userSpaceOnUse">
<stop stop-color="#0DC143"/>
<stop offset="1" stop-color="#0DC143" stop-opacity="0"/>
</linearGradient>
<linearGradient id="paint16_linear_47_5403" x1="400.031" y1="-107.544" x2="400.031" y2="425.178" gradientUnits="userSpaceOnUse">
<stop stop-color="#0DC143"/>
<stop offset="1" stop-color="#0DC143" stop-opacity="0"/>
</linearGradient>
<linearGradient id="paint17_linear_47_5403" x1="368.776" y1="-114.216" x2="368.776" y2="422.43" gradientUnits="userSpaceOnUse">
<stop stop-color="#0DC143"/>
<stop offset="1" stop-color="#0DC143" stop-opacity="0"/>
</linearGradient>
<linearGradient id="paint18_linear_47_5403" x1="345.166" y1="-119.893" x2="345.166" y2="422.677" gradientUnits="userSpaceOnUse">
<stop stop-color="#0DC143"/>
<stop offset="1" stop-color="#0DC143" stop-opacity="0"/>
</linearGradient>
<linearGradient id="paint19_linear_47_5403" x1="321.664" y1="-124.563" x2="321.664" y2="422.507" gradientUnits="userSpaceOnUse">
<stop stop-color="#0DC143"/>
<stop offset="1" stop-color="#0DC143" stop-opacity="0"/>
</linearGradient>
<linearGradient id="paint20_linear_47_5403" x1="297.52" y1="-123.05" x2="297.52" y2="419.225" gradientUnits="userSpaceOnUse">
<stop stop-color="#0DC143"/>
<stop offset="1" stop-color="#0DC143" stop-opacity="0"/>
</linearGradient>
<linearGradient id="paint21_linear_47_5403" x1="271.518" y1="-118.483" x2="271.518" y2="415.24" gradientUnits="userSpaceOnUse">
<stop stop-color="#0DC143"/>
<stop offset="1" stop-color="#0DC143" stop-opacity="0"/>
</linearGradient>
<linearGradient id="paint22_linear_47_5403" x1="240.786" y1="-104.478" x2="240.786" y2="408.678" gradientUnits="userSpaceOnUse">
<stop stop-color="#0DC143"/>
<stop offset="1" stop-color="#0DC143" stop-opacity="0"/>
</linearGradient>
<linearGradient id="paint23_linear_47_5403" x1="203.072" y1="-84.4463" x2="203.072" y2="397.937" gradientUnits="userSpaceOnUse">
<stop stop-color="#0DC143"/>
<stop offset="1" stop-color="#0DC143" stop-opacity="0"/>
</linearGradient>
<linearGradient id="paint24_linear_47_5403" x1="166.07" y1="-65.2002" x2="166.07" y2="388.439" gradientUnits="userSpaceOnUse">
<stop stop-color="#0DC143"/>
<stop offset="1" stop-color="#0DC143" stop-opacity="0"/>
</linearGradient>
<linearGradient id="paint25_linear_47_5403" x1="135.789" y1="-55.9648" x2="135.789" y2="382.03" gradientUnits="userSpaceOnUse">
<stop stop-color="#0DC143"/>
<stop offset="1" stop-color="#0DC143" stop-opacity="0"/>
</linearGradient>
<linearGradient id="paint26_linear_47_5403" x1="112.185" y1="-57.9668" x2="112.185" y2="381.604" gradientUnits="userSpaceOnUse">
<stop stop-color="#0DC143"/>
<stop offset="1" stop-color="#0DC143" stop-opacity="0"/>
</linearGradient>
<linearGradient id="paint27_linear_47_5403" x1="94.8839" y1="-65.5723" x2="94.8839" y2="386.25" gradientUnits="userSpaceOnUse">
<stop stop-color="#0DC143"/>
<stop offset="1" stop-color="#0DC143" stop-opacity="0"/>
</linearGradient>
<linearGradient id="paint28_linear_47_5403" x1="80.1939" y1="-80.5938" x2="80.1939" y2="394.778" gradientUnits="userSpaceOnUse">
<stop stop-color="#0DC143"/>
<stop offset="1" stop-color="#0DC143" stop-opacity="0"/>
</linearGradient>
<linearGradient id="paint29_linear_47_5403" x1="68.6257" y1="-96.7695" x2="68.6257" y2="405.099" gradientUnits="userSpaceOnUse">
<stop stop-color="#0DC143"/>
<stop offset="1" stop-color="#0DC143" stop-opacity="0"/>
</linearGradient>
<linearGradient id="paint30_linear_47_5403" x1="54.0642" y1="-110.198" x2="54.0642" y2="416.731" gradientUnits="userSpaceOnUse">
<stop stop-color="#0DC143"/>
<stop offset="1" stop-color="#0DC143" stop-opacity="0"/>
</linearGradient>
<linearGradient id="paint31_linear_47_5403" x1="35.3354" y1="-114.102" x2="35.3354" y2="427.307" gradientUnits="userSpaceOnUse">
<stop stop-color="#0DC143"/>
<stop offset="1" stop-color="#0DC143" stop-opacity="0"/>
</linearGradient>
<linearGradient id="paint32_linear_47_5403" x1="9.17463" y1="-117.179" x2="9.17463" y2="435.861" gradientUnits="userSpaceOnUse">
<stop stop-color="#0DC143"/>
<stop offset="1" stop-color="#0DC143" stop-opacity="0"/>
</linearGradient>
<linearGradient id="paint33_linear_47_5403" x1="-16.1665" y1="-116.033" x2="-16.1665" y2="442.21" gradientUnits="userSpaceOnUse">
<stop stop-color="#0DC143"/>
<stop offset="1" stop-color="#0DC143" stop-opacity="0"/>
</linearGradient>
</defs>
</svg>
