<svg width="52" height="51" viewBox="0 0 52 51" fill="none" xmlns="http://www.w3.org/2000/svg">
<path d="M40.9753 11.3263C38.149 10.0088 35.089 9.0525 31.9015 8.5C31.8454 8.5008 31.792 8.52371 31.7528 8.56375C31.3702 9.265 30.924 10.1788 30.6265 10.88C27.2456 10.3703 23.8074 10.3703 20.4265 10.88C20.1289 10.1575 19.6827 9.265 19.2789 8.56375C19.2577 8.52125 19.1939 8.5 19.1302 8.5C15.9427 9.0525 12.9039 10.0088 10.0564 11.3263C10.0352 11.3263 10.0139 11.3475 9.99265 11.3688C4.21263 20.0176 2.61887 28.4326 3.40512 36.7626C3.40512 36.8051 3.42637 36.8476 3.46887 36.8689C7.29389 39.6739 10.9702 41.3739 14.6039 42.5002C14.6677 42.5214 14.7314 42.5002 14.7527 42.4577C15.6027 41.2889 16.3677 40.0564 17.0264 38.7601C17.0689 38.6751 17.0264 38.5901 16.9414 38.5689C15.7302 38.1014 14.5827 37.5489 13.4564 36.9114C13.3714 36.8689 13.3714 36.7414 13.4352 36.6776C13.6689 36.5076 13.9027 36.3164 14.1364 36.1464C14.1789 36.1039 14.2427 36.1039 14.2852 36.1251C21.5952 39.4614 29.479 39.4614 36.704 36.1251C36.7465 36.1039 36.8103 36.1039 36.8528 36.1464C37.0865 36.3376 37.3203 36.5076 37.554 36.6989C37.639 36.7626 37.639 36.8901 37.5328 36.9326C36.4278 37.5914 35.259 38.1226 34.0478 38.5901C33.9628 38.6114 33.9415 38.7176 33.9628 38.7814C34.6428 40.0776 35.4078 41.3101 36.2365 42.4789C36.3003 42.5002 36.364 42.5214 36.4278 42.5002C40.0828 41.3739 43.7591 39.6739 47.5841 36.8689C47.6266 36.8476 47.6478 36.8051 47.6478 36.7626C48.5828 27.1363 46.0966 18.785 41.0603 11.3688C41.039 11.3475 41.0178 11.3263 40.9753 11.3263ZM18.1314 31.6839C15.9427 31.6839 14.1152 29.6651 14.1152 27.1788C14.1152 24.6926 15.9002 22.6738 18.1314 22.6738C20.3839 22.6738 22.169 24.7138 22.1477 27.1788C22.1477 29.6651 20.3627 31.6839 18.1314 31.6839ZM32.9428 31.6839C30.754 31.6839 28.9265 29.6651 28.9265 27.1788C28.9265 24.6926 30.7115 22.6738 32.9428 22.6738C35.1953 22.6738 36.9803 24.7138 36.959 27.1788C36.959 29.6651 35.1953 31.6839 32.9428 31.6839Z" fill="white"/>
</svg>
