<svg width="44" height="43" viewBox="0 0 44 43" fill="none" xmlns="http://www.w3.org/2000/svg">
<path d="M21.5659 3.60547C19.2159 3.60547 16.8889 4.06833 14.7179 4.96762C12.5468 5.86692 10.5741 7.18504 8.91239 8.84672C5.55648 12.2026 3.67114 16.7542 3.67114 21.5002C3.67114 29.4097 8.80693 36.1202 15.9111 38.5002C16.8059 38.6434 17.0922 38.0886 17.0922 37.6055V34.5813C12.1354 35.6549 11.0796 32.1834 11.0796 32.1834C10.2564 30.1076 9.09325 29.5528 9.09325 29.5528C7.46483 28.4434 9.21851 28.4792 9.21851 28.4792C11.008 28.6044 11.9564 30.3223 11.9564 30.3223C13.5132 33.0423 16.1438 32.237 17.1638 31.8076C17.3248 30.6444 17.7901 29.857 18.2911 29.4097C14.3185 28.9623 10.149 27.4234 10.149 20.6055C10.149 18.6192 10.829 17.0265 11.9922 15.756C11.8132 15.3086 11.1869 13.4476 12.1711 11.0318C12.1711 11.0318 13.6743 10.5486 17.0922 12.857C18.5059 12.4634 20.0448 12.2665 21.5659 12.2665C23.0869 12.2665 24.6259 12.4634 26.0396 12.857C29.4575 10.5486 30.9606 11.0318 30.9606 11.0318C31.9448 13.4476 31.3185 15.3086 31.1396 15.756C32.3027 17.0265 32.9827 18.6192 32.9827 20.6055C32.9827 27.4413 28.7954 28.9444 24.8048 29.3918C25.449 29.9465 26.0396 31.0381 26.0396 32.7023V37.6055C26.0396 38.0886 26.3259 38.6613 27.2385 38.5002C34.3427 36.1023 39.4606 29.4097 39.4606 21.5002C39.4606 19.1502 38.9978 16.8233 38.0985 14.6522C37.1992 12.4811 35.881 10.5084 34.2194 8.84672C32.5577 7.18504 30.585 5.86692 28.4139 4.96762C26.2428 4.06833 23.9158 3.60547 21.5659 3.60547Z" fill="white"/>
</svg>
