<svg width="52" height="51" viewBox="0 0 52 51" fill="none" xmlns="http://www.w3.org/2000/svg">
<path d="M25.7378 4.25C21.5349 4.25 17.4265 5.49629 13.9319 7.83127C10.4374 10.1663 7.71372 13.485 6.10536 17.368C4.497 21.2509 4.07618 25.5236 4.89612 29.6457C5.71605 33.7678 7.73992 37.5542 10.7118 40.526C13.6836 43.4979 17.47 45.5218 21.5921 46.3417C25.7142 47.1616 29.9869 46.7408 33.8698 45.1324C37.7528 43.5241 41.0715 40.8004 43.4065 37.3059C45.7415 33.8113 46.9878 29.7029 46.9878 25.5C46.988 22.7093 46.4385 19.946 45.3707 17.3677C44.3029 14.7894 42.7376 12.4468 40.7643 10.4735C38.791 8.50017 36.4484 6.93492 33.8701 5.86709C31.2918 4.79926 28.5285 4.24977 25.7378 4.25ZM32.4943 36.449C32.4147 36.6473 32.2937 36.8264 32.1393 36.9741C31.9849 37.1218 31.8007 37.2348 31.5991 37.3056C31.3975 37.3763 31.183 37.4031 30.9702 37.3842C30.7574 37.3653 30.551 37.3011 30.365 37.1959L24.5963 32.7135L20.8939 36.1293C20.808 36.1927 20.7075 36.2336 20.6017 36.248C20.4958 36.2625 20.3881 36.2501 20.2883 36.212L20.998 29.8615L21.0207 29.8795L21.0353 29.7542C21.0353 29.7542 31.4159 20.3032 31.8388 19.9005C32.2669 19.4989 32.1256 19.4118 32.1256 19.4118C32.15 18.9219 31.3574 19.4118 31.3574 19.4118L17.6033 28.2604L11.8754 26.3096C11.8754 26.3096 10.9956 25.9941 10.9128 25.3003C10.8256 24.6117 11.9041 24.2378 11.9041 24.2378L34.6777 15.1905C34.6777 15.1905 36.5498 14.3564 36.5498 15.7378L32.4943 36.449Z" fill="white"/>
</svg>
